<svg xmlns="http://www.w3.org/2000/svg" xmlns:rdkit="http://www.rdkit.org/xml" xmlns:xlink="http://www.w3.org/1999/xlink" version="1.1" baseProfile="full" xml:space="preserve" width="750px" height="750px" viewBox="0 0 750 750">
<!-- END OF HEADER -->
<rect style="opacity:1.0;fill:#FFFFFF;stroke:none" width="750.0" height="750.0" x="0.0" y="0.0"> </rect>
<path class="bond-0 atom-0 atom-1" d="M 202.6,124.3 L 151.6,146.0" style="fill:none;fill-rule:evenodd;stroke:#000000;stroke-width:2.0px;stroke-linecap:butt;stroke-linejoin:miter;stroke-opacity:1"/>
<path class="bond-1 atom-1 atom-2" d="M 151.6,146.0 L 106.1,111.7" style="fill:none;fill-rule:evenodd;stroke:#000000;stroke-width:2.0px;stroke-linecap:butt;stroke-linejoin:miter;stroke-opacity:1"/>
<path class="bond-1 atom-1 atom-2" d="M 152.9,130.1 L 121.0,106.1" style="fill:none;fill-rule:evenodd;stroke:#000000;stroke-width:2.0px;stroke-linecap:butt;stroke-linejoin:miter;stroke-opacity:1"/>
<path class="bond-2 atom-2 atom-3" d="M 89.5,109.0 L 54.0,124.1" style="fill:none;fill-rule:evenodd;stroke:#000000;stroke-width:2.0px;stroke-linecap:butt;stroke-linejoin:miter;stroke-opacity:1"/>
<path class="atom-0" d="M 204.8 119.7 Q 204.8 115.1, 207.1 112.5 Q 209.4 110.0, 213.6 110.0 Q 217.8 110.0, 220.1 112.5 Q 222.4 115.1, 222.4 119.7 Q 222.4 124.3, 220.1 126.9 Q 217.8 129.5, 213.6 129.5 Q 209.4 129.5, 207.1 126.9 Q 204.8 124.3, 204.8 119.7 M 213.6 127.4 Q 216.5 127.4, 218.1 125.4 Q 219.7 123.5, 219.7 119.7 Q 219.7 115.9, 218.1 114.0 Q 216.5 112.1, 213.6 112.1 Q 210.7 112.1, 209.1 114.0 Q 207.5 115.9, 207.5 119.7 Q 207.5 123.5, 209.1 125.4 Q 210.7 127.4, 213.6 127.4 " fill="#000000"/>
<path class="atom-0" d="M 223.7 110.2 L 226.3 110.2 L 226.3 118.3 L 236.0 118.3 L 236.0 110.2 L 238.6 110.2 L 238.6 129.2 L 236.0 129.2 L 236.0 120.4 L 226.3 120.4 L 226.3 129.2 L 223.7 129.2 L 223.7 110.2 " fill="#000000"/>
<path class="atom-2" d="M 97.3 95.9 Q 100.6 95.9, 102.2 97.4 Q 103.9 98.9, 103.9 101.5 Q 103.9 104.2, 102.2 105.7 Q 100.5 107.2, 97.3 107.2 L 94.3 107.2 L 94.3 115.0 L 91.7 115.0 L 91.7 95.9 L 97.3 95.9 M 97.3 105.0 Q 99.2 105.0, 100.2 104.1 Q 101.2 103.2, 101.2 101.5 Q 101.2 99.9, 100.2 99.0 Q 99.2 98.1, 97.3 98.1 L 94.3 98.1 L 94.3 105.0 L 97.3 105.0 " fill="#000000"/>
<path class="atom-3" d="M 11.4 122.3 L 14.0 122.3 L 14.0 130.4 L 23.7 130.4 L 23.7 122.3 L 26.3 122.3 L 26.3 141.4 L 23.7 141.4 L 23.7 132.6 L 14.0 132.6 L 14.0 141.4 L 11.4 141.4 L 11.4 122.3 " fill="#000000"/>
<path class="atom-3" d="M 31.6 122.3 L 37.8 132.4 Q 38.5 133.4, 39.5 135.2 Q 40.5 137.0, 40.5 137.1 L 40.5 122.3 L 43.0 122.3 L 43.0 141.4 L 40.4 141.4 L 33.7 130.3 Q 32.9 129.1, 32.1 127.6 Q 31.3 126.1, 31.1 125.6 L 31.1 141.4 L 28.6 141.4 L 28.6 122.3 L 31.6 122.3 " fill="#000000"/>
<path class="atom-3" d="M 45.3 125.5 L 51.8 125.5 L 51.8 126.9 L 45.3 126.9 L 45.3 125.5 " fill="#000000"/>
<path class="atom-1" d="M 153.0,152.0 L 153.0,152.2 L 153.0,152.3 L 152.9,152.4 L 152.9,152.5 L 152.9,152.6 L 152.8,152.7 L 152.7,152.8 L 152.7,152.9 L 152.6,153.0 L 152.5,153.1 L 152.4,153.1 L 152.3,153.2 L 152.2,153.2 L 152.1,153.3 L 152.0,153.3 L 151.9,153.4 L 151.8,153.4 L 151.7,153.4 L 151.5,153.4 L 151.4,153.4 L 151.3,153.3 L 151.2,153.3 L 151.1,153.3 L 151.0,153.2 L 150.9,153.2 L 150.8,153.1 L 150.7,153.0 L 150.6,152.9 L 150.5,152.8 L 150.5,152.7 L 150.4,152.6 L 150.4,152.5 L 150.3,152.4 L 150.3,152.3 L 150.3,152.2 L 150.3,152.1 L 150.3,152.0 L 150.3,151.9 L 150.3,151.7 L 150.3,151.6 L 150.4,151.5 L 150.4,151.4 L 150.5,151.3 L 150.5,151.2 L 150.6,151.1 L 150.7,151.1 L 150.8,151.0 L 150.9,150.9 L 151.0,150.8 L 151.1,150.8 L 151.2,150.8 L 151.3,150.7 L 151.4,150.7 L 151.5,150.7 L 151.7,150.7 L 151.8,150.7 L 151.9,150.7 L 152.0,150.7 L 152.1,150.8 L 152.2,150.8 L 152.3,150.9 L 152.4,150.9 L 152.5,151.0 L 152.6,151.1 L 152.7,151.2 L 152.7,151.3 L 152.8,151.4 L 152.9,151.5 L 152.9,151.6 L 152.9,151.7 L 153.0,151.8 L 153.0,151.9 L 153.0,152.0 L 151.6,152.0 Z" style="fill:#000000;fill-rule:evenodd;fill-opacity:1;stroke:#000000;stroke-width:0.0px;stroke-linecap:butt;stroke-linejoin:miter;stroke-opacity:1;"/>
<path class="bond-0 atom-0 atom-1" d="M 332.5,117.9 L 415.8,117.9" style="fill:none;fill-rule:evenodd;stroke:#000000;stroke-width:2.0px;stroke-linecap:butt;stroke-linejoin:miter;stroke-opacity:1"/>
<path class="atom-0" d="M 267.6 103.7 L 271.4 103.7 L 271.4 115.7 L 285.9 115.7 L 285.9 103.7 L 289.8 103.7 L 289.8 132.0 L 285.9 132.0 L 285.9 118.9 L 271.4 118.9 L 271.4 132.0 L 267.6 132.0 L 267.6 103.7 " fill="#000000"/>
<path class="atom-0" d="M 293.2 131.0 Q 293.9 129.3, 295.5 128.3 Q 297.2 127.3, 299.4 127.3 Q 302.3 127.3, 303.8 128.8 Q 305.4 130.3, 305.4 133.1 Q 305.4 135.8, 303.4 138.4 Q 301.3 141.0, 297.1 144.1 L 305.7 144.1 L 305.7 146.2 L 293.2 146.2 L 293.2 144.4 Q 296.6 141.9, 298.7 140.1 Q 300.8 138.2, 301.8 136.6 Q 302.8 134.9, 302.8 133.2 Q 302.8 131.4, 301.9 130.4 Q 301.0 129.4, 299.4 129.4 Q 297.9 129.4, 296.9 130.0 Q 295.9 130.6, 295.2 132.0 L 293.2 131.0 " fill="#000000"/>
<path class="atom-0" d="M 311.8 103.7 L 321.1 118.7 Q 322.0 120.2, 323.5 122.9 Q 325.0 125.5, 325.1 125.7 L 325.1 103.7 L 328.8 103.7 L 328.8 132.0 L 324.9 132.0 L 315.0 115.6 Q 313.8 113.7, 312.6 111.5 Q 311.4 109.3, 311.0 108.6 L 311.0 132.0 L 307.3 132.0 L 307.3 103.7 L 311.8 103.7 " fill="#000000"/>
<path class="atom-1" d="M 424.0 103.7 L 433.2 118.7 Q 434.2 120.2, 435.6 122.9 Q 437.1 125.5, 437.2 125.7 L 437.2 103.7 L 441.0 103.7 L 441.0 132.0 L 437.1 132.0 L 427.1 115.6 Q 426.0 113.7, 424.7 111.5 Q 423.5 109.3, 423.2 108.6 L 423.2 132.0 L 419.5 132.0 L 419.5 103.7 L 424.0 103.7 " fill="#000000"/>
<path class="atom-1" d="M 444.3 103.7 L 448.1 103.7 L 448.1 115.7 L 462.6 115.7 L 462.6 103.7 L 466.4 103.7 L 466.4 132.0 L 462.6 132.0 L 462.6 118.9 L 448.1 118.9 L 448.1 132.0 L 444.3 132.0 L 444.3 103.7 " fill="#000000"/>
<path class="atom-1" d="M 478.8 136.3 Q 480.6 136.9, 481.5 138.1 Q 482.4 139.2, 482.4 141.1 Q 482.4 142.6, 481.6 143.9 Q 480.8 145.1, 479.4 145.8 Q 477.9 146.4, 476.0 146.4 Q 474.0 146.4, 472.5 145.8 Q 471.0 145.0, 469.8 143.6 L 471.3 142.1 Q 472.5 143.4, 473.5 143.9 Q 474.5 144.3, 476.0 144.3 Q 477.7 144.3, 478.7 143.4 Q 479.8 142.5, 479.8 141.0 Q 479.8 139.1, 478.7 138.3 Q 477.6 137.4, 475.3 137.4 L 474.0 137.4 L 474.0 135.5 L 475.2 135.5 Q 477.2 135.5, 478.3 134.6 Q 479.4 133.7, 479.4 132.1 Q 479.4 130.8, 478.5 130.1 Q 477.6 129.4, 476.0 129.4 Q 474.5 129.4, 473.5 129.9 Q 472.6 130.5, 471.8 131.9 L 470.0 130.9 Q 470.7 129.4, 472.2 128.3 Q 473.8 127.3, 476.0 127.3 Q 478.8 127.3, 480.4 128.6 Q 482.0 129.9, 482.0 132.1 Q 482.0 133.6, 481.2 134.6 Q 480.4 135.7, 478.8 136.3 " fill="#000000"/>
<path class="atom-1" d="M 470.0 108.8 L 474.9 108.8 L 474.9 103.6 L 477.2 103.6 L 477.2 108.8 L 482.3 108.8 L 482.3 110.7 L 477.2 110.7 L 477.2 116.0 L 474.9 116.0 L 474.9 110.7 L 470.0 110.7 L 470.0 108.8 " fill="#000000"/>
<path class="bond-0 atom-0 atom-1" d="M 677.2,63.3 L 670.8,87.5" style="fill:none;fill-rule:evenodd;stroke:#000000;stroke-width:2.0px;stroke-linecap:butt;stroke-linejoin:miter;stroke-opacity:1"/>
<path class="bond-1 atom-1 atom-2" d="M 674.5,99.9 L 691.5,116.7" style="fill:none;fill-rule:evenodd;stroke:#000000;stroke-width:2.0px;stroke-linecap:butt;stroke-linejoin:miter;stroke-opacity:1"/>
<path class="bond-2 atom-2 atom-3" d="M 695.2,129.1 L 687.0,160.4" style="fill:none;fill-rule:evenodd;stroke:#000000;stroke-width:2.0px;stroke-linecap:butt;stroke-linejoin:miter;stroke-opacity:1"/>
<path class="bond-3 atom-3 atom-4" d="M 687.0,160.4 L 709.5,182.8" style="fill:none;fill-rule:evenodd;stroke:#000000;stroke-width:2.0px;stroke-linecap:butt;stroke-linejoin:miter;stroke-opacity:1"/>
<path class="bond-4 atom-3 atom-5" d="M 687.0,160.4 L 654.4,169.3" style="fill:none;fill-rule:evenodd;stroke:#000000;stroke-width:2.0px;stroke-linecap:butt;stroke-linejoin:miter;stroke-opacity:1"/>
<path class="bond-5 atom-6 atom-5" d="M 630.0,153.6 L 631.4,152.2" style="fill:none;fill-rule:evenodd;stroke:#000000;stroke-width:1.0px;stroke-linecap:butt;stroke-linejoin:miter;stroke-opacity:1"/>
<path class="bond-5 atom-6 atom-5" d="M 633.1,158.0 L 635.9,155.2" style="fill:none;fill-rule:evenodd;stroke:#000000;stroke-width:1.0px;stroke-linecap:butt;stroke-linejoin:miter;stroke-opacity:1"/>
<path class="bond-5 atom-6 atom-5" d="M 636.2,162.4 L 640.3,158.2" style="fill:none;fill-rule:evenodd;stroke:#000000;stroke-width:1.0px;stroke-linecap:butt;stroke-linejoin:miter;stroke-opacity:1"/>
<path class="bond-5 atom-6 atom-5" d="M 639.2,166.9 L 644.8,161.2" style="fill:none;fill-rule:evenodd;stroke:#000000;stroke-width:1.0px;stroke-linecap:butt;stroke-linejoin:miter;stroke-opacity:1"/>
<path class="bond-6 atom-6 atom-7" d="M 615.9,144.4 L 587.6,152.1" style="fill:none;fill-rule:evenodd;stroke:#000000;stroke-width:2.0px;stroke-linecap:butt;stroke-linejoin:miter;stroke-opacity:1"/>
<path class="bond-7 atom-7 atom-8" d="M 577.8,148.6 L 560.2,131.1" style="fill:none;fill-rule:evenodd;stroke:#000000;stroke-width:2.0px;stroke-linecap:butt;stroke-linejoin:miter;stroke-opacity:1"/>
<path class="bond-8 atom-8 atom-9" d="M 550.1,130.9 L 524.0,138.1" style="fill:none;fill-rule:evenodd;stroke:#000000;stroke-width:2.0px;stroke-linecap:butt;stroke-linejoin:miter;stroke-opacity:1"/>
<path class="bond-8 atom-8 atom-9" d="M 548.0,123.3 L 521.9,130.4" style="fill:none;fill-rule:evenodd;stroke:#000000;stroke-width:2.0px;stroke-linecap:butt;stroke-linejoin:miter;stroke-opacity:1"/>
<path class="atom-0" d="M 673.9 56.2 Q 673.9 53.6, 675.2 52.1 Q 676.6 50.6, 679.0 50.6 Q 681.5 50.6, 682.8 52.1 Q 684.2 53.6, 684.2 56.2 Q 684.2 59.0, 682.8 60.5 Q 681.5 62.0, 679.0 62.0 Q 676.6 62.0, 675.2 60.5 Q 673.9 59.0, 673.9 56.2 M 679.0 60.8 Q 680.7 60.8, 681.7 59.6 Q 682.6 58.5, 682.6 56.2 Q 682.6 54.0, 681.7 52.9 Q 680.7 51.8, 679.0 51.8 Q 677.3 51.8, 676.4 52.9 Q 675.5 54.0, 675.5 56.2 Q 675.5 58.5, 676.4 59.6 Q 677.3 60.8, 679.0 60.8 " fill="#000000"/>
<path class="atom-0" d="M 685.0 50.7 L 686.5 50.7 L 686.5 55.4 L 692.2 55.4 L 692.2 50.7 L 693.7 50.7 L 693.7 61.9 L 692.2 61.9 L 692.2 56.7 L 686.5 56.7 L 686.5 61.9 L 685.0 61.9 L 685.0 50.7 " fill="#000000"/>
<path class="atom-1" d="M 654.6 88.8 L 656.2 88.8 L 656.2 93.6 L 661.9 93.6 L 661.9 88.8 L 663.4 88.8 L 663.4 100.0 L 661.9 100.0 L 661.9 94.8 L 656.2 94.8 L 656.2 100.0 L 654.6 100.0 L 654.6 88.8 " fill="#000000"/>
<path class="atom-1" d="M 666.5 88.8 L 670.2 94.8 Q 670.5 95.3, 671.1 96.4 Q 671.7 97.5, 671.7 97.5 L 671.7 88.8 L 673.2 88.8 L 673.2 100.0 L 671.7 100.0 L 667.8 93.5 Q 667.3 92.8, 666.8 91.9 Q 666.3 91.0, 666.2 90.8 L 666.2 100.0 L 664.7 100.0 L 664.7 88.8 L 666.5 88.8 " fill="#000000"/>
<path class="atom-2" d="M 694.6 116.6 L 698.2 122.6 Q 698.6 123.2, 699.2 124.2 Q 699.8 125.3, 699.8 125.3 L 699.8 116.6 L 701.3 116.6 L 701.3 127.8 L 699.7 127.8 L 695.8 121.3 Q 695.4 120.6, 694.9 119.7 Q 694.4 118.9, 694.2 118.6 L 694.2 127.8 L 692.8 127.8 L 692.8 116.6 L 694.6 116.6 " fill="#000000"/>
<path class="atom-2" d="M 702.6 118.7 L 704.6 118.7 L 704.6 116.6 L 705.4 116.6 L 705.4 118.7 L 707.5 118.7 L 707.5 119.4 L 705.4 119.4 L 705.4 121.5 L 704.6 121.5 L 704.6 119.4 L 702.6 119.4 L 702.6 118.7 " fill="#000000"/>
<path class="atom-4" d="M 712.6 182.7 L 716.2 188.6 Q 716.6 189.2, 717.2 190.2 Q 717.8 191.3, 717.8 191.4 L 717.8 182.7 L 719.3 182.7 L 719.3 193.9 L 717.8 193.9 L 713.8 187.4 Q 713.4 186.6, 712.9 185.7 Q 712.4 184.9, 712.3 184.6 L 712.3 193.9 L 710.8 193.9 L 710.8 182.7 L 712.6 182.7 " fill="#000000"/>
<path class="atom-4" d="M 720.6 182.7 L 722.1 182.7 L 722.1 187.4 L 727.8 187.4 L 727.8 182.7 L 729.4 182.7 L 729.4 193.9 L 727.8 193.9 L 727.8 188.7 L 722.1 188.7 L 722.1 193.9 L 720.6 193.9 L 720.6 182.7 " fill="#000000"/>
<path class="atom-4" d="M 730.7 193.5 Q 731.0 192.8, 731.6 192.4 Q 732.3 192.0, 733.2 192.0 Q 734.3 192.0, 734.9 192.6 Q 735.5 193.2, 735.5 194.3 Q 735.5 195.4, 734.7 196.4 Q 733.9 197.4, 732.3 198.6 L 735.7 198.6 L 735.7 199.4 L 730.7 199.4 L 730.7 198.7 Q 732.1 197.8, 732.9 197.0 Q 733.7 196.3, 734.1 195.7 Q 734.5 195.0, 734.5 194.3 Q 734.5 193.6, 734.2 193.2 Q 733.8 192.8, 733.2 192.8 Q 732.6 192.8, 732.2 193.1 Q 731.8 193.3, 731.5 193.8 L 730.7 193.5 " fill="#000000"/>
<path class="atom-4" d="M 730.7 184.7 L 732.7 184.7 L 732.7 182.6 L 733.6 182.6 L 733.6 184.7 L 735.6 184.7 L 735.6 185.4 L 733.6 185.4 L 733.6 187.5 L 732.7 187.5 L 732.7 185.4 L 730.7 185.4 L 730.7 184.7 " fill="#000000"/>
<path class="atom-5" d="M 646.4 165.2 L 650.1 171.2 Q 650.4 171.8, 651.0 172.8 Q 651.6 173.9, 651.6 173.9 L 651.6 165.2 L 653.1 165.2 L 653.1 176.4 L 651.6 176.4 L 647.6 170.0 Q 647.2 169.2, 646.7 168.3 Q 646.2 167.5, 646.1 167.2 L 646.1 176.4 L 644.6 176.4 L 644.6 165.2 L 646.4 165.2 " fill="#000000"/>
<path class="atom-5" d="M 644.5 177.6 L 646.0 177.6 L 646.0 182.3 L 651.7 182.3 L 651.7 177.6 L 653.2 177.6 L 653.2 188.7 L 651.7 188.7 L 651.7 183.6 L 646.0 183.6 L 646.0 188.7 L 644.5 188.7 L 644.5 177.6 " fill="#000000"/>
<path class="atom-6" d="M 620.5 137.4 Q 622.4 137.4, 623.4 138.3 Q 624.4 139.2, 624.4 140.7 Q 624.4 142.3, 623.4 143.2 Q 622.4 144.0, 620.5 144.0 L 618.7 144.0 L 618.7 148.6 L 617.2 148.6 L 617.2 137.4 L 620.5 137.4 M 620.5 142.8 Q 621.6 142.8, 622.2 142.2 Q 622.8 141.7, 622.8 140.7 Q 622.8 139.7, 622.2 139.2 Q 621.6 138.7, 620.5 138.7 L 618.7 138.7 L 618.7 142.8 L 620.5 142.8 " fill="#000000"/>
<path class="atom-6" d="M 616.4 125.1 L 617.9 125.1 L 617.9 129.9 L 623.7 129.9 L 623.7 125.1 L 625.2 125.1 L 625.2 136.3 L 623.7 136.3 L 623.7 131.1 L 617.9 131.1 L 617.9 136.3 L 616.4 136.3 L 616.4 125.1 " fill="#000000"/>
<path class="atom-7" d="M 579.5 157.3 Q 579.6 157.3, 580.2 157.5 Q 580.7 157.8, 581.3 157.9 Q 581.8 158.0, 582.4 158.0 Q 583.5 158.0, 584.1 157.5 Q 584.7 157.0, 584.7 156.1 Q 584.7 155.5, 584.4 155.1 Q 584.1 154.7, 583.6 154.5 Q 583.1 154.3, 582.3 154.1 Q 581.4 153.8, 580.8 153.5 Q 580.2 153.2, 579.7 152.6 Q 579.3 152.0, 579.3 151.0 Q 579.3 149.6, 580.3 148.7 Q 581.2 147.8, 583.1 147.8 Q 584.4 147.8, 585.9 148.5 L 585.5 149.7 Q 584.2 149.1, 583.2 149.1 Q 582.1 149.1, 581.5 149.6 Q 580.9 150.0, 580.9 150.8 Q 580.9 151.4, 581.2 151.8 Q 581.5 152.1, 582.0 152.3 Q 582.4 152.5, 583.2 152.8 Q 584.2 153.1, 584.8 153.4 Q 585.4 153.7, 585.8 154.4 Q 586.3 155.0, 586.3 156.1 Q 586.3 157.6, 585.2 158.5 Q 584.2 159.3, 582.5 159.3 Q 581.5 159.3, 580.7 159.1 Q 580.0 158.9, 579.1 158.5 L 579.5 157.3 " fill="#000000"/>
<path class="atom-8" d="M 552.1 120.0 L 555.8 125.9 Q 556.2 126.5, 556.8 127.6 Q 557.3 128.6, 557.4 128.7 L 557.4 120.0 L 558.9 120.0 L 558.9 131.2 L 557.3 131.2 L 553.4 124.7 Q 552.9 124.0, 552.4 123.1 Q 552.0 122.2, 551.8 122.0 L 551.8 131.2 L 550.4 131.2 L 550.4 120.0 L 552.1 120.0 " fill="#000000"/>
<path class="atom-8" d="M 550.2 107.7 L 551.8 107.7 L 551.8 112.5 L 557.5 112.5 L 557.5 107.7 L 559.0 107.7 L 559.0 118.9 L 557.5 118.9 L 557.5 113.7 L 551.8 113.7 L 551.8 118.9 L 550.2 118.9 L 550.2 107.7 " fill="#000000"/>
<path class="atom-8" d="M 560.3 109.7 L 562.3 109.7 L 562.3 107.6 L 563.2 107.6 L 563.2 109.7 L 565.2 109.7 L 565.2 110.5 L 563.2 110.5 L 563.2 112.6 L 562.3 112.6 L 562.3 110.5 L 560.3 110.5 L 560.3 109.7 " fill="#000000"/>
<path class="atom-9" d="M 511.4 136.0 Q 511.4 133.3, 512.7 131.8 Q 514.0 130.3, 516.5 130.3 Q 519.0 130.3, 520.3 131.8 Q 521.6 133.3, 521.6 136.0 Q 521.6 138.8, 520.3 140.3 Q 518.9 141.8, 516.5 141.8 Q 514.0 141.8, 512.7 140.3 Q 511.4 138.8, 511.4 136.0 M 516.5 140.6 Q 518.2 140.6, 519.1 139.4 Q 520.1 138.3, 520.1 136.0 Q 520.1 133.8, 519.1 132.7 Q 518.2 131.6, 516.5 131.6 Q 514.8 131.6, 513.9 132.7 Q 512.9 133.8, 512.9 136.0 Q 512.9 138.3, 513.9 139.4 Q 514.8 140.6, 516.5 140.6 " fill="#000000"/>
<path class="atom-2" d="M 710.6,123.8 L 710.6,123.9 L 710.6,124.0 L 710.6,124.0 L 710.6,124.1 L 710.6,124.1 L 710.5,124.2 L 710.5,124.3 L 710.4,124.3 L 710.4,124.4 L 710.3,124.4 L 710.3,124.5 L 710.2,124.5 L 710.2,124.5 L 710.1,124.6 L 710.1,124.6 L 710.0,124.6 L 709.9,124.6 L 709.9,124.6 L 709.8,124.6 L 709.7,124.6 L 709.6,124.6 L 709.6,124.6 L 709.5,124.5 L 709.5,124.5 L 709.4,124.5 L 709.3,124.4 L 709.3,124.4 L 709.2,124.3 L 709.2,124.3 L 709.2,124.2 L 709.1,124.2 L 709.1,124.1 L 709.1,124.0 L 709.1,124.0 L 709.1,123.9 L 709.0,123.8 L 709.0,123.8 L 709.1,123.7 L 709.1,123.6 L 709.1,123.6 L 709.1,123.5 L 709.1,123.5 L 709.2,123.4 L 709.2,123.3 L 709.2,123.3 L 709.3,123.2 L 709.3,123.2 L 709.4,123.2 L 709.5,123.1 L 709.5,123.1 L 709.6,123.1 L 709.6,123.0 L 709.7,123.0 L 709.8,123.0 L 709.9,123.0 L 709.9,123.0 L 710.0,123.0 L 710.1,123.1 L 710.1,123.1 L 710.2,123.1 L 710.2,123.1 L 710.3,123.2 L 710.3,123.2 L 710.4,123.3 L 710.4,123.3 L 710.5,123.4 L 710.5,123.4 L 710.6,123.5 L 710.6,123.5 L 710.6,123.6 L 710.6,123.7 L 710.6,123.7 L 710.6,123.8 L 709.8,123.8 Z" style="fill:#000000;fill-rule:evenodd;fill-opacity:1;stroke:#000000;stroke-width:0.0px;stroke-linecap:butt;stroke-linejoin:miter;stroke-opacity:1;"/>
<path class="atom-2" d="M 710.6,120.7 L 710.6,120.7 L 710.6,120.8 L 710.6,120.9 L 710.6,120.9 L 710.6,121.0 L 710.5,121.0 L 710.5,121.1 L 710.4,121.2 L 710.4,121.2 L 710.3,121.3 L 710.3,121.3 L 710.2,121.3 L 710.2,121.4 L 710.1,121.4 L 710.1,121.4 L 710.0,121.4 L 709.9,121.4 L 709.9,121.4 L 709.8,121.4 L 709.7,121.4 L 709.6,121.4 L 709.6,121.4 L 709.5,121.4 L 709.5,121.3 L 709.4,121.3 L 709.3,121.3 L 709.3,121.2 L 709.2,121.2 L 709.2,121.1 L 709.2,121.1 L 709.1,121.0 L 709.1,121.0 L 709.1,120.9 L 709.1,120.8 L 709.1,120.8 L 709.0,120.7 L 709.0,120.6 L 709.1,120.6 L 709.1,120.5 L 709.1,120.4 L 709.1,120.4 L 709.1,120.3 L 709.2,120.2 L 709.2,120.2 L 709.2,120.1 L 709.3,120.1 L 709.3,120.0 L 709.4,120.0 L 709.5,120.0 L 709.5,119.9 L 709.6,119.9 L 709.6,119.9 L 709.7,119.9 L 709.8,119.9 L 709.9,119.9 L 709.9,119.9 L 710.0,119.9 L 710.1,119.9 L 710.1,119.9 L 710.2,119.9 L 710.2,120.0 L 710.3,120.0 L 710.3,120.1 L 710.4,120.1 L 710.4,120.2 L 710.5,120.2 L 710.5,120.3 L 710.6,120.3 L 710.6,120.4 L 710.6,120.5 L 710.6,120.5 L 710.6,120.6 L 710.6,120.7 L 709.8,120.7 Z" style="fill:#000000;fill-rule:evenodd;fill-opacity:1;stroke:#000000;stroke-width:0.0px;stroke-linecap:butt;stroke-linejoin:miter;stroke-opacity:1;"/>
<path class="atom-4" d="M 738.8,188.3 L 738.8,188.3 L 738.8,188.4 L 738.8,188.5 L 738.8,188.5 L 738.8,188.6 L 738.7,188.6 L 738.7,188.7 L 738.7,188.8 L 738.6,188.8 L 738.6,188.9 L 738.5,188.9 L 738.4,188.9 L 738.4,189.0 L 738.3,189.0 L 738.3,189.0 L 738.2,189.0 L 738.1,189.0 L 738.1,189.0 L 738.0,189.0 L 737.9,189.0 L 737.9,189.0 L 737.8,189.0 L 737.7,189.0 L 737.7,189.0 L 737.6,188.9 L 737.6,188.9 L 737.5,188.8 L 737.5,188.8 L 737.4,188.7 L 737.4,188.7 L 737.3,188.6 L 737.3,188.6 L 737.3,188.5 L 737.3,188.4 L 737.3,188.4 L 737.3,188.3 L 737.3,188.2 L 737.3,188.2 L 737.3,188.1 L 737.3,188.0 L 737.3,188.0 L 737.3,187.9 L 737.4,187.8 L 737.4,187.8 L 737.5,187.7 L 737.5,187.7 L 737.6,187.6 L 737.6,187.6 L 737.7,187.6 L 737.7,187.5 L 737.8,187.5 L 737.9,187.5 L 737.9,187.5 L 738.0,187.5 L 738.1,187.5 L 738.1,187.5 L 738.2,187.5 L 738.3,187.5 L 738.3,187.5 L 738.4,187.5 L 738.4,187.6 L 738.5,187.6 L 738.6,187.7 L 738.6,187.7 L 738.7,187.8 L 738.7,187.8 L 738.7,187.9 L 738.8,187.9 L 738.8,188.0 L 738.8,188.1 L 738.8,188.1 L 738.8,188.2 L 738.8,188.3 L 738.0,188.3 Z" style="fill:#000000;fill-rule:evenodd;fill-opacity:1;stroke:#000000;stroke-width:0.0px;stroke-linecap:butt;stroke-linejoin:miter;stroke-opacity:1;"/>
<path class="bond-0 atom-0 atom-1" d="M 15.6,375.5 L 31.5,366.4" style="fill:none;fill-rule:evenodd;stroke:#000000;stroke-width:2.0px;stroke-linecap:butt;stroke-linejoin:miter;stroke-opacity:1"/>
<path class="bond-0 atom-0 atom-1" d="M 18.2,380.0 L 34.1,370.8" style="fill:none;fill-rule:evenodd;stroke:#000000;stroke-width:2.0px;stroke-linecap:butt;stroke-linejoin:miter;stroke-opacity:1"/>
<path class="bond-1 atom-1 atom-2" d="M 39.2,368.6 L 58.3,379.6" style="fill:none;fill-rule:evenodd;stroke:#000000;stroke-width:2.0px;stroke-linecap:butt;stroke-linejoin:miter;stroke-opacity:1"/>
<path class="bond-2 atom-2 atom-3" d="M 58.3,379.6 L 80.5,366.7" style="fill:none;fill-rule:evenodd;stroke:#000000;stroke-width:2.0px;stroke-linecap:butt;stroke-linejoin:miter;stroke-opacity:1"/>
<path class="bond-3 atom-3 atom-4" d="M 80.5,366.7 L 99.6,377.8" style="fill:none;fill-rule:evenodd;stroke:#000000;stroke-width:2.0px;stroke-linecap:butt;stroke-linejoin:miter;stroke-opacity:1"/>
<path class="bond-3 atom-3 atom-4" d="M 80.8,372.9 L 94.2,380.6" style="fill:none;fill-rule:evenodd;stroke:#000000;stroke-width:2.0px;stroke-linecap:butt;stroke-linejoin:miter;stroke-opacity:1"/>
<path class="bond-4 atom-4 atom-5" d="M 106.0,377.8 L 125.1,366.7" style="fill:none;fill-rule:evenodd;stroke:#000000;stroke-width:2.0px;stroke-linecap:butt;stroke-linejoin:miter;stroke-opacity:1"/>
<path class="bond-5 atom-5 atom-6" d="M 125.1,366.7 L 147.4,379.6" style="fill:none;fill-rule:evenodd;stroke:#000000;stroke-width:2.0px;stroke-linecap:butt;stroke-linejoin:miter;stroke-opacity:1"/>
<path class="bond-6 atom-6 atom-7" d="M 147.4,379.6 L 166.5,368.6" style="fill:none;fill-rule:evenodd;stroke:#000000;stroke-width:2.0px;stroke-linecap:butt;stroke-linejoin:miter;stroke-opacity:1"/>
<path class="bond-6 atom-6 atom-7" d="M 147.7,373.5 L 161.0,365.8" style="fill:none;fill-rule:evenodd;stroke:#000000;stroke-width:2.0px;stroke-linecap:butt;stroke-linejoin:miter;stroke-opacity:1"/>
<path class="bond-7 atom-7 atom-8" d="M 172.8,368.6 L 188.7,377.8" style="fill:none;fill-rule:evenodd;stroke:#000000;stroke-width:2.0px;stroke-linecap:butt;stroke-linejoin:miter;stroke-opacity:1"/>
<path class="bond-7 atom-7 atom-8" d="M 172.6,374.4 L 183.8,380.8" style="fill:none;fill-rule:evenodd;stroke:#000000;stroke-width:2.0px;stroke-linecap:butt;stroke-linejoin:miter;stroke-opacity:1"/>
<path class="bond-8 atom-8 atom-9" d="M 195.1,377.8 L 214.2,366.7" style="fill:none;fill-rule:evenodd;stroke:#000000;stroke-width:2.0px;stroke-linecap:butt;stroke-linejoin:miter;stroke-opacity:1"/>
<path class="bond-9 atom-9 atom-10" d="M 214.2,366.7 L 233.5,377.9" style="fill:none;fill-rule:evenodd;stroke:#000000;stroke-width:2.0px;stroke-linecap:butt;stroke-linejoin:miter;stroke-opacity:1"/>
<path class="atom-0" d="M 11.6 382.1 Q 11.7 382.1, 12.1 382.3 Q 12.4 382.4, 12.8 382.5 Q 13.2 382.6, 13.5 382.6 Q 14.2 382.6, 14.6 382.3 Q 15.0 381.9, 15.0 381.3 Q 15.0 380.9, 14.8 380.7 Q 14.6 380.5, 14.3 380.3 Q 14.0 380.2, 13.5 380.0 Q 12.8 379.8, 12.4 379.7 Q 12.1 379.5, 11.8 379.1 Q 11.5 378.7, 11.5 378.0 Q 11.5 377.1, 12.1 376.5 Q 12.8 376.0, 14.0 376.0 Q 14.8 376.0, 15.8 376.4 L 15.6 377.2 Q 14.7 376.8, 14.0 376.8 Q 13.3 376.8, 12.9 377.1 Q 12.5 377.4, 12.5 377.9 Q 12.5 378.3, 12.7 378.5 Q 12.9 378.8, 13.2 378.9 Q 13.5 379.0, 14.0 379.2 Q 14.7 379.4, 15.1 379.6 Q 15.5 379.8, 15.7 380.2 Q 16.0 380.6, 16.0 381.3 Q 16.0 382.4, 15.4 382.9 Q 14.7 383.4, 13.6 383.4 Q 12.9 383.4, 12.4 383.3 Q 11.9 383.2, 11.4 382.9 L 11.6 382.1 " fill="#000000"/>
<path class="atom-1" d="M 35.8 363.1 Q 37.0 363.1, 37.7 363.7 Q 38.3 364.2, 38.3 365.2 Q 38.3 366.3, 37.7 366.8 Q 37.0 367.4, 35.8 367.4 L 34.6 367.4 L 34.6 370.4 L 33.7 370.4 L 33.7 363.1 L 35.8 363.1 M 35.8 366.6 Q 36.5 366.6, 36.9 366.2 Q 37.3 365.9, 37.3 365.2 Q 37.3 364.6, 36.9 364.3 Q 36.5 363.9, 35.8 363.9 L 34.6 363.9 L 34.6 366.6 L 35.8 366.6 " fill="#000000"/>
<path class="atom-1" d="M 33.1 355.1 L 34.1 355.1 L 34.1 358.2 L 37.8 358.2 L 37.8 355.1 L 38.8 355.1 L 38.8 362.4 L 37.8 362.4 L 37.8 359.0 L 34.1 359.0 L 34.1 362.4 L 33.1 362.4 L 33.1 355.1 " fill="#000000"/>
<path class="atom-1" d="M 39.7 362.1 Q 39.9 361.7, 40.3 361.4 Q 40.7 361.2, 41.3 361.2 Q 42.0 361.2, 42.5 361.6 Q 42.9 361.9, 42.9 362.6 Q 42.9 363.4, 42.3 364.0 Q 41.8 364.7, 40.7 365.5 L 42.9 365.5 L 42.9 366.0 L 39.7 366.0 L 39.7 365.6 Q 40.6 364.9, 41.1 364.5 Q 41.7 364.0, 41.9 363.5 Q 42.2 363.1, 42.2 362.7 Q 42.2 362.2, 41.9 362.0 Q 41.7 361.7, 41.3 361.7 Q 40.9 361.7, 40.7 361.9 Q 40.4 362.0, 40.2 362.4 L 39.7 362.1 " fill="#000000"/>
<path class="atom-4" d="M 102.6 376.0 Q 103.9 376.0, 104.5 376.5 Q 105.1 377.1, 105.1 378.1 Q 105.1 379.1, 104.5 379.7 Q 103.8 380.3, 102.6 380.3 L 101.5 380.3 L 101.5 383.3 L 100.5 383.3 L 100.5 376.0 L 102.6 376.0 M 102.6 379.4 Q 103.3 379.4, 103.7 379.1 Q 104.1 378.8, 104.1 378.1 Q 104.1 377.5, 103.7 377.1 Q 103.4 376.8, 102.6 376.8 L 101.5 376.8 L 101.5 379.4 L 102.6 379.4 " fill="#000000"/>
<path class="atom-4" d="M 100.0 384.0 L 100.9 384.0 L 100.9 387.1 L 104.7 387.1 L 104.7 384.0 L 105.7 384.0 L 105.7 391.3 L 104.7 391.3 L 104.7 387.9 L 100.9 387.9 L 100.9 391.3 L 100.0 391.3 L 100.0 384.0 " fill="#000000"/>
<path class="atom-4" d="M 106.5 391.0 Q 106.7 390.6, 107.1 390.3 Q 107.6 390.0, 108.1 390.0 Q 108.9 390.0, 109.3 390.4 Q 109.7 390.8, 109.7 391.5 Q 109.7 392.2, 109.2 392.9 Q 108.6 393.6, 107.6 394.4 L 109.8 394.4 L 109.8 394.9 L 106.5 394.9 L 106.5 394.5 Q 107.4 393.8, 108.0 393.3 Q 108.5 392.9, 108.8 392.4 Q 109.0 392.0, 109.0 391.6 Q 109.0 391.1, 108.8 390.8 Q 108.5 390.6, 108.1 390.6 Q 107.8 390.6, 107.5 390.7 Q 107.2 390.9, 107.1 391.2 L 106.5 391.0 " fill="#000000"/>
<path class="atom-7" d="M 169.5 363.1 Q 170.7 363.1, 171.3 363.7 Q 172.0 364.2, 172.0 365.2 Q 172.0 366.3, 171.3 366.8 Q 170.7 367.4, 169.5 367.4 L 168.3 367.4 L 168.3 370.4 L 167.3 370.4 L 167.3 363.1 L 169.5 363.1 M 169.5 366.6 Q 170.2 366.6, 170.6 366.2 Q 170.9 365.9, 170.9 365.2 Q 170.9 364.6, 170.6 364.3 Q 170.2 363.9, 169.5 363.9 L 168.3 363.9 L 168.3 366.6 L 169.5 366.6 " fill="#000000"/>
<path class="atom-7" d="M 166.8 355.1 L 167.8 355.1 L 167.8 358.2 L 171.5 358.2 L 171.5 355.1 L 172.5 355.1 L 172.5 362.4 L 171.5 362.4 L 171.5 359.0 L 167.8 359.0 L 167.8 362.4 L 166.8 362.4 L 166.8 355.1 " fill="#000000"/>
<path class="atom-8" d="M 189.9 382.1 Q 189.9 382.1, 190.3 382.3 Q 190.6 382.4, 191.0 382.5 Q 191.4 382.6, 191.7 382.6 Q 192.4 382.6, 192.8 382.3 Q 193.2 381.9, 193.2 381.3 Q 193.2 380.9, 193.0 380.7 Q 192.8 380.5, 192.5 380.3 Q 192.2 380.2, 191.7 380.0 Q 191.1 379.8, 190.7 379.7 Q 190.3 379.5, 190.0 379.1 Q 189.7 378.7, 189.7 378.0 Q 189.7 377.1, 190.4 376.5 Q 191.0 376.0, 192.2 376.0 Q 193.1 376.0, 194.0 376.4 L 193.8 377.2 Q 192.9 376.8, 192.2 376.8 Q 191.5 376.8, 191.1 377.1 Q 190.8 377.4, 190.8 377.9 Q 190.8 378.3, 191.0 378.5 Q 191.2 378.8, 191.5 378.9 Q 191.8 379.0, 192.2 379.2 Q 192.9 379.4, 193.3 379.6 Q 193.7 379.8, 194.0 380.2 Q 194.3 380.6, 194.3 381.3 Q 194.3 382.4, 193.6 382.9 Q 192.9 383.4, 191.8 383.4 Q 191.1 383.4, 190.6 383.3 Q 190.2 383.2, 189.6 382.9 L 189.9 382.1 " fill="#000000"/>
<path class="atom-8" d="M 189.1 384.2 L 190.1 384.2 L 190.1 387.3 L 193.8 387.3 L 193.8 384.2 L 194.8 384.2 L 194.8 391.5 L 193.8 391.5 L 193.8 388.1 L 190.1 388.1 L 190.1 391.5 L 189.1 391.5 L 189.1 384.2 " fill="#000000"/>
<path class="atom-10" d="M 234.3 376.0 L 238.6 376.0 L 238.6 376.8 L 235.3 376.8 L 235.3 379.0 L 238.3 379.0 L 238.3 379.9 L 235.3 379.9 L 235.3 383.3 L 234.3 383.3 L 234.3 376.0 " fill="#000000"/>
<path class="atom-2" d="M 59.8,381.9 L 59.8,382.0 L 59.8,382.0 L 59.8,382.1 L 59.8,382.1 L 59.8,382.1 L 59.7,382.2 L 59.7,382.2 L 59.7,382.3 L 59.7,382.3 L 59.6,382.3 L 59.6,382.3 L 59.5,382.4 L 59.5,382.4 L 59.5,382.4 L 59.4,382.4 L 59.4,382.4 L 59.3,382.4 L 59.3,382.4 L 59.2,382.4 L 59.2,382.4 L 59.2,382.4 L 59.1,382.4 L 59.1,382.4 L 59.0,382.4 L 59.0,382.4 L 59.0,382.3 L 58.9,382.3 L 58.9,382.3 L 58.9,382.2 L 58.8,382.2 L 58.8,382.2 L 58.8,382.1 L 58.8,382.1 L 58.8,382.0 L 58.8,382.0 L 58.8,381.9 L 58.8,381.9 L 58.8,381.9 L 58.8,381.8 L 58.8,381.8 L 58.8,381.7 L 58.8,381.7 L 58.8,381.7 L 58.9,381.6 L 58.9,381.6 L 58.9,381.5 L 59.0,381.5 L 59.0,381.5 L 59.0,381.5 L 59.1,381.5 L 59.1,381.4 L 59.2,381.4 L 59.2,381.4 L 59.2,381.4 L 59.3,381.4 L 59.3,381.4 L 59.4,381.4 L 59.4,381.4 L 59.5,381.4 L 59.5,381.5 L 59.5,381.5 L 59.6,381.5 L 59.6,381.5 L 59.7,381.6 L 59.7,381.6 L 59.7,381.6 L 59.7,381.7 L 59.8,381.7 L 59.8,381.8 L 59.8,381.8 L 59.8,381.8 L 59.8,381.9 L 59.8,381.9 L 59.3,381.9 Z" style="fill:#000000;fill-rule:evenodd;fill-opacity:1;stroke:#000000;stroke-width:0.0px;stroke-linecap:butt;stroke-linejoin:miter;stroke-opacity:1;"/>
<path class="atom-2" d="M 57.7,381.9 L 57.7,382.0 L 57.7,382.0 L 57.7,382.1 L 57.7,382.1 L 57.7,382.1 L 57.7,382.2 L 57.6,382.2 L 57.6,382.3 L 57.6,382.3 L 57.6,382.3 L 57.5,382.3 L 57.5,382.4 L 57.4,382.4 L 57.4,382.4 L 57.4,382.4 L 57.3,382.4 L 57.3,382.4 L 57.2,382.4 L 57.2,382.4 L 57.1,382.4 L 57.1,382.4 L 57.1,382.4 L 57.0,382.4 L 57.0,382.4 L 56.9,382.4 L 56.9,382.3 L 56.9,382.3 L 56.8,382.3 L 56.8,382.2 L 56.8,382.2 L 56.8,382.2 L 56.7,382.1 L 56.7,382.1 L 56.7,382.0 L 56.7,382.0 L 56.7,381.9 L 56.7,381.9 L 56.7,381.9 L 56.7,381.8 L 56.7,381.8 L 56.7,381.7 L 56.8,381.7 L 56.8,381.7 L 56.8,381.6 L 56.8,381.6 L 56.9,381.5 L 56.9,381.5 L 56.9,381.5 L 57.0,381.5 L 57.0,381.5 L 57.1,381.4 L 57.1,381.4 L 57.1,381.4 L 57.2,381.4 L 57.2,381.4 L 57.3,381.4 L 57.3,381.4 L 57.4,381.4 L 57.4,381.4 L 57.4,381.5 L 57.5,381.5 L 57.5,381.5 L 57.6,381.5 L 57.6,381.6 L 57.6,381.6 L 57.6,381.6 L 57.7,381.7 L 57.7,381.7 L 57.7,381.8 L 57.7,381.8 L 57.7,381.8 L 57.7,381.9 L 57.7,381.9 L 57.2,381.9 Z" style="fill:#000000;fill-rule:evenodd;fill-opacity:1;stroke:#000000;stroke-width:0.0px;stroke-linecap:butt;stroke-linejoin:miter;stroke-opacity:1;"/>
<path class="bond-0 atom-0 atom-1" d="M 286.0,374.8 L 444.6,374.8" style="fill:none;fill-rule:evenodd;stroke:#000000;stroke-width:2.0px;stroke-linecap:butt;stroke-linejoin:miter;stroke-opacity:1"/>
<path class="atom-1" d="M 450.3 375.8 Q 450.3 368.8, 453.6 365.1 Q 456.9 361.4, 463.2 361.4 Q 469.1 361.4, 472.2 365.5 L 469.5 367.6 Q 467.3 364.6, 463.2 364.6 Q 458.9 364.6, 456.7 367.5 Q 454.4 370.4, 454.4 375.8 Q 454.4 381.4, 456.7 384.3 Q 459.1 387.2, 463.7 387.2 Q 466.8 387.2, 470.4 385.3 L 471.5 388.3 Q 470.1 389.2, 467.8 389.8 Q 465.6 390.4, 463.1 390.4 Q 456.9 390.4, 453.6 386.6 Q 450.3 382.8, 450.3 375.8 " fill="#000000"/>
<path class="atom-1" d="M 473.8 359.6 L 477.5 359.6 L 477.5 390.0 L 473.8 390.0 L 473.8 359.6 " fill="#000000"/>
<path class="atom-0" d="M 276.0,378.8 L 276.0,379.0 L 276.0,379.2 L 276.0,379.3 L 275.9,379.5 L 275.9,379.7 L 275.8,379.8 L 275.7,380.0 L 275.6,380.1 L 275.5,380.2 L 275.3,380.3 L 275.2,380.4 L 275.1,380.5 L 274.9,380.6 L 274.8,380.7 L 274.6,380.7 L 274.4,380.8 L 274.2,380.8 L 274.1,380.8 L 273.9,380.8 L 273.7,380.8 L 273.6,380.8 L 273.4,380.7 L 273.2,380.7 L 273.1,380.6 L 272.9,380.5 L 272.8,380.4 L 272.7,380.3 L 272.5,380.2 L 272.4,380.0 L 272.3,379.9 L 272.3,379.7 L 272.2,379.6 L 272.1,379.4 L 272.1,379.2 L 272.1,379.1 L 272.0,378.9 L 272.0,378.7 L 272.1,378.6 L 272.1,378.4 L 272.1,378.2 L 272.2,378.1 L 272.3,377.9 L 272.3,377.8 L 272.4,377.6 L 272.5,377.5 L 272.7,377.4 L 272.8,377.2 L 272.9,377.1 L 273.1,377.1 L 273.2,377.0 L 273.4,376.9 L 273.6,376.9 L 273.7,376.8 L 273.9,376.8 L 274.1,376.8 L 274.2,376.8 L 274.4,376.9 L 274.6,376.9 L 274.8,377.0 L 274.9,377.0 L 275.1,377.1 L 275.2,377.2 L 275.3,377.3 L 275.5,377.4 L 275.6,377.5 L 275.7,377.7 L 275.8,377.8 L 275.9,378.0 L 275.9,378.1 L 276.0,378.3 L 276.0,378.5 L 276.0,378.6 L 276.0,378.8 L 274.0,378.8 Z" style="fill:#000000;fill-rule:evenodd;fill-opacity:1;stroke:#000000;stroke-width:0.0px;stroke-linecap:butt;stroke-linejoin:miter;stroke-opacity:1;"/>
<path class="atom-0" d="M 276.0,370.8 L 276.0,371.0 L 276.0,371.2 L 276.0,371.3 L 275.9,371.5 L 275.9,371.7 L 275.8,371.8 L 275.7,372.0 L 275.6,372.1 L 275.5,372.2 L 275.3,372.3 L 275.2,372.4 L 275.1,372.5 L 274.9,372.6 L 274.8,372.7 L 274.6,372.7 L 274.4,372.8 L 274.2,372.8 L 274.1,372.8 L 273.9,372.8 L 273.7,372.8 L 273.6,372.8 L 273.4,372.7 L 273.2,372.7 L 273.1,372.6 L 272.9,372.5 L 272.8,372.4 L 272.7,372.3 L 272.5,372.2 L 272.4,372.0 L 272.3,371.9 L 272.3,371.7 L 272.2,371.6 L 272.1,371.4 L 272.1,371.2 L 272.1,371.1 L 272.0,370.9 L 272.0,370.7 L 272.1,370.6 L 272.1,370.4 L 272.1,370.2 L 272.2,370.1 L 272.3,369.9 L 272.3,369.8 L 272.4,369.6 L 272.5,369.5 L 272.7,369.4 L 272.8,369.2 L 272.9,369.1 L 273.1,369.1 L 273.2,369.0 L 273.4,368.9 L 273.6,368.9 L 273.7,368.8 L 273.9,368.8 L 274.1,368.8 L 274.2,368.8 L 274.4,368.9 L 274.6,368.9 L 274.8,369.0 L 274.9,369.0 L 275.1,369.1 L 275.2,369.2 L 275.3,369.3 L 275.5,369.4 L 275.6,369.5 L 275.7,369.7 L 275.8,369.8 L 275.9,370.0 L 275.9,370.1 L 276.0,370.3 L 276.0,370.5 L 276.0,370.6 L 276.0,370.8 L 274.0,370.8 Z" style="fill:#000000;fill-rule:evenodd;fill-opacity:1;stroke:#000000;stroke-width:0.0px;stroke-linecap:butt;stroke-linejoin:miter;stroke-opacity:1;"/>
<path class="bond-0 atom-0 atom-1" d="M 522.0,368.0 L 547.3,382.6" style="fill:none;fill-rule:evenodd;stroke:#000000;stroke-width:2.0px;stroke-linecap:butt;stroke-linejoin:miter;stroke-opacity:1"/>
<path class="bond-1 atom-1 atom-2" d="M 557.7,382.6 L 589.0,364.5" style="fill:none;fill-rule:evenodd;stroke:#000000;stroke-width:2.0px;stroke-linecap:butt;stroke-linejoin:miter;stroke-opacity:1"/>
<path class="bond-2 atom-2 atom-3" d="M 589.0,364.5 L 625.5,385.6" style="fill:none;fill-rule:evenodd;stroke:#000000;stroke-width:2.0px;stroke-linecap:butt;stroke-linejoin:miter;stroke-opacity:1"/>
<path class="bond-3 atom-3 atom-4" d="M 625.5,385.6 L 656.8,367.5" style="fill:none;fill-rule:evenodd;stroke:#000000;stroke-width:2.0px;stroke-linecap:butt;stroke-linejoin:miter;stroke-opacity:1"/>
<path class="bond-4 atom-4 atom-5" d="M 667.3,367.5 L 692.6,382.2" style="fill:none;fill-rule:evenodd;stroke:#000000;stroke-width:2.0px;stroke-linecap:butt;stroke-linejoin:miter;stroke-opacity:1"/>
<path class="bond-4 atom-4 atom-5" d="M 666.9,377.0 L 684.6,387.3" style="fill:none;fill-rule:evenodd;stroke:#000000;stroke-width:2.0px;stroke-linecap:butt;stroke-linejoin:miter;stroke-opacity:1"/>
<path class="bond-5 atom-5 atom-6" d="M 704.5,382.2 L 730.1,367.3" style="fill:none;fill-rule:evenodd;stroke:#000000;stroke-width:2.0px;stroke-linecap:butt;stroke-linejoin:miter;stroke-opacity:1"/>
<path class="atom-0" d="M 511.4 364.5 Q 511.4 361.6, 512.7 360.0 Q 514.1 358.5, 516.8 358.5 Q 519.3 358.5, 520.6 360.2 L 519.5 361.1 Q 518.5 359.8, 516.8 359.8 Q 515.0 359.8, 514.0 361.1 Q 513.1 362.2, 513.1 364.5 Q 513.1 366.9, 514.1 368.1 Q 515.1 369.3, 517.0 369.3 Q 518.3 369.3, 519.8 368.5 L 520.3 369.8 Q 519.7 370.2, 518.7 370.4 Q 517.8 370.7, 516.7 370.7 Q 514.1 370.7, 512.7 369.1 Q 511.4 367.5, 511.4 364.5 " fill="#000000"/>
<path class="atom-0" d="M 521.2 360.4 L 525.3 360.4 L 525.3 361.3 L 521.2 361.3 L 521.2 360.4 " fill="#000000"/>
<path class="atom-1" d="M 552.2 379.6 Q 554.2 379.6, 555.3 380.5 Q 556.3 381.4, 556.3 383.1 Q 556.3 384.8, 555.2 385.7 Q 554.2 386.6, 552.2 386.6 L 550.3 386.6 L 550.3 391.5 L 548.7 391.5 L 548.7 379.6 L 552.2 379.6 M 552.2 385.3 Q 553.4 385.3, 554.0 384.7 Q 554.6 384.2, 554.6 383.1 Q 554.6 382.1, 554.0 381.5 Q 553.4 381.0, 552.2 381.0 L 550.3 381.0 L 550.3 385.3 L 552.2 385.3 " fill="#000000"/>
<path class="atom-4" d="M 658.7 368.6 Q 658.8 368.6, 659.4 368.9 Q 659.9 369.1, 660.5 369.3 Q 661.2 369.4, 661.8 369.4 Q 662.9 369.4, 663.5 368.9 Q 664.2 368.3, 664.2 367.3 Q 664.2 366.7, 663.9 366.3 Q 663.5 365.9, 663.0 365.7 Q 662.5 365.4, 661.7 365.2 Q 660.6 364.9, 660.0 364.6 Q 659.4 364.3, 658.9 363.6 Q 658.5 363.0, 658.5 361.9 Q 658.5 360.4, 659.5 359.5 Q 660.5 358.5, 662.5 358.5 Q 663.9 358.5, 665.5 359.2 L 665.1 360.5 Q 663.7 359.9, 662.6 359.9 Q 661.4 359.9, 660.8 360.4 Q 660.1 360.9, 660.2 361.7 Q 660.2 362.3, 660.5 362.7 Q 660.8 363.1, 661.3 363.3 Q 661.8 363.5, 662.6 363.8 Q 663.7 364.1, 664.3 364.5 Q 664.9 364.8, 665.4 365.5 Q 665.9 366.2, 665.9 367.3 Q 665.9 369.0, 664.8 369.9 Q 663.7 370.8, 661.8 370.8 Q 660.8 370.8, 660.0 370.5 Q 659.2 370.3, 658.2 369.9 L 658.7 368.6 " fill="#000000"/>
<path class="atom-4" d="M 666.7 360.3 L 670.8 360.3 L 670.8 361.2 L 666.7 361.2 L 666.7 360.3 " fill="#000000"/>
<path class="atom-5" d="M 695.9 379.6 L 699.8 385.9 Q 700.2 386.6, 700.9 387.7 Q 701.5 388.8, 701.5 388.9 L 701.5 379.6 L 703.1 379.6 L 703.1 391.5 L 701.5 391.5 L 697.3 384.6 Q 696.8 383.8, 696.2 382.9 Q 695.7 382.0, 695.6 381.7 L 695.6 391.5 L 694.0 391.5 L 694.0 379.6 L 695.9 379.6 " fill="#000000"/>
<path class="atom-6" d="M 731.5 358.5 L 738.6 358.5 L 738.6 359.9 L 733.1 359.9 L 733.1 363.5 L 738.0 363.5 L 738.0 364.9 L 733.1 364.9 L 733.1 370.5 L 731.5 370.5 L 731.5 358.5 " fill="#000000"/>
<path class="atom-1" d="M 559.7,385.6 L 559.7,385.6 L 559.7,385.7 L 559.6,385.8 L 559.6,385.9 L 559.6,385.9 L 559.6,386.0 L 559.5,386.1 L 559.5,386.1 L 559.4,386.2 L 559.4,386.2 L 559.3,386.3 L 559.3,386.3 L 559.2,386.3 L 559.1,386.4 L 559.1,386.4 L 559.0,386.4 L 558.9,386.4 L 558.8,386.4 L 558.8,386.4 L 558.7,386.4 L 558.6,386.4 L 558.6,386.4 L 558.5,386.3 L 558.4,386.3 L 558.4,386.3 L 558.3,386.2 L 558.3,386.2 L 558.2,386.1 L 558.2,386.1 L 558.1,386.0 L 558.1,386.0 L 558.0,385.9 L 558.0,385.8 L 558.0,385.8 L 558.0,385.7 L 558.0,385.6 L 558.0,385.5 L 558.0,385.5 L 558.0,385.4 L 558.0,385.3 L 558.0,385.3 L 558.1,385.2 L 558.1,385.1 L 558.2,385.1 L 558.2,385.0 L 558.3,385.0 L 558.3,384.9 L 558.4,384.9 L 558.4,384.8 L 558.5,384.8 L 558.6,384.8 L 558.6,384.8 L 558.7,384.7 L 558.8,384.7 L 558.8,384.7 L 558.9,384.7 L 559.0,384.7 L 559.1,384.8 L 559.1,384.8 L 559.2,384.8 L 559.3,384.9 L 559.3,384.9 L 559.4,384.9 L 559.4,385.0 L 559.5,385.0 L 559.5,385.1 L 559.6,385.2 L 559.6,385.2 L 559.6,385.3 L 559.6,385.4 L 559.7,385.4 L 559.7,385.5 L 559.7,385.6 L 558.8,385.6 Z" style="fill:#000000;fill-rule:evenodd;fill-opacity:1;stroke:#000000;stroke-width:0.0px;stroke-linecap:butt;stroke-linejoin:miter;stroke-opacity:1;"/>
<path class="atom-2" d="M 591.5,360.7 L 591.5,360.8 L 591.5,360.8 L 591.5,360.9 L 591.5,361.0 L 591.5,361.0 L 591.4,361.1 L 591.4,361.2 L 591.3,361.2 L 591.3,361.3 L 591.2,361.3 L 591.2,361.4 L 591.1,361.4 L 591.1,361.5 L 591.0,361.5 L 590.9,361.5 L 590.9,361.5 L 590.8,361.5 L 590.7,361.5 L 590.6,361.5 L 590.6,361.5 L 590.5,361.5 L 590.4,361.5 L 590.4,361.5 L 590.3,361.4 L 590.2,361.4 L 590.2,361.4 L 590.1,361.3 L 590.1,361.3 L 590.0,361.2 L 590.0,361.1 L 589.9,361.1 L 589.9,361.0 L 589.9,360.9 L 589.9,360.9 L 589.9,360.8 L 589.9,360.7 L 589.9,360.7 L 589.9,360.6 L 589.9,360.5 L 589.9,360.4 L 589.9,360.4 L 589.9,360.3 L 590.0,360.2 L 590.0,360.2 L 590.1,360.1 L 590.1,360.1 L 590.2,360.0 L 590.2,360.0 L 590.3,360.0 L 590.4,359.9 L 590.4,359.9 L 590.5,359.9 L 590.6,359.9 L 590.6,359.9 L 590.7,359.9 L 590.8,359.9 L 590.9,359.9 L 590.9,359.9 L 591.0,359.9 L 591.1,359.9 L 591.1,360.0 L 591.2,360.0 L 591.2,360.1 L 591.3,360.1 L 591.3,360.2 L 591.4,360.2 L 591.4,360.3 L 591.5,360.3 L 591.5,360.4 L 591.5,360.5 L 591.5,360.6 L 591.5,360.6 L 591.5,360.7 L 590.7,360.7 Z" style="fill:#000000;fill-rule:evenodd;fill-opacity:1;stroke:#000000;stroke-width:0.0px;stroke-linecap:butt;stroke-linejoin:miter;stroke-opacity:1;"/>
<path class="atom-2" d="M 588.2,360.7 L 588.2,360.8 L 588.2,360.8 L 588.1,360.9 L 588.1,361.0 L 588.1,361.0 L 588.1,361.1 L 588.0,361.2 L 588.0,361.2 L 587.9,361.3 L 587.9,361.3 L 587.8,361.4 L 587.8,361.4 L 587.7,361.5 L 587.6,361.5 L 587.6,361.5 L 587.5,361.5 L 587.4,361.5 L 587.3,361.5 L 587.3,361.5 L 587.2,361.5 L 587.1,361.5 L 587.1,361.5 L 587.0,361.5 L 586.9,361.4 L 586.9,361.4 L 586.8,361.4 L 586.7,361.3 L 586.7,361.3 L 586.6,361.2 L 586.6,361.1 L 586.6,361.1 L 586.5,361.0 L 586.5,360.9 L 586.5,360.9 L 586.5,360.8 L 586.5,360.7 L 586.5,360.7 L 586.5,360.6 L 586.5,360.5 L 586.5,360.4 L 586.5,360.4 L 586.6,360.3 L 586.6,360.2 L 586.6,360.2 L 586.7,360.1 L 586.7,360.1 L 586.8,360.0 L 586.9,360.0 L 586.9,360.0 L 587.0,359.9 L 587.1,359.9 L 587.1,359.9 L 587.2,359.9 L 587.3,359.9 L 587.3,359.9 L 587.4,359.9 L 587.5,359.9 L 587.6,359.9 L 587.6,359.9 L 587.7,359.9 L 587.8,360.0 L 587.8,360.0 L 587.9,360.1 L 587.9,360.1 L 588.0,360.2 L 588.0,360.2 L 588.1,360.3 L 588.1,360.3 L 588.1,360.4 L 588.1,360.5 L 588.2,360.6 L 588.2,360.6 L 588.2,360.7 L 587.3,360.7 Z" style="fill:#000000;fill-rule:evenodd;fill-opacity:1;stroke:#000000;stroke-width:0.0px;stroke-linecap:butt;stroke-linejoin:miter;stroke-opacity:1;"/>
<path class="atom-3" d="M 626.4,389.4 L 626.4,389.4 L 626.4,389.5 L 626.3,389.6 L 626.3,389.7 L 626.3,389.7 L 626.3,389.8 L 626.2,389.8 L 626.2,389.9 L 626.1,390.0 L 626.1,390.0 L 626.0,390.1 L 626.0,390.1 L 625.9,390.1 L 625.8,390.2 L 625.8,390.2 L 625.7,390.2 L 625.6,390.2 L 625.5,390.2 L 625.5,390.2 L 625.4,390.2 L 625.3,390.2 L 625.3,390.2 L 625.2,390.1 L 625.1,390.1 L 625.1,390.1 L 625.0,390.0 L 625.0,390.0 L 624.9,389.9 L 624.9,389.9 L 624.8,389.8 L 624.8,389.8 L 624.7,389.7 L 624.7,389.6 L 624.7,389.6 L 624.7,389.5 L 624.7,389.4 L 624.7,389.3 L 624.7,389.3 L 624.7,389.2 L 624.7,389.1 L 624.7,389.1 L 624.8,389.0 L 624.8,388.9 L 624.9,388.9 L 624.9,388.8 L 625.0,388.8 L 625.0,388.7 L 625.1,388.7 L 625.1,388.6 L 625.2,388.6 L 625.3,388.6 L 625.3,388.6 L 625.4,388.5 L 625.5,388.5 L 625.5,388.5 L 625.6,388.5 L 625.7,388.5 L 625.8,388.6 L 625.8,388.6 L 625.9,388.6 L 626.0,388.6 L 626.0,388.7 L 626.1,388.7 L 626.1,388.8 L 626.2,388.8 L 626.2,388.9 L 626.3,389.0 L 626.3,389.0 L 626.3,389.1 L 626.3,389.2 L 626.4,389.2 L 626.4,389.3 L 626.4,389.4 L 625.5,389.4 Z" style="fill:#000000;fill-rule:evenodd;fill-opacity:1;stroke:#000000;stroke-width:0.0px;stroke-linecap:butt;stroke-linejoin:miter;stroke-opacity:1;"/>
<path class="bond-0 atom-0 atom-1" d="M 197.1,618.2 L 159.1,640.1" style="fill:none;fill-rule:evenodd;stroke:#000000;stroke-width:2.0px;stroke-linecap:butt;stroke-linejoin:miter;stroke-opacity:1"/>
<path class="bond-1 atom-1 atom-2" d="M 159.1,640.1 L 118.9,616.9" style="fill:none;fill-rule:evenodd;stroke:#000000;stroke-width:2.0px;stroke-linecap:butt;stroke-linejoin:miter;stroke-opacity:1"/>
<path class="bond-2 atom-2 atom-3" d="M 105.5,616.9 L 74.1,635.0" style="fill:none;fill-rule:evenodd;stroke:#000000;stroke-width:2.0px;stroke-linecap:butt;stroke-linejoin:miter;stroke-opacity:1"/>
<path class="bond-3 atom-3 atom-4" d="M 56.5,635.0 L 27.2,618.2" style="fill:none;fill-rule:evenodd;stroke:#000000;stroke-width:2.0px;stroke-linecap:butt;stroke-linejoin:miter;stroke-opacity:1"/>
<path class="atom-0" d="M 198.9 613.1 Q 198.9 609.4, 200.7 607.4 Q 202.5 605.3, 205.9 605.3 Q 209.3 605.3, 211.2 607.4 Q 213.0 609.4, 213.0 613.1 Q 213.0 616.8, 211.1 619.0 Q 209.3 621.1, 205.9 621.1 Q 202.6 621.1, 200.7 619.0 Q 198.9 616.9, 198.9 613.1 M 205.9 619.3 Q 208.3 619.3, 209.5 617.8 Q 210.8 616.2, 210.8 613.1 Q 210.8 610.1, 209.5 608.6 Q 208.3 607.1, 205.9 607.1 Q 203.6 607.1, 202.3 608.6 Q 201.1 610.1, 201.1 613.1 Q 201.1 616.2, 202.3 617.8 Q 203.6 619.3, 205.9 619.3 " fill="#000000"/>
<path class="atom-0" d="M 214.1 605.5 L 216.1 605.5 L 216.1 612.0 L 224.0 612.0 L 224.0 605.5 L 226.1 605.5 L 226.1 620.8 L 224.0 620.8 L 224.0 613.7 L 216.1 613.7 L 216.1 620.8 L 214.1 620.8 L 214.1 605.5 " fill="#000000"/>
<path class="atom-0" d="M 227.9 608.3 L 230.6 608.3 L 230.6 605.4 L 231.8 605.4 L 231.8 608.3 L 234.6 608.3 L 234.6 609.3 L 231.8 609.3 L 231.8 612.1 L 230.6 612.1 L 230.6 609.3 L 227.9 609.3 L 227.9 608.3 " fill="#000000"/>
<path class="atom-2" d="M 107.8 618.3 Q 108.0 618.4, 108.7 618.7 Q 109.4 619.0, 110.2 619.2 Q 111.0 619.4, 111.8 619.4 Q 113.3 619.4, 114.1 618.7 Q 114.9 618.0, 114.9 616.7 Q 114.9 615.9, 114.5 615.4 Q 114.1 614.8, 113.4 614.6 Q 112.8 614.3, 111.7 614.0 Q 110.4 613.5, 109.5 613.2 Q 108.7 612.8, 108.1 611.9 Q 107.6 611.1, 107.6 609.7 Q 107.6 607.8, 108.9 606.6 Q 110.2 605.4, 112.8 605.4 Q 114.6 605.4, 116.6 606.3 L 116.1 607.9 Q 114.3 607.2, 112.9 607.2 Q 111.4 607.2, 110.5 607.8 Q 109.7 608.4, 109.7 609.5 Q 109.7 610.3, 110.2 610.8 Q 110.6 611.3, 111.2 611.6 Q 111.8 611.9, 112.9 612.2 Q 114.3 612.6, 115.1 613.0 Q 115.9 613.5, 116.5 614.4 Q 117.1 615.2, 117.1 616.7 Q 117.1 618.9, 115.7 620.0 Q 114.3 621.1, 111.9 621.1 Q 110.5 621.1, 109.5 620.8 Q 108.5 620.5, 107.3 620.0 L 107.8 618.3 " fill="#000000"/>
<path class="atom-2" d="M 118.1 608.0 L 120.8 608.0 L 120.8 605.1 L 122.0 605.1 L 122.0 608.0 L 124.8 608.0 L 124.8 609.0 L 122.0 609.0 L 122.0 611.8 L 120.8 611.8 L 120.8 609.0 L 118.1 609.0 L 118.1 608.0 " fill="#000000"/>
<path class="atom-3" d="M 58.2 640.2 Q 58.2 636.5, 60.1 634.4 Q 61.9 632.4, 65.3 632.4 Q 68.7 632.4, 70.5 634.4 Q 72.3 636.5, 72.3 640.2 Q 72.3 643.9, 70.5 646.0 Q 68.6 648.1, 65.3 648.1 Q 61.9 648.1, 60.1 646.0 Q 58.2 643.9, 58.2 640.2 M 65.3 646.4 Q 67.6 646.4, 68.9 644.8 Q 70.2 643.3, 70.2 640.2 Q 70.2 637.2, 68.9 635.7 Q 67.6 634.1, 65.3 634.1 Q 62.9 634.1, 61.7 635.6 Q 60.4 637.2, 60.4 640.2 Q 60.4 643.3, 61.7 644.8 Q 62.9 646.4, 65.3 646.4 " fill="#000000"/>
<path class="atom-4" d="M 11.4 613.1 Q 11.4 609.4, 13.2 607.4 Q 15.0 605.3, 18.4 605.3 Q 21.8 605.3, 23.6 607.4 Q 25.4 609.4, 25.4 613.1 Q 25.4 616.8, 23.6 619.0 Q 21.8 621.1, 18.4 621.1 Q 15.0 621.1, 13.2 619.0 Q 11.4 616.9, 11.4 613.1 M 18.4 619.3 Q 20.7 619.3, 22.0 617.8 Q 23.3 616.2, 23.3 613.1 Q 23.3 610.1, 22.0 608.6 Q 20.7 607.1, 18.4 607.1 Q 16.1 607.1, 14.8 608.6 Q 13.5 610.1, 13.5 613.1 Q 13.5 616.2, 14.8 617.8 Q 16.1 619.3, 18.4 619.3 " fill="#000000"/>
<path class="atom-4" d="M 26.5 607.8 L 31.8 607.8 L 31.8 609.0 L 26.5 609.0 L 26.5 607.8 " fill="#000000"/>
<path class="atom-0" d="M 238.9,613.1 L 238.9,613.2 L 238.9,613.3 L 238.9,613.3 L 238.8,613.4 L 238.8,613.5 L 238.8,613.6 L 238.7,613.7 L 238.7,613.8 L 238.6,613.8 L 238.5,613.9 L 238.5,613.9 L 238.4,614.0 L 238.3,614.0 L 238.2,614.1 L 238.1,614.1 L 238.0,614.1 L 237.9,614.1 L 237.8,614.2 L 237.8,614.2 L 237.7,614.1 L 237.6,614.1 L 237.5,614.1 L 237.4,614.1 L 237.3,614.0 L 237.2,614.0 L 237.2,613.9 L 237.1,613.9 L 237.0,613.8 L 237.0,613.7 L 236.9,613.6 L 236.9,613.6 L 236.8,613.5 L 236.8,613.4 L 236.8,613.3 L 236.8,613.2 L 236.7,613.1 L 236.7,613.0 L 236.8,612.9 L 236.8,612.8 L 236.8,612.7 L 236.8,612.7 L 236.9,612.6 L 236.9,612.5 L 237.0,612.4 L 237.0,612.3 L 237.1,612.3 L 237.2,612.2 L 237.2,612.2 L 237.3,612.1 L 237.4,612.1 L 237.5,612.0 L 237.6,612.0 L 237.7,612.0 L 237.8,612.0 L 237.8,612.0 L 237.9,612.0 L 238.0,612.0 L 238.1,612.0 L 238.2,612.1 L 238.3,612.1 L 238.4,612.1 L 238.5,612.2 L 238.5,612.2 L 238.6,612.3 L 238.7,612.4 L 238.7,612.5 L 238.8,612.5 L 238.8,612.6 L 238.8,612.7 L 238.9,612.8 L 238.9,612.9 L 238.9,613.0 L 238.9,613.1 L 237.8,613.1 Z" style="fill:#000000;fill-rule:evenodd;fill-opacity:1;stroke:#000000;stroke-width:0.0px;stroke-linecap:butt;stroke-linejoin:miter;stroke-opacity:1;"/>
<path class="atom-1" d="M 162.3,645.0 L 162.3,645.1 L 162.3,645.2 L 162.3,645.3 L 162.2,645.4 L 162.2,645.5 L 162.2,645.5 L 162.1,645.6 L 162.1,645.7 L 162.0,645.8 L 161.9,645.8 L 161.9,645.9 L 161.8,645.9 L 161.7,646.0 L 161.6,646.0 L 161.5,646.1 L 161.4,646.1 L 161.3,646.1 L 161.2,646.1 L 161.2,646.1 L 161.1,646.1 L 161.0,646.1 L 160.9,646.0 L 160.8,646.0 L 160.7,646.0 L 160.6,645.9 L 160.6,645.9 L 160.5,645.8 L 160.4,645.7 L 160.4,645.7 L 160.3,645.6 L 160.3,645.5 L 160.2,645.4 L 160.2,645.3 L 160.2,645.2 L 160.1,645.2 L 160.1,645.1 L 160.1,645.0 L 160.1,644.9 L 160.2,644.8 L 160.2,644.7 L 160.2,644.6 L 160.3,644.5 L 160.3,644.4 L 160.4,644.4 L 160.4,644.3 L 160.5,644.2 L 160.6,644.2 L 160.6,644.1 L 160.7,644.1 L 160.8,644.0 L 160.9,644.0 L 161.0,644.0 L 161.1,643.9 L 161.2,643.9 L 161.2,643.9 L 161.3,643.9 L 161.4,643.9 L 161.5,644.0 L 161.6,644.0 L 161.7,644.0 L 161.8,644.1 L 161.9,644.1 L 161.9,644.2 L 162.0,644.3 L 162.1,644.3 L 162.1,644.4 L 162.2,644.5 L 162.2,644.6 L 162.2,644.6 L 162.3,644.7 L 162.3,644.8 L 162.3,644.9 L 162.3,645.0 L 161.2,645.0 Z" style="fill:#000000;fill-rule:evenodd;fill-opacity:1;stroke:#000000;stroke-width:0.0px;stroke-linecap:butt;stroke-linejoin:miter;stroke-opacity:1;"/>
<path class="atom-1" d="M 158.0,645.0 L 158.0,645.1 L 158.0,645.2 L 157.9,645.3 L 157.9,645.4 L 157.9,645.5 L 157.8,645.5 L 157.8,645.6 L 157.7,645.7 L 157.7,645.8 L 157.6,645.8 L 157.5,645.9 L 157.4,645.9 L 157.4,646.0 L 157.3,646.0 L 157.2,646.1 L 157.1,646.1 L 157.0,646.1 L 156.9,646.1 L 156.8,646.1 L 156.7,646.1 L 156.6,646.1 L 156.5,646.0 L 156.5,646.0 L 156.4,646.0 L 156.3,645.9 L 156.2,645.9 L 156.2,645.8 L 156.1,645.7 L 156.0,645.7 L 156.0,645.6 L 155.9,645.5 L 155.9,645.4 L 155.9,645.3 L 155.8,645.2 L 155.8,645.2 L 155.8,645.1 L 155.8,645.0 L 155.8,644.9 L 155.8,644.8 L 155.9,644.7 L 155.9,644.6 L 155.9,644.5 L 156.0,644.4 L 156.0,644.4 L 156.1,644.3 L 156.2,644.2 L 156.2,644.2 L 156.3,644.1 L 156.4,644.1 L 156.5,644.0 L 156.5,644.0 L 156.6,644.0 L 156.7,643.9 L 156.8,643.9 L 156.9,643.9 L 157.0,643.9 L 157.1,643.9 L 157.2,644.0 L 157.3,644.0 L 157.4,644.0 L 157.4,644.1 L 157.5,644.1 L 157.6,644.2 L 157.7,644.3 L 157.7,644.3 L 157.8,644.4 L 157.8,644.5 L 157.9,644.6 L 157.9,644.6 L 157.9,644.7 L 158.0,644.8 L 158.0,644.9 L 158.0,645.0 L 156.9,645.0 Z" style="fill:#000000;fill-rule:evenodd;fill-opacity:1;stroke:#000000;stroke-width:0.0px;stroke-linecap:butt;stroke-linejoin:miter;stroke-opacity:1;"/>
<path class="atom-2" d="M 113.3,603.5 L 113.3,603.6 L 113.2,603.7 L 113.2,603.8 L 113.2,603.9 L 113.2,603.9 L 113.1,604.0 L 113.1,604.1 L 113.0,604.2 L 112.9,604.3 L 112.9,604.3 L 112.8,604.4 L 112.7,604.4 L 112.6,604.5 L 112.6,604.5 L 112.5,604.5 L 112.4,604.6 L 112.3,604.6 L 112.2,604.6 L 112.1,604.6 L 112.0,604.6 L 111.9,604.5 L 111.8,604.5 L 111.7,604.5 L 111.7,604.4 L 111.6,604.4 L 111.5,604.3 L 111.4,604.3 L 111.4,604.2 L 111.3,604.1 L 111.3,604.1 L 111.2,604.0 L 111.2,603.9 L 111.1,603.8 L 111.1,603.7 L 111.1,603.6 L 111.1,603.5 L 111.1,603.4 L 111.1,603.4 L 111.1,603.3 L 111.1,603.2 L 111.2,603.1 L 111.2,603.0 L 111.3,602.9 L 111.3,602.8 L 111.4,602.8 L 111.4,602.7 L 111.5,602.6 L 111.6,602.6 L 111.7,602.5 L 111.7,602.5 L 111.8,602.5 L 111.9,602.4 L 112.0,602.4 L 112.1,602.4 L 112.2,602.4 L 112.3,602.4 L 112.4,602.4 L 112.5,602.5 L 112.6,602.5 L 112.6,602.5 L 112.7,602.6 L 112.8,602.6 L 112.9,602.7 L 112.9,602.7 L 113.0,602.8 L 113.1,602.9 L 113.1,603.0 L 113.2,603.0 L 113.2,603.1 L 113.2,603.2 L 113.2,603.3 L 113.3,603.4 L 113.3,603.5 L 112.2,603.5 Z" style="fill:#000000;fill-rule:evenodd;fill-opacity:1;stroke:#000000;stroke-width:0.0px;stroke-linecap:butt;stroke-linejoin:miter;stroke-opacity:1;"/>
<path class="atom-0" d="M 350.7 610.9 Q 355.5 610.9, 358.0 613.1 Q 360.4 615.3, 360.4 619.2 Q 360.4 623.2, 357.9 625.4 Q 355.4 627.6, 350.7 627.6 L 346.2 627.6 L 346.2 639.2 L 342.3 639.2 L 342.3 610.9 L 350.7 610.9 M 350.7 624.4 Q 353.4 624.4, 354.9 623.1 Q 356.4 621.8, 356.4 619.2 Q 356.4 616.7, 354.9 615.4 Q 353.5 614.1, 350.7 614.1 L 346.2 614.1 L 346.2 624.4 L 350.7 624.4 " fill="#000000"/>
<path class="atom-0" d="M 362.3 610.9 L 366.1 610.9 L 366.1 623.0 L 380.6 623.0 L 380.6 610.9 L 384.4 610.9 L 384.4 639.2 L 380.6 639.2 L 380.6 626.2 L 366.1 626.2 L 366.1 639.2 L 362.3 639.2 L 362.3 610.9 " fill="#000000"/>
<path class="atom-0" d="M 387.8 616.0 L 392.8 616.0 L 392.8 610.8 L 395.1 610.8 L 395.1 616.0 L 400.2 616.0 L 400.2 617.9 L 395.1 617.9 L 395.1 623.2 L 392.8 623.2 L 392.8 617.9 L 387.8 617.9 L 387.8 616.0 " fill="#000000"/>
<path class="atom-0" d="M 408.2,623.6 L 408.2,623.8 L 408.1,624.0 L 408.1,624.1 L 408.1,624.3 L 408.0,624.5 L 407.9,624.6 L 407.8,624.8 L 407.7,624.9 L 407.6,625.0 L 407.5,625.1 L 407.3,625.2 L 407.2,625.3 L 407.0,625.4 L 406.9,625.5 L 406.7,625.5 L 406.6,625.6 L 406.4,625.6 L 406.2,625.6 L 406.0,625.6 L 405.9,625.6 L 405.7,625.6 L 405.5,625.5 L 405.4,625.5 L 405.2,625.4 L 405.1,625.3 L 404.9,625.2 L 404.8,625.1 L 404.7,625.0 L 404.6,624.8 L 404.5,624.7 L 404.4,624.5 L 404.3,624.4 L 404.3,624.2 L 404.2,624.1 L 404.2,623.9 L 404.2,623.7 L 404.2,623.5 L 404.2,623.4 L 404.2,623.2 L 404.3,623.0 L 404.3,622.9 L 404.4,622.7 L 404.5,622.6 L 404.6,622.4 L 404.7,622.3 L 404.8,622.2 L 404.9,622.1 L 405.1,622.0 L 405.2,621.9 L 405.4,621.8 L 405.5,621.7 L 405.7,621.7 L 405.9,621.6 L 406.0,621.6 L 406.2,621.6 L 406.4,621.6 L 406.6,621.7 L 406.7,621.7 L 406.9,621.8 L 407.0,621.8 L 407.2,621.9 L 407.3,622.0 L 407.5,622.1 L 407.6,622.2 L 407.7,622.4 L 407.8,622.5 L 407.9,622.6 L 408.0,622.8 L 408.1,622.9 L 408.1,623.1 L 408.1,623.3 L 408.2,623.5 L 408.2,623.6 L 406.2,623.6 Z" style="fill:#000000;fill-rule:evenodd;fill-opacity:1;stroke:#000000;stroke-width:0.0px;stroke-linecap:butt;stroke-linejoin:miter;stroke-opacity:1;"/>
<path class="atom-0" d="M 408.2,626.5 L 408.2,626.7 L 408.1,626.9 L 408.1,627.0 L 408.1,627.2 L 408.0,627.4 L 407.9,627.5 L 407.8,627.7 L 407.7,627.8 L 407.6,627.9 L 407.5,628.0 L 407.3,628.1 L 407.2,628.2 L 407.0,628.3 L 406.9,628.4 L 406.7,628.4 L 406.6,628.5 L 406.4,628.5 L 406.2,628.5 L 406.0,628.5 L 405.9,628.5 L 405.7,628.5 L 405.5,628.4 L 405.4,628.4 L 405.2,628.3 L 405.1,628.2 L 404.9,628.1 L 404.8,628.0 L 404.7,627.9 L 404.6,627.7 L 404.5,627.6 L 404.4,627.4 L 404.3,627.3 L 404.3,627.1 L 404.2,627.0 L 404.2,626.8 L 404.2,626.6 L 404.2,626.4 L 404.2,626.3 L 404.2,626.1 L 404.3,625.9 L 404.3,625.8 L 404.4,625.6 L 404.5,625.5 L 404.6,625.3 L 404.7,625.2 L 404.8,625.1 L 404.9,625.0 L 405.1,624.9 L 405.2,624.8 L 405.4,624.7 L 405.5,624.6 L 405.7,624.6 L 405.9,624.5 L 406.0,624.5 L 406.2,624.5 L 406.4,624.5 L 406.6,624.6 L 406.7,624.6 L 406.9,624.7 L 407.0,624.7 L 407.2,624.8 L 407.3,624.9 L 407.5,625.0 L 407.6,625.1 L 407.7,625.3 L 407.8,625.4 L 407.9,625.5 L 408.0,625.7 L 408.1,625.8 L 408.1,626.0 L 408.1,626.2 L 408.2,626.4 L 408.2,626.5 L 406.2,626.5 Z" style="fill:#000000;fill-rule:evenodd;fill-opacity:1;stroke:#000000;stroke-width:0.0px;stroke-linecap:butt;stroke-linejoin:miter;stroke-opacity:1;"/>
<path class="atom-0" d="M 408.2,625.1 L 408.2,625.2 L 408.1,625.4 L 408.1,625.6 L 408.1,625.7 L 408.0,625.9 L 407.9,626.1 L 407.8,626.2 L 407.7,626.3 L 407.6,626.5 L 407.5,626.6 L 407.3,626.7 L 407.2,626.8 L 407.0,626.9 L 406.9,626.9 L 406.7,627.0 L 406.6,627.0 L 406.4,627.1 L 406.2,627.1 L 406.0,627.1 L 405.9,627.1 L 405.7,627.0 L 405.5,627.0 L 405.4,626.9 L 405.2,626.8 L 405.1,626.7 L 404.9,626.6 L 404.8,626.5 L 404.7,626.4 L 404.6,626.3 L 404.5,626.1 L 404.4,626.0 L 404.3,625.8 L 404.3,625.7 L 404.2,625.5 L 404.2,625.3 L 404.2,625.2 L 404.2,625.0 L 404.2,624.8 L 404.2,624.6 L 404.3,624.5 L 404.3,624.3 L 404.4,624.2 L 404.5,624.0 L 404.6,623.9 L 404.7,623.7 L 404.8,623.6 L 404.9,623.5 L 405.1,623.4 L 405.2,623.3 L 405.4,623.2 L 405.5,623.2 L 405.7,623.1 L 405.9,623.1 L 406.0,623.1 L 406.2,623.1 L 406.4,623.1 L 406.6,623.1 L 406.7,623.2 L 406.9,623.2 L 407.0,623.3 L 407.2,623.4 L 407.3,623.5 L 407.5,623.6 L 407.6,623.7 L 407.7,623.8 L 407.8,623.9 L 407.9,624.1 L 408.0,624.2 L 408.1,624.4 L 408.1,624.6 L 408.1,624.7 L 408.2,624.9 L 408.2,625.1 L 406.2,625.1 Z" style="fill:#000000;fill-rule:evenodd;fill-opacity:1;stroke:#000000;stroke-width:0.0px;stroke-linecap:butt;stroke-linejoin:miter;stroke-opacity:1;"/>
<path class="bond-0 atom-0 atom-1" d="M 573.9,625.1 L 687.9,625.1" style="fill:none;fill-rule:evenodd;stroke:#000000;stroke-width:2.0px;stroke-linecap:butt;stroke-linejoin:miter;stroke-opacity:1"/>
<path class="atom-0" d="M 535.9 610.9 L 545.2 625.9 Q 546.1 627.4, 547.6 630.1 Q 549.1 632.8, 549.2 632.9 L 549.2 610.9 L 552.9 610.9 L 552.9 639.2 L 549.0 639.2 L 539.1 622.8 Q 537.9 620.9, 536.7 618.7 Q 535.5 616.5, 535.1 615.8 L 535.1 639.2 L 531.4 639.2 L 531.4 610.9 L 535.9 610.9 " fill="#000000"/>
<path class="atom-0" d="M 556.2 616.0 L 561.2 616.0 L 561.2 610.8 L 563.4 610.8 L 563.4 616.0 L 568.6 616.0 L 568.6 617.9 L 563.4 617.9 L 563.4 623.2 L 561.2 623.2 L 561.2 617.9 L 556.2 617.9 L 556.2 616.0 " fill="#000000"/>
<path class="atom-1" d="M 706.9 624.4 Q 709.7 625.1, 711.0 626.8 Q 712.4 628.4, 712.4 630.9 Q 712.4 634.8, 709.9 637.0 Q 707.4 639.2, 702.7 639.2 L 693.2 639.2 L 693.2 610.9 L 701.5 610.9 Q 706.4 610.9, 708.8 612.9 Q 711.3 614.8, 711.3 618.4 Q 711.3 622.7, 706.9 624.4 M 697.0 614.1 L 697.0 623.0 L 701.5 623.0 Q 704.3 623.0, 705.8 621.9 Q 707.3 620.7, 707.3 618.4 Q 707.3 614.1, 701.5 614.1 L 697.0 614.1 M 702.7 636.0 Q 705.5 636.0, 706.9 634.7 Q 708.4 633.4, 708.4 630.9 Q 708.4 628.6, 706.8 627.4 Q 705.2 626.2, 702.1 626.2 L 697.0 626.2 L 697.0 636.0 L 702.7 636.0 " fill="#000000"/>
<path class="atom-1" d="M 717.3 618.7 L 717.7 621.5 Q 719.9 618.3, 723.4 618.3 Q 724.5 618.3, 726.1 618.7 L 725.5 622.1 Q 723.7 621.7, 722.8 621.7 Q 721.1 621.7, 720.0 622.4 Q 718.9 623.0, 718.0 624.6 L 718.0 639.2 L 714.3 639.2 L 714.3 618.7 L 717.3 618.7 " fill="#000000"/>
<path class="atom-0" d="M 527.4,619.6 L 527.4,619.8 L 527.4,619.9 L 527.4,620.1 L 527.3,620.3 L 527.3,620.4 L 527.2,620.6 L 527.1,620.7 L 527.0,620.9 L 526.9,621.0 L 526.7,621.1 L 526.6,621.2 L 526.5,621.3 L 526.3,621.4 L 526.2,621.5 L 526.0,621.5 L 525.8,621.6 L 525.7,621.6 L 525.5,621.6 L 525.3,621.6 L 525.1,621.6 L 525.0,621.5 L 524.8,621.5 L 524.6,621.4 L 524.5,621.4 L 524.3,621.3 L 524.2,621.2 L 524.1,621.1 L 524.0,620.9 L 523.8,620.8 L 523.7,620.7 L 523.7,620.5 L 523.6,620.4 L 523.5,620.2 L 523.5,620.0 L 523.5,619.9 L 523.4,619.7 L 523.4,619.5 L 523.5,619.3 L 523.5,619.2 L 523.5,619.0 L 523.6,618.8 L 523.7,618.7 L 523.7,618.5 L 523.8,618.4 L 524.0,618.3 L 524.1,618.1 L 524.2,618.0 L 524.3,617.9 L 524.5,617.8 L 524.6,617.8 L 524.8,617.7 L 525.0,617.7 L 525.1,617.6 L 525.3,617.6 L 525.5,617.6 L 525.7,617.6 L 525.8,617.6 L 526.0,617.7 L 526.2,617.7 L 526.3,617.8 L 526.5,617.9 L 526.6,618.0 L 526.7,618.1 L 526.9,618.2 L 527.0,618.3 L 527.1,618.5 L 527.2,618.6 L 527.3,618.8 L 527.3,618.9 L 527.4,619.1 L 527.4,619.3 L 527.4,619.4 L 527.4,619.6 L 525.4,619.6 Z" style="fill:#000000;fill-rule:evenodd;fill-opacity:1;stroke:#000000;stroke-width:0.0px;stroke-linecap:butt;stroke-linejoin:miter;stroke-opacity:1;"/>
<path class="atom-0" d="M 527.4,630.5 L 527.4,630.7 L 527.4,630.9 L 527.4,631.1 L 527.3,631.2 L 527.3,631.4 L 527.2,631.5 L 527.1,631.7 L 527.0,631.8 L 526.9,631.9 L 526.7,632.1 L 526.6,632.2 L 526.5,632.3 L 526.3,632.3 L 526.2,632.4 L 526.0,632.5 L 525.8,632.5 L 525.7,632.5 L 525.5,632.5 L 525.3,632.5 L 525.1,632.5 L 525.0,632.5 L 524.8,632.4 L 524.6,632.4 L 524.5,632.3 L 524.3,632.2 L 524.2,632.1 L 524.1,632.0 L 524.0,631.9 L 523.8,631.7 L 523.7,631.6 L 523.7,631.5 L 523.6,631.3 L 523.5,631.1 L 523.5,631.0 L 523.5,630.8 L 523.4,630.6 L 523.4,630.5 L 523.5,630.3 L 523.5,630.1 L 523.5,630.0 L 523.6,629.8 L 523.7,629.6 L 523.7,629.5 L 523.8,629.3 L 524.0,629.2 L 524.1,629.1 L 524.2,629.0 L 524.3,628.9 L 524.5,628.8 L 524.6,628.7 L 524.8,628.6 L 525.0,628.6 L 525.1,628.6 L 525.3,628.5 L 525.5,628.5 L 525.7,628.6 L 525.8,628.6 L 526.0,628.6 L 526.2,628.7 L 526.3,628.7 L 526.5,628.8 L 526.6,628.9 L 526.7,629.0 L 526.9,629.1 L 527.0,629.3 L 527.1,629.4 L 527.2,629.6 L 527.3,629.7 L 527.3,629.9 L 527.4,630.0 L 527.4,630.2 L 527.4,630.4 L 527.4,630.5 L 525.4,630.5 Z" style="fill:#000000;fill-rule:evenodd;fill-opacity:1;stroke:#000000;stroke-width:0.0px;stroke-linecap:butt;stroke-linejoin:miter;stroke-opacity:1;"/>
<path class="atom-0" d="M 527.4,625.1 L 527.4,625.2 L 527.4,625.4 L 527.4,625.6 L 527.3,625.7 L 527.3,625.9 L 527.2,626.1 L 527.1,626.2 L 527.0,626.3 L 526.9,626.5 L 526.7,626.6 L 526.6,626.7 L 526.5,626.8 L 526.3,626.9 L 526.2,626.9 L 526.0,627.0 L 525.8,627.0 L 525.7,627.1 L 525.5,627.1 L 525.3,627.1 L 525.1,627.1 L 525.0,627.0 L 524.8,627.0 L 524.6,626.9 L 524.5,626.8 L 524.3,626.7 L 524.2,626.6 L 524.1,626.5 L 524.0,626.4 L 523.8,626.3 L 523.7,626.1 L 523.7,626.0 L 523.6,625.8 L 523.5,625.7 L 523.5,625.5 L 523.5,625.3 L 523.4,625.2 L 523.4,625.0 L 523.5,624.8 L 523.5,624.6 L 523.5,624.5 L 523.6,624.3 L 523.7,624.2 L 523.7,624.0 L 523.8,623.9 L 524.0,623.7 L 524.1,623.6 L 524.2,623.5 L 524.3,623.4 L 524.5,623.3 L 524.6,623.2 L 524.8,623.2 L 525.0,623.1 L 525.1,623.1 L 525.3,623.1 L 525.5,623.1 L 525.7,623.1 L 525.8,623.1 L 526.0,623.2 L 526.2,623.2 L 526.3,623.3 L 526.5,623.4 L 526.6,623.5 L 526.7,623.6 L 526.9,623.7 L 527.0,623.8 L 527.1,623.9 L 527.2,624.1 L 527.3,624.2 L 527.3,624.4 L 527.4,624.6 L 527.4,624.7 L 527.4,624.9 L 527.4,625.1 L 525.4,625.1 Z" style="fill:#000000;fill-rule:evenodd;fill-opacity:1;stroke:#000000;stroke-width:0.0px;stroke-linecap:butt;stroke-linejoin:miter;stroke-opacity:1;"/>
</svg>