<svg xmlns="http://www.w3.org/2000/svg" xmlns:rdkit="http://www.rdkit.org/xml" xmlns:xlink="http://www.w3.org/1999/xlink" version="1.1" baseProfile="full" xml:space="preserve" width="750px" height="750px" viewBox="0 0 750 750">
<!-- END OF HEADER -->
<rect style="opacity:1.0;fill:#FFFFFF;stroke:none" width="750.0" height="750.0" x="0.0" y="0.0"> </rect>
<path class="bond-0 atom-0 atom-1" d="M 11.4,126.0 L 22.2,118.0" style="fill:none;fill-rule:evenodd;stroke:#000000;stroke-width:2.0px;stroke-linecap:butt;stroke-linejoin:miter;stroke-opacity:1"/>
<path class="bond-1 atom-1 atom-2" d="M 26.8,117.3 L 39.5,122.8" style="fill:none;fill-rule:evenodd;stroke:#000000;stroke-width:2.0px;stroke-linecap:butt;stroke-linejoin:miter;stroke-opacity:1"/>
<path class="bond-2 atom-2 atom-3" d="M 41.2,122.6 L 42.7,136.0" style="fill:none;fill-rule:evenodd;stroke:#000000;stroke-width:2.0px;stroke-linecap:butt;stroke-linejoin:miter;stroke-opacity:1"/>
<path class="bond-2 atom-2 atom-3" d="M 37.9,123.0 L 39.4,136.4" style="fill:none;fill-rule:evenodd;stroke:#000000;stroke-width:2.0px;stroke-linecap:butt;stroke-linejoin:miter;stroke-opacity:1"/>
<path class="bond-3 atom-2 atom-4" d="M 39.5,122.8 L 52.7,113.1" style="fill:none;fill-rule:evenodd;stroke:#000000;stroke-width:2.0px;stroke-linecap:butt;stroke-linejoin:miter;stroke-opacity:1"/>
<path class="bond-4 atom-4 atom-5" d="M 52.7,113.1 L 50.9,96.8" style="fill:none;fill-rule:evenodd;stroke:#000000;stroke-width:2.0px;stroke-linecap:butt;stroke-linejoin:miter;stroke-opacity:1"/>
<path class="bond-4 atom-4 atom-5" d="M 55.7,110.3 L 54.4,98.9" style="fill:none;fill-rule:evenodd;stroke:#000000;stroke-width:2.0px;stroke-linecap:butt;stroke-linejoin:miter;stroke-opacity:1"/>
<path class="bond-5 atom-5 atom-6" d="M 50.9,96.8 L 64.0,87.1" style="fill:none;fill-rule:evenodd;stroke:#000000;stroke-width:2.0px;stroke-linecap:butt;stroke-linejoin:miter;stroke-opacity:1"/>
<path class="bond-6 atom-6 atom-7" d="M 64.0,87.1 L 79.0,93.6" style="fill:none;fill-rule:evenodd;stroke:#000000;stroke-width:2.0px;stroke-linecap:butt;stroke-linejoin:miter;stroke-opacity:1"/>
<path class="bond-6 atom-6 atom-7" d="M 65.0,91.1 L 75.5,95.6" style="fill:none;fill-rule:evenodd;stroke:#000000;stroke-width:2.0px;stroke-linecap:butt;stroke-linejoin:miter;stroke-opacity:1"/>
<path class="bond-7 atom-7 atom-8" d="M 79.0,93.6 L 90.3,85.3" style="fill:none;fill-rule:evenodd;stroke:#000000;stroke-width:2.0px;stroke-linecap:butt;stroke-linejoin:miter;stroke-opacity:1"/>
<path class="bond-8 atom-7 atom-9" d="M 79.0,93.6 L 80.9,109.9" style="fill:none;fill-rule:evenodd;stroke:#000000;stroke-width:2.0px;stroke-linecap:butt;stroke-linejoin:miter;stroke-opacity:1"/>
<path class="bond-9 atom-9 atom-10" d="M 80.9,109.9 L 67.7,119.6" style="fill:none;fill-rule:evenodd;stroke:#000000;stroke-width:2.0px;stroke-linecap:butt;stroke-linejoin:miter;stroke-opacity:1"/>
<path class="bond-9 atom-9 atom-10" d="M 77.0,108.7 L 67.8,115.5" style="fill:none;fill-rule:evenodd;stroke:#000000;stroke-width:2.0px;stroke-linecap:butt;stroke-linejoin:miter;stroke-opacity:1"/>
<path class="bond-10 atom-10 atom-11" d="M 67.7,119.6 L 69.6,135.9" style="fill:none;fill-rule:evenodd;stroke:#000000;stroke-width:2.0px;stroke-linecap:butt;stroke-linejoin:miter;stroke-opacity:1"/>
<path class="bond-11 atom-11 atom-12" d="M 69.6,135.9 L 56.4,145.6" style="fill:none;fill-rule:evenodd;stroke:#000000;stroke-width:2.0px;stroke-linecap:butt;stroke-linejoin:miter;stroke-opacity:1"/>
<path class="bond-11 atom-11 atom-12" d="M 69.5,140.0 L 60.3,146.8" style="fill:none;fill-rule:evenodd;stroke:#000000;stroke-width:2.0px;stroke-linecap:butt;stroke-linejoin:miter;stroke-opacity:1"/>
<path class="bond-12 atom-12 atom-13" d="M 56.4,145.6 L 58.2,161.9" style="fill:none;fill-rule:evenodd;stroke:#000000;stroke-width:2.0px;stroke-linecap:butt;stroke-linejoin:miter;stroke-opacity:1"/>
<path class="bond-13 atom-13 atom-14" d="M 58.2,161.9 L 73.2,168.4" style="fill:none;fill-rule:evenodd;stroke:#000000;stroke-width:2.0px;stroke-linecap:butt;stroke-linejoin:miter;stroke-opacity:1"/>
<path class="bond-13 atom-13 atom-14" d="M 61.8,159.9 L 72.3,164.4" style="fill:none;fill-rule:evenodd;stroke:#000000;stroke-width:2.0px;stroke-linecap:butt;stroke-linejoin:miter;stroke-opacity:1"/>
<path class="bond-14 atom-14 atom-15" d="M 73.2,168.4 L 86.4,158.7" style="fill:none;fill-rule:evenodd;stroke:#000000;stroke-width:2.0px;stroke-linecap:butt;stroke-linejoin:miter;stroke-opacity:1"/>
<path class="bond-15 atom-15 atom-16" d="M 86.4,158.7 L 84.6,142.4" style="fill:none;fill-rule:evenodd;stroke:#000000;stroke-width:2.0px;stroke-linecap:butt;stroke-linejoin:miter;stroke-opacity:1"/>
<path class="bond-15 atom-15 atom-16" d="M 82.9,156.6 L 81.6,145.2" style="fill:none;fill-rule:evenodd;stroke:#000000;stroke-width:2.0px;stroke-linecap:butt;stroke-linejoin:miter;stroke-opacity:1"/>
<path class="bond-16 atom-16 atom-17" d="M 84.6,142.4 L 97.7,132.7" style="fill:none;fill-rule:evenodd;stroke:#000000;stroke-width:2.0px;stroke-linecap:butt;stroke-linejoin:miter;stroke-opacity:1"/>
<path class="bond-17 atom-17 atom-18" d="M 97.7,132.7 L 112.8,139.2" style="fill:none;fill-rule:evenodd;stroke:#000000;stroke-width:2.0px;stroke-linecap:butt;stroke-linejoin:miter;stroke-opacity:1"/>
<path class="bond-17 atom-17 atom-18" d="M 98.7,136.7 L 109.2,141.3" style="fill:none;fill-rule:evenodd;stroke:#000000;stroke-width:2.0px;stroke-linecap:butt;stroke-linejoin:miter;stroke-opacity:1"/>
<path class="bond-18 atom-18 atom-19" d="M 112.8,139.2 L 125.9,129.5" style="fill:none;fill-rule:evenodd;stroke:#000000;stroke-width:2.0px;stroke-linecap:butt;stroke-linejoin:miter;stroke-opacity:1"/>
<path class="bond-19 atom-19 atom-20" d="M 125.9,129.5 L 140.9,136.1" style="fill:none;fill-rule:evenodd;stroke:#000000;stroke-width:2.0px;stroke-linecap:butt;stroke-linejoin:miter;stroke-opacity:1"/>
<path class="bond-19 atom-19 atom-20" d="M 126.9,133.5 L 137.4,138.1" style="fill:none;fill-rule:evenodd;stroke:#000000;stroke-width:2.0px;stroke-linecap:butt;stroke-linejoin:miter;stroke-opacity:1"/>
<path class="bond-20 atom-20 atom-21" d="M 140.9,136.1 L 154.1,126.3" style="fill:none;fill-rule:evenodd;stroke:#000000;stroke-width:2.0px;stroke-linecap:butt;stroke-linejoin:miter;stroke-opacity:1"/>
<path class="bond-21 atom-21 atom-22" d="M 154.1,126.3 L 169.1,132.9" style="fill:none;fill-rule:evenodd;stroke:#000000;stroke-width:2.0px;stroke-linecap:butt;stroke-linejoin:miter;stroke-opacity:1"/>
<path class="bond-21 atom-21 atom-22" d="M 155.0,130.3 L 165.5,134.9" style="fill:none;fill-rule:evenodd;stroke:#000000;stroke-width:2.0px;stroke-linecap:butt;stroke-linejoin:miter;stroke-opacity:1"/>
<path class="bond-22 atom-22 atom-23" d="M 169.1,132.9 L 182.3,123.1" style="fill:none;fill-rule:evenodd;stroke:#000000;stroke-width:2.0px;stroke-linecap:butt;stroke-linejoin:miter;stroke-opacity:1"/>
<path class="bond-23 atom-23 atom-24" d="M 182.3,123.1 L 197.3,129.7" style="fill:none;fill-rule:evenodd;stroke:#000000;stroke-width:2.0px;stroke-linecap:butt;stroke-linejoin:miter;stroke-opacity:1"/>
<path class="bond-23 atom-23 atom-24" d="M 183.2,127.1 L 193.7,131.7" style="fill:none;fill-rule:evenodd;stroke:#000000;stroke-width:2.0px;stroke-linecap:butt;stroke-linejoin:miter;stroke-opacity:1"/>
<path class="bond-24 atom-24 atom-25" d="M 197.3,129.7 L 210.5,119.9" style="fill:none;fill-rule:evenodd;stroke:#000000;stroke-width:2.0px;stroke-linecap:butt;stroke-linejoin:miter;stroke-opacity:1"/>
<path class="bond-25 atom-25 atom-26" d="M 210.5,119.9 L 225.5,126.5" style="fill:none;fill-rule:evenodd;stroke:#000000;stroke-width:2.0px;stroke-linecap:butt;stroke-linejoin:miter;stroke-opacity:1"/>
<path class="bond-25 atom-25 atom-26" d="M 211.4,123.9 L 221.9,128.5" style="fill:none;fill-rule:evenodd;stroke:#000000;stroke-width:2.0px;stroke-linecap:butt;stroke-linejoin:miter;stroke-opacity:1"/>
<path class="bond-26 atom-26 atom-27" d="M 225.5,126.5 L 238.6,116.8" style="fill:none;fill-rule:evenodd;stroke:#000000;stroke-width:2.0px;stroke-linecap:butt;stroke-linejoin:miter;stroke-opacity:1"/>
<path class="bond-27 atom-10 atom-4" d="M 67.7,119.6 L 52.7,113.1" style="fill:none;fill-rule:evenodd;stroke:#000000;stroke-width:2.0px;stroke-linecap:butt;stroke-linejoin:miter;stroke-opacity:1"/>
<path class="bond-28 atom-16 atom-11" d="M 84.6,142.4 L 69.6,135.9" style="fill:none;fill-rule:evenodd;stroke:#000000;stroke-width:2.0px;stroke-linecap:butt;stroke-linejoin:miter;stroke-opacity:1"/>
<path class="atom-1" d="M 23.5 113.9 L 25.0 116.4 Q 25.2 116.6, 25.4 117.1 Q 25.7 117.5, 25.7 117.6 L 25.7 113.9 L 26.3 113.9 L 26.3 118.6 L 25.7 118.6 L 24.0 115.9 Q 23.8 115.6, 23.6 115.2 Q 23.4 114.9, 23.4 114.8 L 23.4 118.6 L 22.8 118.6 L 22.8 113.9 L 23.5 113.9 " fill="#000000"/>
<path class="atom-1" d="M 22.7 108.8 L 23.3 108.8 L 23.3 110.8 L 25.7 110.8 L 25.7 108.8 L 26.3 108.8 L 26.3 113.5 L 25.7 113.5 L 25.7 111.3 L 23.3 111.3 L 23.3 113.5 L 22.7 113.5 L 22.7 108.8 " fill="#000000"/>
<path class="atom-3" d="M 39.3 139.1 Q 39.3 138.0, 39.8 137.4 Q 40.4 136.7, 41.4 136.7 Q 42.4 136.7, 43.0 137.4 Q 43.5 138.0, 43.5 139.1 Q 43.5 140.2, 43.0 140.9 Q 42.4 141.5, 41.4 141.5 Q 40.4 141.5, 39.8 140.9 Q 39.3 140.2, 39.3 139.1 M 41.4 141.0 Q 42.1 141.0, 42.5 140.5 Q 42.9 140.0, 42.9 139.1 Q 42.9 138.2, 42.5 137.7 Q 42.1 137.3, 41.4 137.3 Q 40.7 137.3, 40.3 137.7 Q 39.9 138.2, 39.9 139.1 Q 39.9 140.0, 40.3 140.5 Q 40.7 141.0, 41.4 141.0 " fill="#000000"/>
<path class="atom-8" d="M 90.8 81.6 L 93.6 81.6 L 93.6 82.1 L 91.5 82.1 L 91.5 83.5 L 93.4 83.5 L 93.4 84.0 L 91.5 84.0 L 91.5 86.2 L 90.8 86.2 L 90.8 81.6 " fill="#000000"/>
<path class="bond-0 atom-0 atom-1" d="M 452.1,186.4 L 469.7,197.7" style="fill:none;fill-rule:evenodd;stroke:#000000;stroke-width:2.0px;stroke-linecap:butt;stroke-linejoin:miter;stroke-opacity:1"/>
<path class="bond-1 atom-1 atom-2" d="M 469.7,197.7 L 488.6,182.2" style="fill:none;fill-rule:evenodd;stroke:#000000;stroke-width:2.0px;stroke-linecap:butt;stroke-linejoin:miter;stroke-opacity:1"/>
<path class="bond-1 atom-1 atom-2" d="M 469.4,191.6 L 482.7,180.7" style="fill:none;fill-rule:evenodd;stroke:#000000;stroke-width:2.0px;stroke-linecap:butt;stroke-linejoin:miter;stroke-opacity:1"/>
<path class="bond-2 atom-2 atom-3" d="M 488.6,182.2 L 479.8,159.4" style="fill:none;fill-rule:evenodd;stroke:#000000;stroke-width:2.0px;stroke-linecap:butt;stroke-linejoin:miter;stroke-opacity:1"/>
<path class="bond-3 atom-3 atom-4" d="M 479.8,159.4 L 455.3,160.7" style="fill:none;fill-rule:evenodd;stroke:#000000;stroke-width:2.0px;stroke-linecap:butt;stroke-linejoin:miter;stroke-opacity:1"/>
<path class="bond-3 atom-3 atom-4" d="M 476.4,164.5 L 459.3,165.4" style="fill:none;fill-rule:evenodd;stroke:#000000;stroke-width:2.0px;stroke-linecap:butt;stroke-linejoin:miter;stroke-opacity:1"/>
<path class="bond-4 atom-4 atom-5" d="M 455.3,160.7 L 439.9,141.8" style="fill:none;fill-rule:evenodd;stroke:#000000;stroke-width:2.0px;stroke-linecap:butt;stroke-linejoin:miter;stroke-opacity:1"/>
<path class="bond-5 atom-5 atom-6" d="M 437.6,140.9 L 444.6,122.4" style="fill:none;fill-rule:evenodd;stroke:#000000;stroke-width:2.0px;stroke-linecap:butt;stroke-linejoin:miter;stroke-opacity:1"/>
<path class="bond-5 atom-5 atom-6" d="M 442.2,142.6 L 449.2,124.2" style="fill:none;fill-rule:evenodd;stroke:#000000;stroke-width:2.0px;stroke-linecap:butt;stroke-linejoin:miter;stroke-opacity:1"/>
<path class="bond-6 atom-5 atom-7" d="M 439.9,141.8 L 419.1,145.1" style="fill:none;fill-rule:evenodd;stroke:#000000;stroke-width:2.0px;stroke-linecap:butt;stroke-linejoin:miter;stroke-opacity:1"/>
<path class="bond-7 atom-7 atom-8" d="M 413.5,149.9 L 404.7,167.5" style="fill:none;fill-rule:evenodd;stroke:#000000;stroke-width:2.0px;stroke-linecap:butt;stroke-linejoin:miter;stroke-opacity:1"/>
<path class="bond-8 atom-8 atom-9" d="M 404.7,167.5 L 380.5,163.8" style="fill:none;fill-rule:evenodd;stroke:#000000;stroke-width:2.0px;stroke-linecap:butt;stroke-linejoin:miter;stroke-opacity:1"/>
<path class="bond-9 atom-9 atom-10" d="M 380.5,163.8 L 376.6,139.6" style="fill:none;fill-rule:evenodd;stroke:#000000;stroke-width:2.0px;stroke-linecap:butt;stroke-linejoin:miter;stroke-opacity:1"/>
<path class="bond-10 atom-10 atom-11" d="M 376.6,139.6 L 398.3,128.4" style="fill:none;fill-rule:evenodd;stroke:#000000;stroke-width:2.0px;stroke-linecap:butt;stroke-linejoin:miter;stroke-opacity:1"/>
<path class="bond-11 atom-11 atom-12" d="M 398.3,128.4 L 400.2,116.1" style="fill:none;fill-rule:evenodd;stroke:#000000;stroke-width:2.0px;stroke-linecap:butt;stroke-linejoin:miter;stroke-opacity:1"/>
<path class="bond-12 atom-12 atom-13" d="M 409.4,101.4 L 424.9,95.4" style="fill:none;fill-rule:evenodd;stroke:#000000;stroke-width:2.0px;stroke-linecap:butt;stroke-linejoin:miter;stroke-opacity:1"/>
<path class="bond-13 atom-13 atom-14" d="M 424.9,95.4 L 428.7,71.2" style="fill:none;fill-rule:evenodd;stroke:#000000;stroke-width:2.0px;stroke-linecap:butt;stroke-linejoin:miter;stroke-opacity:1"/>
<path class="bond-14 atom-14 atom-15" d="M 428.7,71.2 L 413.6,59.0" style="fill:none;fill-rule:evenodd;stroke:#000000;stroke-width:2.0px;stroke-linecap:butt;stroke-linejoin:miter;stroke-opacity:1"/>
<path class="bond-15 atom-15 atom-16" d="M 405.6,57.4 L 386.8,64.7" style="fill:none;fill-rule:evenodd;stroke:#000000;stroke-width:2.0px;stroke-linecap:butt;stroke-linejoin:miter;stroke-opacity:1"/>
<path class="bond-16 atom-16 atom-17" d="M 386.8,64.7 L 383.0,88.9" style="fill:none;fill-rule:evenodd;stroke:#000000;stroke-width:2.0px;stroke-linecap:butt;stroke-linejoin:miter;stroke-opacity:1"/>
<path class="bond-17 atom-17 atom-18" d="M 383.0,88.9 L 366.0,95.5" style="fill:none;fill-rule:evenodd;stroke:#000000;stroke-width:2.0px;stroke-linecap:butt;stroke-linejoin:miter;stroke-opacity:1"/>
<path class="bond-18 atom-18 atom-19" d="M 357.1,95.3 L 344.1,84.8" style="fill:none;fill-rule:evenodd;stroke:#000000;stroke-width:2.0px;stroke-linecap:butt;stroke-linejoin:miter;stroke-opacity:1"/>
<path class="bond-18 atom-18 atom-19" d="M 358.3,89.9 L 349.1,82.6" style="fill:none;fill-rule:evenodd;stroke:#000000;stroke-width:2.0px;stroke-linecap:butt;stroke-linejoin:miter;stroke-opacity:1"/>
<path class="bond-19 atom-19 atom-20" d="M 338.1,83.6 L 321.3,90.1" style="fill:none;fill-rule:evenodd;stroke:#000000;stroke-width:2.0px;stroke-linecap:butt;stroke-linejoin:miter;stroke-opacity:1"/>
<path class="bond-20 atom-20 atom-21" d="M 313.7,90.7 L 301.6,81.0" style="fill:none;fill-rule:evenodd;stroke:#000000;stroke-width:2.0px;stroke-linecap:butt;stroke-linejoin:miter;stroke-opacity:1"/>
<path class="bond-20 atom-20 atom-21" d="M 316.8,86.9 L 304.7,77.2" style="fill:none;fill-rule:evenodd;stroke:#000000;stroke-width:2.0px;stroke-linecap:butt;stroke-linejoin:miter;stroke-opacity:1"/>
<path class="bond-21 atom-20 atom-22" d="M 317.6,95.7 L 315.2,111.2" style="fill:none;fill-rule:evenodd;stroke:#000000;stroke-width:2.0px;stroke-linecap:butt;stroke-linejoin:miter;stroke-opacity:1"/>
<path class="bond-22 atom-22 atom-23" d="M 311.5,116.6 L 291.7,124.3" style="fill:none;fill-rule:evenodd;stroke:#000000;stroke-width:2.0px;stroke-linecap:butt;stroke-linejoin:miter;stroke-opacity:1"/>
<path class="bond-23 atom-23 atom-24" d="M 291.7,124.3 L 287.9,148.5" style="fill:none;fill-rule:evenodd;stroke:#000000;stroke-width:2.0px;stroke-linecap:butt;stroke-linejoin:miter;stroke-opacity:1"/>
<path class="bond-24 atom-24 atom-25" d="M 287.9,148.5 L 265.1,157.3" style="fill:none;fill-rule:evenodd;stroke:#000000;stroke-width:2.0px;stroke-linecap:butt;stroke-linejoin:miter;stroke-opacity:1"/>
<path class="bond-24 atom-24 atom-25" d="M 286.3,154.4 L 270.3,160.6" style="fill:none;fill-rule:evenodd;stroke:#000000;stroke-width:2.0px;stroke-linecap:butt;stroke-linejoin:miter;stroke-opacity:1"/>
<path class="bond-25 atom-25 atom-26" d="M 265.1,157.3 L 261.4,181.5" style="fill:none;fill-rule:evenodd;stroke:#000000;stroke-width:2.0px;stroke-linecap:butt;stroke-linejoin:miter;stroke-opacity:1"/>
<path class="bond-26 atom-26 atom-27" d="M 261.4,181.5 L 280.4,196.9" style="fill:none;fill-rule:evenodd;stroke:#000000;stroke-width:2.0px;stroke-linecap:butt;stroke-linejoin:miter;stroke-opacity:1"/>
<path class="bond-26 atom-26 atom-27" d="M 267.3,180.0 L 280.6,190.7" style="fill:none;fill-rule:evenodd;stroke:#000000;stroke-width:2.0px;stroke-linecap:butt;stroke-linejoin:miter;stroke-opacity:1"/>
<path class="bond-27 atom-27 atom-28" d="M 280.4,196.9 L 299.8,189.3" style="fill:none;fill-rule:evenodd;stroke:#000000;stroke-width:2.0px;stroke-linecap:butt;stroke-linejoin:miter;stroke-opacity:1"/>
<path class="bond-28 atom-28 atom-29" d="M 303.9,183.7 L 307.0,163.8" style="fill:none;fill-rule:evenodd;stroke:#000000;stroke-width:2.0px;stroke-linecap:butt;stroke-linejoin:miter;stroke-opacity:1"/>
<path class="bond-28 atom-28 atom-29" d="M 299.6,180.0 L 301.7,166.1" style="fill:none;fill-rule:evenodd;stroke:#000000;stroke-width:2.0px;stroke-linecap:butt;stroke-linejoin:miter;stroke-opacity:1"/>
<path class="bond-29 atom-29 atom-30" d="M 307.0,163.8 L 327.0,156.1" style="fill:none;fill-rule:evenodd;stroke:#000000;stroke-width:2.0px;stroke-linecap:butt;stroke-linejoin:miter;stroke-opacity:1"/>
<path class="bond-30 atom-4 atom-0" d="M 455.3,160.7 L 450.2,180.1" style="fill:none;fill-rule:evenodd;stroke:#000000;stroke-width:2.0px;stroke-linecap:butt;stroke-linejoin:miter;stroke-opacity:1"/>
<path class="bond-31 atom-11 atom-7" d="M 398.3,128.4 L 412.3,142.3" style="fill:none;fill-rule:evenodd;stroke:#000000;stroke-width:2.0px;stroke-linecap:butt;stroke-linejoin:miter;stroke-opacity:1"/>
<path class="bond-32 atom-17 atom-12" d="M 383.0,88.9 L 398.6,101.5" style="fill:none;fill-rule:evenodd;stroke:#000000;stroke-width:2.0px;stroke-linecap:butt;stroke-linejoin:miter;stroke-opacity:1"/>
<path class="bond-33 atom-29 atom-24" d="M 307.0,163.8 L 287.9,148.5" style="fill:none;fill-rule:evenodd;stroke:#000000;stroke-width:2.0px;stroke-linecap:butt;stroke-linejoin:miter;stroke-opacity:1"/>
<path class="atom-0" d="M 447.1 186.8 Q 447.2 186.8, 447.5 187.0 Q 447.8 187.1, 448.2 187.2 Q 448.6 187.3, 448.9 187.3 Q 449.6 187.3, 450.0 186.9 Q 450.3 186.6, 450.3 186.1 Q 450.3 185.7, 450.1 185.4 Q 450.0 185.2, 449.7 185.1 Q 449.4 185.0, 448.9 184.8 Q 448.3 184.6, 447.9 184.4 Q 447.5 184.3, 447.3 183.9 Q 447.0 183.5, 447.0 182.9 Q 447.0 182.0, 447.6 181.5 Q 448.2 181.0, 449.4 181.0 Q 450.2 181.0, 451.1 181.3 L 450.9 182.1 Q 450.0 181.7, 449.4 181.7 Q 448.7 181.7, 448.3 182.0 Q 448.0 182.3, 448.0 182.8 Q 448.0 183.2, 448.2 183.4 Q 448.4 183.6, 448.6 183.7 Q 448.9 183.9, 449.4 184.0 Q 450.0 184.2, 450.4 184.4 Q 450.8 184.6, 451.0 185.0 Q 451.3 185.4, 451.3 186.1 Q 451.3 187.0, 450.7 187.5 Q 450.0 188.1, 449.0 188.1 Q 448.3 188.1, 447.9 187.9 Q 447.4 187.8, 446.9 187.6 L 447.1 186.8 " fill="#000000"/>
<path class="atom-6" d="M 445.4 118.9 Q 445.4 117.2, 446.2 116.3 Q 447.0 115.4, 448.6 115.4 Q 450.1 115.4, 450.9 116.3 Q 451.8 117.2, 451.8 118.9 Q 451.8 120.6, 450.9 121.5 Q 450.1 122.5, 448.6 122.5 Q 447.0 122.5, 446.2 121.5 Q 445.4 120.6, 445.4 118.9 M 448.6 121.7 Q 449.6 121.7, 450.2 121.0 Q 450.8 120.3, 450.8 118.9 Q 450.8 117.5, 450.2 116.8 Q 449.6 116.2, 448.6 116.2 Q 447.5 116.2, 446.9 116.8 Q 446.4 117.5, 446.4 118.9 Q 446.4 120.3, 446.9 121.0 Q 447.5 121.7, 448.6 121.7 " fill="#000000"/>
<path class="atom-7" d="M 414.2 142.2 L 416.4 145.9 Q 416.7 146.2, 417.0 146.9 Q 417.4 147.6, 417.4 147.6 L 417.4 142.2 L 418.3 142.2 L 418.3 149.1 L 417.4 149.1 L 414.9 145.1 Q 414.7 144.7, 414.4 144.1 Q 414.1 143.6, 414.0 143.4 L 414.0 149.1 L 413.1 149.1 L 413.1 142.2 L 414.2 142.2 " fill="#000000"/>
<path class="atom-12" d="M 400.6 100.8 L 402.8 104.4 Q 403.0 104.8, 403.4 105.4 Q 403.8 106.1, 403.8 106.1 L 403.8 100.8 L 404.7 100.8 L 404.7 107.7 L 403.8 107.7 L 401.3 103.7 Q 401.0 103.2, 400.7 102.7 Q 400.4 102.1, 400.4 102.0 L 400.4 107.7 L 399.5 107.7 L 399.5 100.8 L 400.6 100.8 " fill="#000000"/>
<path class="atom-12" d="M 405.5 102.0 L 406.7 102.0 L 406.7 100.7 L 407.3 100.7 L 407.3 102.0 L 408.5 102.0 L 408.5 102.5 L 407.3 102.5 L 407.3 103.8 L 406.7 103.8 L 406.7 102.5 L 405.5 102.5 L 405.5 102.0 " fill="#000000"/>
<path class="atom-12" d="M 399.4 108.4 L 400.3 108.4 L 400.3 111.3 L 403.9 111.3 L 403.9 108.4 L 404.8 108.4 L 404.8 115.3 L 403.9 115.3 L 403.9 112.1 L 400.3 112.1 L 400.3 115.3 L 399.4 115.3 L 399.4 108.4 " fill="#000000"/>
<path class="atom-15" d="M 406.4 55.9 Q 406.4 54.2, 407.2 53.3 Q 408.0 52.3, 409.6 52.3 Q 411.1 52.3, 411.9 53.3 Q 412.8 54.2, 412.8 55.9 Q 412.8 57.5, 411.9 58.5 Q 411.1 59.4, 409.6 59.4 Q 408.1 59.4, 407.2 58.5 Q 406.4 57.5, 406.4 55.9 M 409.6 58.7 Q 410.6 58.7, 411.2 58.0 Q 411.8 57.2, 411.8 55.9 Q 411.8 54.5, 411.2 53.8 Q 410.6 53.1, 409.6 53.1 Q 408.5 53.1, 407.9 53.8 Q 407.4 54.5, 407.4 55.9 Q 407.4 57.3, 407.9 58.0 Q 408.5 58.7, 409.6 58.7 " fill="#000000"/>
<path class="atom-18" d="M 358.2 100.1 Q 358.3 100.1, 358.6 100.3 Q 358.9 100.4, 359.3 100.5 Q 359.7 100.6, 360.0 100.6 Q 360.7 100.6, 361.0 100.3 Q 361.4 99.9, 361.4 99.4 Q 361.4 99.0, 361.2 98.8 Q 361.0 98.5, 360.8 98.4 Q 360.5 98.3, 360.0 98.1 Q 359.4 97.9, 359.0 97.8 Q 358.6 97.6, 358.4 97.2 Q 358.1 96.8, 358.1 96.2 Q 358.1 95.3, 358.7 94.8 Q 359.3 94.3, 360.5 94.3 Q 361.3 94.3, 362.2 94.6 L 361.9 95.4 Q 361.1 95.1, 360.5 95.1 Q 359.8 95.1, 359.4 95.3 Q 359.1 95.6, 359.1 96.1 Q 359.1 96.5, 359.3 96.7 Q 359.5 96.9, 359.7 97.0 Q 360.0 97.2, 360.5 97.3 Q 361.1 97.5, 361.5 97.7 Q 361.9 97.9, 362.1 98.3 Q 362.4 98.7, 362.4 99.4 Q 362.4 100.3, 361.8 100.9 Q 361.1 101.4, 360.0 101.4 Q 359.4 101.4, 359.0 101.2 Q 358.5 101.1, 358.0 100.9 L 358.2 100.1 " fill="#000000"/>
<path class="atom-18" d="M 362.9 95.3 L 365.2 95.3 L 365.2 95.8 L 362.9 95.8 L 362.9 95.3 " fill="#000000"/>
<path class="atom-19" d="M 340.9 78.9 Q 342.1 78.9, 342.7 79.5 Q 343.3 80.0, 343.3 80.9 Q 343.3 81.9, 342.7 82.5 Q 342.1 83.0, 340.9 83.0 L 339.8 83.0 L 339.8 85.8 L 338.9 85.8 L 338.9 78.9 L 340.9 78.9 M 340.9 82.2 Q 341.6 82.2, 342.0 81.9 Q 342.3 81.6, 342.3 80.9 Q 342.3 80.3, 342.0 80.0 Q 341.6 79.7, 340.9 79.7 L 339.8 79.7 L 339.8 82.2 L 340.9 82.2 " fill="#000000"/>
<path class="atom-19" d="M 338.4 71.3 L 339.3 71.3 L 339.3 74.2 L 342.9 74.2 L 342.9 71.3 L 343.8 71.3 L 343.8 78.2 L 342.9 78.2 L 342.9 75.0 L 339.3 75.0 L 339.3 78.2 L 338.4 78.2 L 338.4 71.3 " fill="#000000"/>
<path class="atom-19" d="M 344.7 78.0 Q 344.8 77.5, 345.2 77.3 Q 345.6 77.1, 346.2 77.1 Q 346.9 77.1, 347.3 77.4 Q 347.7 77.8, 347.7 78.5 Q 347.7 79.2, 347.1 79.8 Q 346.6 80.4, 345.6 81.2 L 347.7 81.2 L 347.7 81.7 L 344.6 81.7 L 344.6 81.3 Q 345.5 80.6, 346.0 80.2 Q 346.5 79.7, 346.8 79.3 Q 347.0 78.9, 347.0 78.5 Q 347.0 78.1, 346.8 77.8 Q 346.6 77.6, 346.2 77.6 Q 345.8 77.6, 345.6 77.7 Q 345.3 77.9, 345.1 78.2 L 344.7 78.0 " fill="#000000"/>
<path class="atom-20" d="M 316.3 93.6 Q 316.4 93.6, 316.7 93.8 Q 317.0 93.9, 317.4 94.0 Q 317.8 94.1, 318.1 94.1 Q 318.8 94.1, 319.1 93.8 Q 319.5 93.4, 319.5 92.9 Q 319.5 92.5, 319.3 92.3 Q 319.1 92.0, 318.8 91.9 Q 318.6 91.8, 318.1 91.6 Q 317.4 91.4, 317.1 91.3 Q 316.7 91.1, 316.4 90.7 Q 316.2 90.3, 316.2 89.7 Q 316.2 88.8, 316.8 88.3 Q 317.4 87.8, 318.6 87.8 Q 319.4 87.8, 320.3 88.2 L 320.0 88.9 Q 319.2 88.6, 318.6 88.6 Q 317.9 88.6, 317.5 88.8 Q 317.2 89.1, 317.2 89.6 Q 317.2 90.0, 317.4 90.2 Q 317.6 90.4, 317.8 90.6 Q 318.1 90.7, 318.6 90.8 Q 319.2 91.0, 319.6 91.2 Q 320.0 91.4, 320.2 91.8 Q 320.5 92.2, 320.5 92.9 Q 320.5 93.8, 319.8 94.4 Q 319.2 94.9, 318.1 94.9 Q 317.5 94.9, 317.1 94.7 Q 316.6 94.6, 316.0 94.4 L 316.3 93.6 " fill="#000000"/>
<path class="atom-21" d="M 296.0 75.9 Q 296.0 74.2, 296.8 73.3 Q 297.7 72.4, 299.2 72.4 Q 300.7 72.4, 301.6 73.3 Q 302.4 74.2, 302.4 75.9 Q 302.4 77.6, 301.5 78.5 Q 300.7 79.5, 299.2 79.5 Q 297.7 79.5, 296.8 78.5 Q 296.0 77.6, 296.0 75.9 M 299.2 78.7 Q 300.3 78.7, 300.8 78.0 Q 301.4 77.3, 301.4 75.9 Q 301.4 74.5, 300.8 73.9 Q 300.3 73.2, 299.2 73.2 Q 298.1 73.2, 297.6 73.8 Q 297.0 74.5, 297.0 75.9 Q 297.0 77.3, 297.6 78.0 Q 298.1 78.7, 299.2 78.7 " fill="#000000"/>
<path class="atom-22" d="M 312.6 117.8 Q 312.6 117.8, 313.0 118.0 Q 313.3 118.1, 313.6 118.2 Q 314.0 118.3, 314.4 118.3 Q 315.0 118.3, 315.4 118.0 Q 315.8 117.6, 315.8 117.1 Q 315.8 116.7, 315.6 116.5 Q 315.4 116.2, 315.1 116.1 Q 314.8 116.0, 314.3 115.8 Q 313.7 115.6, 313.3 115.5 Q 313.0 115.3, 312.7 114.9 Q 312.4 114.5, 312.4 113.9 Q 312.4 113.0, 313.0 112.5 Q 313.6 112.0, 314.8 112.0 Q 315.6 112.0, 316.5 112.3 L 316.3 113.1 Q 315.5 112.8, 314.8 112.8 Q 314.2 112.8, 313.8 113.0 Q 313.4 113.3, 313.4 113.8 Q 313.4 114.2, 313.6 114.4 Q 313.8 114.6, 314.1 114.7 Q 314.4 114.9, 314.8 115.0 Q 315.5 115.2, 315.8 115.4 Q 316.2 115.6, 316.5 116.0 Q 316.7 116.4, 316.7 117.1 Q 316.7 118.0, 316.1 118.6 Q 315.5 119.1, 314.4 119.1 Q 313.8 119.1, 313.3 118.9 Q 312.8 118.8, 312.3 118.6 L 312.6 117.8 " fill="#000000"/>
<path class="atom-28" d="M 301.7 184.5 L 304.0 188.2 Q 304.2 188.6, 304.6 189.2 Q 305.0 189.9, 305.0 189.9 L 305.0 184.5 L 305.9 184.5 L 305.9 191.5 L 304.9 191.5 L 302.5 187.5 Q 302.2 187.0, 301.9 186.4 Q 301.6 185.9, 301.5 185.7 L 301.5 191.5 L 300.6 191.5 L 300.6 184.5 L 301.7 184.5 " fill="#000000"/>
<path class="atom-30" d="M 327.8 151.5 L 331.9 151.5 L 331.9 152.3 L 328.7 152.3 L 328.7 154.4 L 331.6 154.4 L 331.6 155.2 L 328.7 155.2 L 328.7 158.4 L 327.8 158.4 L 327.8 151.5 " fill="#000000"/>
<path class="bond-0 atom-0 atom-1" d="M 708.9,127.1 L 657.6,105.2" style="fill:none;fill-rule:evenodd;stroke:#000000;stroke-width:2.0px;stroke-linecap:butt;stroke-linejoin:miter;stroke-opacity:1"/>
<path class="bond-1 atom-1 atom-2" d="M 657.6,105.2 L 605.0,144.8" style="fill:none;fill-rule:evenodd;stroke:#000000;stroke-width:2.0px;stroke-linecap:butt;stroke-linejoin:miter;stroke-opacity:1"/>
<path class="bond-2 atom-2 atom-3" d="M 605.0,144.8 L 553.8,122.9" style="fill:none;fill-rule:evenodd;stroke:#000000;stroke-width:2.0px;stroke-linecap:butt;stroke-linejoin:miter;stroke-opacity:1"/>
<path class="atom-0" d="M 714.0 121.7 L 720.1 131.5 Q 720.7 132.5, 721.7 134.3 Q 722.6 136.0, 722.7 136.1 L 722.7 121.7 L 725.2 121.7 L 725.2 140.3 L 722.6 140.3 L 716.1 129.5 Q 715.3 128.2, 714.5 126.8 Q 713.7 125.4, 713.4 124.9 L 713.4 140.3 L 711.0 140.3 L 711.0 121.7 L 714.0 121.7 " fill="#000000"/>
<path class="atom-0" d="M 727.3 124.8 L 733.7 124.8 L 733.7 126.1 L 727.3 126.1 L 727.3 124.8 " fill="#000000"/>
<path class="atom-3" d="M 511.4 109.7 L 513.9 109.7 L 513.9 117.6 L 523.4 117.6 L 523.4 109.7 L 525.9 109.7 L 525.9 128.3 L 523.4 128.3 L 523.4 119.7 L 513.9 119.7 L 513.9 128.3 L 511.4 128.3 L 511.4 109.7 " fill="#000000"/>
<path class="atom-3" d="M 528.2 127.7 Q 528.7 126.5, 529.7 125.9 Q 530.8 125.2, 532.3 125.2 Q 534.2 125.2, 535.2 126.2 Q 536.2 127.2, 536.2 129.0 Q 536.2 130.8, 534.9 132.5 Q 533.5 134.2, 530.8 136.2 L 536.4 136.2 L 536.4 137.6 L 528.2 137.6 L 528.2 136.5 Q 530.5 134.8, 531.8 133.6 Q 533.2 132.4, 533.8 131.3 Q 534.5 130.2, 534.5 129.1 Q 534.5 127.9, 533.9 127.3 Q 533.3 126.6, 532.3 126.6 Q 531.3 126.6, 530.7 127.0 Q 530.0 127.4, 529.5 128.3 L 528.2 127.7 " fill="#000000"/>
<path class="atom-3" d="M 540.4 109.7 L 546.5 119.6 Q 547.1 120.5, 548.1 122.3 Q 549.1 124.1, 549.1 124.2 L 549.1 109.7 L 551.6 109.7 L 551.6 128.3 L 549.1 128.3 L 542.5 117.5 Q 541.8 116.3, 540.9 114.8 Q 540.1 113.4, 539.9 112.9 L 539.9 128.3 L 537.5 128.3 L 537.5 109.7 L 540.4 109.7 " fill="#000000"/>
<path class="atom-0" d="M 739.0,131.0 L 739.0,131.1 L 738.9,131.2 L 738.9,131.3 L 738.9,131.4 L 738.8,131.5 L 738.8,131.6 L 738.7,131.7 L 738.7,131.8 L 738.6,131.9 L 738.5,132.0 L 738.4,132.1 L 738.3,132.1 L 738.2,132.2 L 738.1,132.2 L 738.0,132.2 L 737.9,132.3 L 737.8,132.3 L 737.7,132.3 L 737.6,132.3 L 737.5,132.3 L 737.3,132.3 L 737.2,132.2 L 737.1,132.2 L 737.0,132.1 L 736.9,132.1 L 736.8,132.0 L 736.8,131.9 L 736.7,131.9 L 736.6,131.8 L 736.5,131.7 L 736.5,131.6 L 736.4,131.5 L 736.4,131.4 L 736.4,131.3 L 736.3,131.2 L 736.3,131.0 L 736.3,130.9 L 736.3,130.8 L 736.4,130.7 L 736.4,130.6 L 736.4,130.5 L 736.5,130.4 L 736.5,130.3 L 736.6,130.2 L 736.7,130.1 L 736.8,130.0 L 736.8,129.9 L 736.9,129.9 L 737.0,129.8 L 737.1,129.8 L 737.2,129.7 L 737.3,129.7 L 737.5,129.7 L 737.6,129.7 L 737.7,129.7 L 737.8,129.7 L 737.9,129.7 L 738.0,129.7 L 738.1,129.8 L 738.2,129.8 L 738.3,129.9 L 738.4,129.9 L 738.5,130.0 L 738.6,130.1 L 738.7,130.1 L 738.7,130.2 L 738.8,130.3 L 738.8,130.4 L 738.9,130.5 L 738.9,130.6 L 738.9,130.8 L 739.0,130.9 L 739.0,131.0 L 737.7,131.0 Z" style="fill:#000000;fill-rule:evenodd;fill-opacity:1;stroke:#000000;stroke-width:0.0px;stroke-linecap:butt;stroke-linejoin:miter;stroke-opacity:1;"/>
<path class="bond-0 atom-0 atom-1" d="M 74.1,411.5 L 56.3,398.4" style="fill:none;fill-rule:evenodd;stroke:#000000;stroke-width:2.0px;stroke-linecap:butt;stroke-linejoin:miter;stroke-opacity:1"/>
<path class="bond-1 atom-1 atom-2" d="M 56.3,398.4 L 32.4,409.0" style="fill:none;fill-rule:evenodd;stroke:#000000;stroke-width:2.0px;stroke-linecap:butt;stroke-linejoin:miter;stroke-opacity:1"/>
<path class="bond-1 atom-1 atom-2" d="M 50.6,395.3 L 33.9,402.7" style="fill:none;fill-rule:evenodd;stroke:#000000;stroke-width:2.0px;stroke-linecap:butt;stroke-linejoin:miter;stroke-opacity:1"/>
<path class="bond-2 atom-2 atom-3" d="M 32.4,409.0 L 11.4,393.6" style="fill:none;fill-rule:evenodd;stroke:#000000;stroke-width:2.0px;stroke-linecap:butt;stroke-linejoin:miter;stroke-opacity:1"/>
<path class="bond-3 atom-3 atom-4" d="M 11.4,393.6 L 14.1,367.7" style="fill:none;fill-rule:evenodd;stroke:#000000;stroke-width:2.0px;stroke-linecap:butt;stroke-linejoin:miter;stroke-opacity:1"/>
<path class="bond-3 atom-3 atom-4" d="M 17.0,390.3 L 18.9,372.2" style="fill:none;fill-rule:evenodd;stroke:#000000;stroke-width:2.0px;stroke-linecap:butt;stroke-linejoin:miter;stroke-opacity:1"/>
<path class="bond-4 atom-4 atom-5" d="M 14.1,367.7 L 38.0,357.2" style="fill:none;fill-rule:evenodd;stroke:#000000;stroke-width:2.0px;stroke-linecap:butt;stroke-linejoin:miter;stroke-opacity:1"/>
<path class="bond-5 atom-5 atom-6" d="M 38.0,357.2 L 59.0,372.5" style="fill:none;fill-rule:evenodd;stroke:#000000;stroke-width:2.0px;stroke-linecap:butt;stroke-linejoin:miter;stroke-opacity:1"/>
<path class="bond-5 atom-5 atom-6" d="M 38.1,363.7 L 52.8,374.4" style="fill:none;fill-rule:evenodd;stroke:#000000;stroke-width:2.0px;stroke-linecap:butt;stroke-linejoin:miter;stroke-opacity:1"/>
<path class="bond-6 atom-6 atom-7" d="M 59.0,372.5 L 82.9,362.0" style="fill:none;fill-rule:evenodd;stroke:#000000;stroke-width:2.0px;stroke-linecap:butt;stroke-linejoin:miter;stroke-opacity:1"/>
<path class="bond-7 atom-7 atom-8" d="M 80.3,361.7 L 82.5,340.5" style="fill:none;fill-rule:evenodd;stroke:#000000;stroke-width:2.0px;stroke-linecap:butt;stroke-linejoin:miter;stroke-opacity:1"/>
<path class="bond-7 atom-7 atom-8" d="M 85.5,362.2 L 87.7,341.0" style="fill:none;fill-rule:evenodd;stroke:#000000;stroke-width:2.0px;stroke-linecap:butt;stroke-linejoin:miter;stroke-opacity:1"/>
<path class="bond-8 atom-7 atom-9" d="M 82.9,362.0 L 100.3,374.7" style="fill:none;fill-rule:evenodd;stroke:#000000;stroke-width:2.0px;stroke-linecap:butt;stroke-linejoin:miter;stroke-opacity:1"/>
<path class="bond-9 atom-9 atom-10" d="M 107.6,375.7 L 127.8,366.8" style="fill:none;fill-rule:evenodd;stroke:#000000;stroke-width:2.0px;stroke-linecap:butt;stroke-linejoin:miter;stroke-opacity:1"/>
<path class="bond-10 atom-10 atom-11" d="M 127.8,366.8 L 148.8,382.1" style="fill:none;fill-rule:evenodd;stroke:#000000;stroke-width:2.0px;stroke-linecap:butt;stroke-linejoin:miter;stroke-opacity:1"/>
<path class="bond-11 atom-11 atom-12" d="M 148.8,382.1 L 172.7,371.6" style="fill:none;fill-rule:evenodd;stroke:#000000;stroke-width:2.0px;stroke-linecap:butt;stroke-linejoin:miter;stroke-opacity:1"/>
<path class="bond-12 atom-12 atom-13" d="M 172.7,371.6 L 193.7,386.9" style="fill:none;fill-rule:evenodd;stroke:#000000;stroke-width:2.0px;stroke-linecap:butt;stroke-linejoin:miter;stroke-opacity:1"/>
<path class="bond-13 atom-13 atom-14" d="M 193.7,386.9 L 217.6,376.4" style="fill:none;fill-rule:evenodd;stroke:#000000;stroke-width:2.0px;stroke-linecap:butt;stroke-linejoin:miter;stroke-opacity:1"/>
<path class="bond-14 atom-14 atom-15" d="M 217.6,376.4 L 238.6,391.7" style="fill:none;fill-rule:evenodd;stroke:#000000;stroke-width:2.0px;stroke-linecap:butt;stroke-linejoin:miter;stroke-opacity:1"/>
<path class="bond-15 atom-6 atom-1" d="M 59.0,372.5 L 56.3,398.4" style="fill:none;fill-rule:evenodd;stroke:#000000;stroke-width:2.0px;stroke-linecap:butt;stroke-linejoin:miter;stroke-opacity:1"/>
<path class="atom-0" d="M 75.2 416.3 Q 75.3 416.4, 75.7 416.5 Q 76.0 416.7, 76.4 416.8 Q 76.8 416.8, 77.2 416.8 Q 77.8 416.8, 78.3 416.5 Q 78.7 416.2, 78.7 415.6 Q 78.7 415.2, 78.5 414.9 Q 78.3 414.7, 77.9 414.5 Q 77.6 414.4, 77.1 414.2 Q 76.5 414.0, 76.1 413.9 Q 75.7 413.7, 75.4 413.3 Q 75.1 412.9, 75.1 412.2 Q 75.1 411.3, 75.7 410.7 Q 76.4 410.1, 77.6 410.1 Q 78.5 410.1, 79.5 410.5 L 79.2 411.3 Q 78.3 411.0, 77.7 411.0 Q 76.9 411.0, 76.5 411.3 Q 76.1 411.6, 76.2 412.1 Q 76.2 412.5, 76.4 412.7 Q 76.6 413.0, 76.9 413.1 Q 77.2 413.2, 77.7 413.4 Q 78.3 413.6, 78.7 413.8 Q 79.1 414.0, 79.4 414.4 Q 79.7 414.9, 79.7 415.6 Q 79.7 416.6, 79.0 417.1 Q 78.3 417.7, 77.2 417.7 Q 76.5 417.7, 76.0 417.5 Q 75.5 417.4, 75.0 417.2 L 75.2 416.3 " fill="#000000"/>
<path class="atom-8" d="M 82.3 336.1 Q 82.3 334.3, 83.1 333.3 Q 84.0 332.3, 85.6 332.3 Q 87.3 332.3, 88.2 333.3 Q 89.0 334.3, 89.0 336.1 Q 89.0 337.9, 88.1 338.9 Q 87.3 339.9, 85.6 339.9 Q 84.0 339.9, 83.1 338.9 Q 82.3 337.9, 82.3 336.1 M 85.6 339.1 Q 86.8 339.1, 87.4 338.3 Q 88.0 337.5, 88.0 336.1 Q 88.0 334.6, 87.4 333.9 Q 86.8 333.1, 85.6 333.1 Q 84.5 333.1, 83.9 333.9 Q 83.3 334.6, 83.3 336.1 Q 83.3 337.6, 83.9 338.3 Q 84.5 339.1, 85.6 339.1 " fill="#000000"/>
<path class="atom-9" d="M 102.3 373.6 L 104.7 377.5 Q 105.0 377.9, 105.3 378.6 Q 105.7 379.3, 105.8 379.4 L 105.8 373.6 L 106.7 373.6 L 106.7 381.0 L 105.7 381.0 L 103.1 376.7 Q 102.8 376.2, 102.5 375.7 Q 102.2 375.1, 102.1 374.9 L 102.1 381.0 L 101.1 381.0 L 101.1 373.6 L 102.3 373.6 " fill="#000000"/>
<path class="atom-9" d="M 101.0 381.8 L 102.0 381.8 L 102.0 384.9 L 105.8 384.9 L 105.8 381.8 L 106.8 381.8 L 106.8 389.1 L 105.8 389.1 L 105.8 385.7 L 102.0 385.7 L 102.0 389.1 L 101.0 389.1 L 101.0 381.8 " fill="#000000"/>
<path class="atom-0" d="M 81.8,413.8 L 81.8,413.9 L 81.8,413.9 L 81.8,413.9 L 81.7,414.0 L 81.7,414.0 L 81.7,414.1 L 81.7,414.1 L 81.7,414.1 L 81.6,414.2 L 81.6,414.2 L 81.6,414.2 L 81.5,414.3 L 81.5,414.3 L 81.4,414.3 L 81.4,414.3 L 81.4,414.3 L 81.3,414.3 L 81.3,414.3 L 81.2,414.3 L 81.2,414.3 L 81.1,414.3 L 81.1,414.3 L 81.1,414.3 L 81.0,414.3 L 81.0,414.2 L 80.9,414.2 L 80.9,414.2 L 80.9,414.2 L 80.8,414.1 L 80.8,414.1 L 80.8,414.0 L 80.8,414.0 L 80.8,414.0 L 80.7,413.9 L 80.7,413.9 L 80.7,413.8 L 80.7,413.8 L 80.7,413.7 L 80.7,413.7 L 80.8,413.7 L 80.8,413.6 L 80.8,413.6 L 80.8,413.5 L 80.8,413.5 L 80.9,413.5 L 80.9,413.4 L 80.9,413.4 L 81.0,413.4 L 81.0,413.4 L 81.1,413.3 L 81.1,413.3 L 81.1,413.3 L 81.2,413.3 L 81.2,413.3 L 81.3,413.3 L 81.3,413.3 L 81.4,413.3 L 81.4,413.3 L 81.4,413.3 L 81.5,413.3 L 81.5,413.4 L 81.6,413.4 L 81.6,413.4 L 81.6,413.4 L 81.7,413.5 L 81.7,413.5 L 81.7,413.6 L 81.7,413.6 L 81.7,413.6 L 81.8,413.7 L 81.8,413.7 L 81.8,413.8 L 81.8,413.8 L 81.3,413.8 Z" style="fill:#000000;fill-rule:evenodd;fill-opacity:1;stroke:#000000;stroke-width:0.0px;stroke-linecap:butt;stroke-linejoin:miter;stroke-opacity:1;"/>
<path class="bond-0 atom-0 atom-1" d="M 277.4,351.1 L 318.9,357.8" style="fill:none;fill-rule:evenodd;stroke:#000000;stroke-width:2.0px;stroke-linecap:butt;stroke-linejoin:miter;stroke-opacity:1"/>
<path class="bond-1 atom-1 atom-2" d="M 318.9,357.8 L 336.9,322.7" style="fill:none;fill-rule:evenodd;stroke:#000000;stroke-width:2.0px;stroke-linecap:butt;stroke-linejoin:miter;stroke-opacity:1"/>
<path class="bond-2 atom-2 atom-3" d="M 348.3,314.0 L 406.6,313.5" style="fill:none;fill-rule:evenodd;stroke:#000000;stroke-width:2.0px;stroke-linecap:butt;stroke-linejoin:miter;stroke-opacity:1"/>
<path class="bond-3 atom-3 atom-4" d="M 406.6,313.5 L 393.7,360.9" style="fill:none;fill-rule:evenodd;stroke:#000000;stroke-width:2.0px;stroke-linecap:butt;stroke-linejoin:miter;stroke-opacity:1"/>
<path class="bond-3 atom-3 atom-4" d="M 414.1,323.2 L 405.1,356.4" style="fill:none;fill-rule:evenodd;stroke:#000000;stroke-width:2.0px;stroke-linecap:butt;stroke-linejoin:miter;stroke-opacity:1"/>
<path class="bond-4 atom-4 atom-5" d="M 393.7,360.9 L 428.3,395.8" style="fill:none;fill-rule:evenodd;stroke:#000000;stroke-width:2.0px;stroke-linecap:butt;stroke-linejoin:miter;stroke-opacity:1"/>
<path class="bond-5 atom-5 atom-6" d="M 428.3,395.8 L 475.8,383.2" style="fill:none;fill-rule:evenodd;stroke:#000000;stroke-width:2.0px;stroke-linecap:butt;stroke-linejoin:miter;stroke-opacity:1"/>
<path class="bond-5 atom-5 atom-6" d="M 432.9,384.4 L 466.1,375.6" style="fill:none;fill-rule:evenodd;stroke:#000000;stroke-width:2.0px;stroke-linecap:butt;stroke-linejoin:miter;stroke-opacity:1"/>
<path class="bond-6 atom-6 atom-7" d="M 475.8,383.2 L 488.6,335.8" style="fill:none;fill-rule:evenodd;stroke:#000000;stroke-width:2.0px;stroke-linecap:butt;stroke-linejoin:miter;stroke-opacity:1"/>
<path class="bond-7 atom-7 atom-8" d="M 488.6,335.8 L 454.0,301.0" style="fill:none;fill-rule:evenodd;stroke:#000000;stroke-width:2.0px;stroke-linecap:butt;stroke-linejoin:miter;stroke-opacity:1"/>
<path class="bond-7 atom-7 atom-8" d="M 476.5,337.5 L 452.3,313.1" style="fill:none;fill-rule:evenodd;stroke:#000000;stroke-width:2.0px;stroke-linecap:butt;stroke-linejoin:miter;stroke-opacity:1"/>
<path class="bond-8 atom-1 atom-9" d="M 318.9,357.8 L 325.0,397.6" style="fill:none;fill-rule:evenodd;stroke:#000000;stroke-width:2.0px;stroke-linecap:butt;stroke-linejoin:miter;stroke-opacity:1"/>
<path class="bond-9 atom-9 atom-10" d="M 334.4,414.4 L 361.0,441.2" style="fill:none;fill-rule:evenodd;stroke:#000000;stroke-width:2.0px;stroke-linecap:butt;stroke-linejoin:miter;stroke-opacity:1"/>
<path class="bond-10 atom-10 atom-11" d="M 361.0,441.2 L 409.5,449.0" style="fill:none;fill-rule:evenodd;stroke:#000000;stroke-width:2.0px;stroke-linecap:butt;stroke-linejoin:miter;stroke-opacity:1"/>
<path class="bond-11 atom-11 atom-12" d="M 409.5,449.0 L 445.3,431.0" style="fill:none;fill-rule:evenodd;stroke:#000000;stroke-width:2.0px;stroke-linecap:butt;stroke-linejoin:miter;stroke-opacity:1"/>
<path class="bond-12 atom-8 atom-3" d="M 454.0,301.0 L 406.6,313.5" style="fill:none;fill-rule:evenodd;stroke:#000000;stroke-width:2.0px;stroke-linecap:butt;stroke-linejoin:miter;stroke-opacity:1"/>
<path class="bond-13 atom-12 atom-6" d="M 457.8,418.2 L 475.8,383.2" style="fill:none;fill-rule:evenodd;stroke:#000000;stroke-width:2.0px;stroke-linecap:butt;stroke-linejoin:miter;stroke-opacity:1"/>
<path class="atom-0" d="M 265.0 350.0 Q 265.0 346.5, 266.7 344.7 Q 268.3 342.9, 271.4 342.9 Q 274.2 342.9, 275.8 344.9 L 274.5 346.0 Q 273.4 344.5, 271.4 344.5 Q 269.3 344.5, 268.2 345.9 Q 267.1 347.3, 267.1 350.0 Q 267.1 352.7, 268.2 354.2 Q 269.3 355.6, 271.6 355.6 Q 273.1 355.6, 274.9 354.6 L 275.5 356.1 Q 274.7 356.6, 273.6 356.9 Q 272.5 357.1, 271.3 357.1 Q 268.3 357.1, 266.7 355.3 Q 265.0 353.4, 265.0 350.0 " fill="#000000"/>
<path class="atom-0" d="M 276.6 345.2 L 281.3 345.2 L 281.3 346.2 L 276.6 346.2 L 276.6 345.2 " fill="#000000"/>
<path class="atom-2" d="M 323.5 307.2 L 325.4 307.2 L 325.4 313.1 L 332.5 313.1 L 332.5 307.2 L 334.4 307.2 L 334.4 321.1 L 332.5 321.1 L 332.5 314.6 L 325.4 314.6 L 325.4 321.1 L 323.5 321.1 L 323.5 307.2 " fill="#000000"/>
<path class="atom-2" d="M 338.3 307.2 L 342.8 314.5 Q 343.3 315.2, 344.0 316.6 Q 344.7 317.9, 344.8 318.0 L 344.8 307.2 L 346.6 307.2 L 346.6 321.1 L 344.7 321.1 L 339.8 313.0 Q 339.2 312.1, 338.6 311.0 Q 338.0 309.9, 337.9 309.6 L 337.9 321.1 L 336.1 321.1 L 336.1 307.2 L 338.3 307.2 " fill="#000000"/>
<path class="atom-9" d="M 320.0 406.4 Q 320.0 403.0, 321.7 401.1 Q 323.3 399.3, 326.4 399.3 Q 329.5 399.3, 331.1 401.1 Q 332.8 403.0, 332.8 406.4 Q 332.8 409.7, 331.1 411.7 Q 329.4 413.6, 326.4 413.6 Q 323.3 413.6, 321.7 411.7 Q 320.0 409.8, 320.0 406.4 M 326.4 412.0 Q 328.5 412.0, 329.7 410.6 Q 330.8 409.1, 330.8 406.4 Q 330.8 403.6, 329.7 402.2 Q 328.5 400.9, 326.4 400.9 Q 324.3 400.9, 323.1 402.2 Q 322.0 403.6, 322.0 406.4 Q 322.0 409.2, 323.1 410.6 Q 324.3 412.0, 326.4 412.0 " fill="#000000"/>
<path class="atom-12" d="M 446.9 426.9 Q 446.9 423.6, 448.6 421.7 Q 450.2 419.9, 453.3 419.9 Q 456.4 419.9, 458.0 421.7 Q 459.7 423.6, 459.7 426.9 Q 459.7 430.3, 458.0 432.2 Q 456.3 434.1, 453.3 434.1 Q 450.2 434.1, 448.6 432.2 Q 446.9 430.3, 446.9 426.9 M 453.3 432.6 Q 455.4 432.6, 456.6 431.2 Q 457.7 429.7, 457.7 426.9 Q 457.7 424.2, 456.6 422.8 Q 455.4 421.4, 453.3 421.4 Q 451.2 421.4, 450.0 422.8 Q 448.9 424.2, 448.9 426.9 Q 448.9 429.7, 450.0 431.2 Q 451.2 432.6, 453.3 432.6 " fill="#000000"/>
<path class="atom-0" d="M 263.1,349.9 L 263.1,350.0 L 263.1,350.1 L 263.0,350.2 L 263.0,350.3 L 263.0,350.3 L 263.0,350.4 L 262.9,350.5 L 262.9,350.6 L 262.8,350.6 L 262.7,350.7 L 262.7,350.7 L 262.6,350.8 L 262.5,350.8 L 262.5,350.8 L 262.4,350.9 L 262.3,350.9 L 262.2,350.9 L 262.1,350.9 L 262.0,350.9 L 262.0,350.9 L 261.9,350.9 L 261.8,350.9 L 261.7,350.8 L 261.6,350.8 L 261.6,350.7 L 261.5,350.7 L 261.4,350.6 L 261.4,350.6 L 261.3,350.5 L 261.3,350.4 L 261.2,350.4 L 261.2,350.3 L 261.2,350.2 L 261.1,350.1 L 261.1,350.1 L 261.1,350.0 L 261.1,349.9 L 261.1,349.8 L 261.1,349.7 L 261.2,349.6 L 261.2,349.6 L 261.2,349.5 L 261.3,349.4 L 261.3,349.3 L 261.4,349.3 L 261.4,349.2 L 261.5,349.2 L 261.6,349.1 L 261.6,349.1 L 261.7,349.0 L 261.8,349.0 L 261.9,349.0 L 262.0,349.0 L 262.0,348.9 L 262.1,348.9 L 262.2,349.0 L 262.3,349.0 L 262.4,349.0 L 262.5,349.0 L 262.5,349.0 L 262.6,349.1 L 262.7,349.1 L 262.7,349.2 L 262.8,349.2 L 262.9,349.3 L 262.9,349.4 L 263.0,349.4 L 263.0,349.5 L 263.0,349.6 L 263.0,349.7 L 263.1,349.8 L 263.1,349.8 L 263.1,349.9 L 262.1,349.9 Z" style="fill:#000000;fill-rule:evenodd;fill-opacity:1;stroke:#000000;stroke-width:0.0px;stroke-linecap:butt;stroke-linejoin:miter;stroke-opacity:1;"/>
<path class="bond-0 atom-0 atom-1" d="M 554.1,445.0 L 614.9,409.9" style="fill:none;fill-rule:evenodd;stroke:#000000;stroke-width:2.0px;stroke-linecap:butt;stroke-linejoin:miter;stroke-opacity:1"/>
<path class="bond-1 atom-1 atom-2" d="M 645.9,400.3 L 712.8,438.9" style="fill:none;fill-rule:evenodd;stroke:#000000;stroke-width:2.0px;stroke-linecap:butt;stroke-linejoin:miter;stroke-opacity:1"/>
<path class="bond-1 atom-1 atom-2" d="M 634.8,419.6 L 701.7,458.2" style="fill:none;fill-rule:evenodd;stroke:#000000;stroke-width:2.0px;stroke-linecap:butt;stroke-linejoin:miter;stroke-opacity:1"/>
<path class="bond-2 atom-1 atom-3" d="M 616.5,384.8 L 616.5,309.8" style="fill:none;fill-rule:evenodd;stroke:#000000;stroke-width:2.0px;stroke-linecap:butt;stroke-linejoin:miter;stroke-opacity:1"/>
<path class="bond-2 atom-1 atom-3" d="M 638.7,384.8 L 638.7,309.8" style="fill:none;fill-rule:evenodd;stroke:#000000;stroke-width:2.0px;stroke-linecap:butt;stroke-linejoin:miter;stroke-opacity:1"/>
<path class="atom-0" d="M 525.1 444.0 L 534.4 459.0 Q 535.3 460.5, 536.8 463.2 Q 538.2 465.8, 538.3 466.0 L 538.3 444.0 L 542.1 444.0 L 542.1 472.3 L 538.2 472.3 L 528.2 455.9 Q 527.1 454.0, 525.8 451.8 Q 524.6 449.6, 524.3 448.9 L 524.3 472.3 L 520.6 472.3 L 520.6 444.0 L 525.1 444.0 " fill="#000000"/>
<path class="atom-0" d="M 545.4 448.7 L 555.1 448.7 L 555.1 450.8 L 545.4 450.8 L 545.4 448.7 " fill="#000000"/>
<path class="atom-1" d="M 619.6 412.3 Q 619.9 412.4, 621.3 413.0 Q 622.6 413.5, 624.0 413.9 Q 625.5 414.2, 626.9 414.2 Q 629.6 414.2, 631.2 412.9 Q 632.7 411.6, 632.7 409.3 Q 632.7 407.8, 631.9 406.8 Q 631.2 405.9, 630.0 405.3 Q 628.8 404.8, 626.8 404.2 Q 624.3 403.5, 622.7 402.7 Q 621.3 402.0, 620.2 400.5 Q 619.1 399.0, 619.1 396.4 Q 619.1 392.9, 621.5 390.7 Q 624.0 388.5, 628.8 388.5 Q 632.1 388.5, 635.8 390.0 L 634.9 393.1 Q 631.5 391.7, 628.9 391.7 Q 626.1 391.7, 624.6 392.9 Q 623.1 394.0, 623.1 395.9 Q 623.1 397.5, 623.9 398.4 Q 624.7 399.3, 625.8 399.8 Q 627.0 400.3, 628.9 400.9 Q 631.5 401.7, 633.0 402.5 Q 634.5 403.3, 635.6 405.0 Q 636.7 406.6, 636.7 409.3 Q 636.7 413.3, 634.1 415.4 Q 631.5 417.5, 627.1 417.5 Q 624.6 417.5, 622.7 416.9 Q 620.8 416.4, 618.5 415.5 L 619.6 412.3 " fill="#000000"/>
<path class="atom-1" d="M 616.5 420.3 L 620.4 420.3 L 620.4 432.4 L 634.9 432.4 L 634.9 420.3 L 638.7 420.3 L 638.7 448.6 L 634.9 448.6 L 634.9 435.6 L 620.4 435.6 L 620.4 448.6 L 616.5 448.6 L 616.5 420.3 " fill="#000000"/>
<path class="atom-2" d="M 710.9 458.2 Q 710.9 451.4, 714.3 447.6 Q 717.6 443.8, 723.9 443.8 Q 730.2 443.8, 733.5 447.6 Q 736.9 451.4, 736.9 458.2 Q 736.9 465.1, 733.5 469.0 Q 730.1 472.9, 723.9 472.9 Q 717.7 472.9, 714.3 469.0 Q 710.9 465.2, 710.9 458.2 M 723.9 469.7 Q 728.2 469.7, 730.5 466.8 Q 732.9 463.9, 732.9 458.2 Q 732.9 452.7, 730.5 449.9 Q 728.2 447.0, 723.9 447.0 Q 719.6 447.0, 717.2 449.8 Q 714.9 452.6, 714.9 458.2 Q 714.9 464.0, 717.2 466.8 Q 719.6 469.7, 723.9 469.7 " fill="#000000"/>
<path class="atom-3" d="M 614.6 291.5 Q 614.6 284.7, 618.0 280.9 Q 621.3 277.1, 627.6 277.1 Q 633.9 277.1, 637.3 280.9 Q 640.6 284.7, 640.6 291.5 Q 640.6 298.4, 637.2 302.3 Q 633.8 306.2, 627.6 306.2 Q 621.4 306.2, 618.0 302.3 Q 614.6 298.4, 614.6 291.5 M 627.6 303.0 Q 631.9 303.0, 634.3 300.1 Q 636.6 297.2, 636.6 291.5 Q 636.6 285.9, 634.3 283.1 Q 631.9 280.3, 627.6 280.3 Q 623.3 280.3, 620.9 283.1 Q 618.6 285.9, 618.6 291.5 Q 618.6 297.2, 620.9 300.1 Q 623.3 303.0, 627.6 303.0 " fill="#000000"/>
<path class="atom-0" d="M 516.6,458.2 L 516.6,458.3 L 516.6,458.5 L 516.5,458.7 L 516.5,458.8 L 516.4,459.0 L 516.3,459.1 L 516.3,459.3 L 516.2,459.4 L 516.0,459.6 L 515.9,459.7 L 515.8,459.8 L 515.6,459.9 L 515.5,460.0 L 515.3,460.0 L 515.2,460.1 L 515.0,460.1 L 514.8,460.1 L 514.7,460.2 L 514.5,460.2 L 514.3,460.1 L 514.1,460.1 L 514.0,460.1 L 513.8,460.0 L 513.7,459.9 L 513.5,459.8 L 513.4,459.7 L 513.2,459.6 L 513.1,459.5 L 513.0,459.4 L 512.9,459.2 L 512.8,459.1 L 512.8,458.9 L 512.7,458.7 L 512.7,458.6 L 512.6,458.4 L 512.6,458.2 L 512.6,458.1 L 512.6,457.9 L 512.7,457.7 L 512.7,457.6 L 512.8,457.4 L 512.8,457.2 L 512.9,457.1 L 513.0,457.0 L 513.1,456.8 L 513.2,456.7 L 513.4,456.6 L 513.5,456.5 L 513.7,456.4 L 513.8,456.3 L 514.0,456.3 L 514.1,456.2 L 514.3,456.2 L 514.5,456.2 L 514.7,456.2 L 514.8,456.2 L 515.0,456.2 L 515.2,456.2 L 515.3,456.3 L 515.5,456.4 L 515.6,456.4 L 515.8,456.5 L 515.9,456.6 L 516.0,456.8 L 516.2,456.9 L 516.3,457.0 L 516.3,457.2 L 516.4,457.3 L 516.5,457.5 L 516.5,457.6 L 516.6,457.8 L 516.6,458.0 L 516.6,458.2 L 514.6,458.2 Z" style="fill:#000000;fill-rule:evenodd;fill-opacity:1;stroke:#000000;stroke-width:0.0px;stroke-linecap:butt;stroke-linejoin:miter;stroke-opacity:1;"/>
<path class="bond-0 atom-0 atom-1" d="M 21.5,654.3 L 33.8,640.4" style="fill:none;fill-rule:evenodd;stroke:#000000;stroke-width:2.0px;stroke-linecap:butt;stroke-linejoin:miter;stroke-opacity:1"/>
<path class="bond-0 atom-0 atom-1" d="M 25.0,657.5 L 37.3,643.5" style="fill:none;fill-rule:evenodd;stroke:#000000;stroke-width:2.0px;stroke-linecap:butt;stroke-linejoin:miter;stroke-opacity:1"/>
<path class="bond-1 atom-1 atom-2" d="M 35.6,641.9 L 58.7,646.6" style="fill:none;fill-rule:evenodd;stroke:#000000;stroke-width:2.0px;stroke-linecap:butt;stroke-linejoin:miter;stroke-opacity:1"/>
<path class="bond-2 atom-2 atom-3" d="M 61.0,645.8 L 67.1,664.0" style="fill:none;fill-rule:evenodd;stroke:#000000;stroke-width:2.0px;stroke-linecap:butt;stroke-linejoin:miter;stroke-opacity:1"/>
<path class="bond-2 atom-2 atom-3" d="M 56.5,647.3 L 62.7,665.6" style="fill:none;fill-rule:evenodd;stroke:#000000;stroke-width:2.0px;stroke-linecap:butt;stroke-linejoin:miter;stroke-opacity:1"/>
<path class="bond-3 atom-2 atom-4" d="M 58.7,646.6 L 71.0,632.6" style="fill:none;fill-rule:evenodd;stroke:#000000;stroke-width:2.0px;stroke-linecap:butt;stroke-linejoin:miter;stroke-opacity:1"/>
<path class="bond-4 atom-4 atom-5" d="M 77.7,629.5 L 97.5,633.5" style="fill:none;fill-rule:evenodd;stroke:#000000;stroke-width:2.0px;stroke-linecap:butt;stroke-linejoin:miter;stroke-opacity:1"/>
<path class="bond-5 atom-5 atom-6" d="M 97.5,633.5 L 113.2,615.7" style="fill:none;fill-rule:evenodd;stroke:#000000;stroke-width:2.0px;stroke-linecap:butt;stroke-linejoin:miter;stroke-opacity:1"/>
<path class="bond-6 atom-6 atom-7" d="M 113.2,615.7 L 105.6,593.3" style="fill:none;fill-rule:evenodd;stroke:#000000;stroke-width:2.0px;stroke-linecap:butt;stroke-linejoin:miter;stroke-opacity:1"/>
<path class="bond-7 atom-7 atom-8" d="M 105.6,593.3 L 121.2,575.6" style="fill:none;fill-rule:evenodd;stroke:#000000;stroke-width:2.0px;stroke-linecap:butt;stroke-linejoin:miter;stroke-opacity:1"/>
<path class="bond-8 atom-8 atom-9" d="M 121.2,575.6 L 144.4,580.2" style="fill:none;fill-rule:evenodd;stroke:#000000;stroke-width:2.0px;stroke-linecap:butt;stroke-linejoin:miter;stroke-opacity:1"/>
<path class="bond-9 atom-9 atom-10" d="M 144.4,580.2 L 152.0,602.6" style="fill:none;fill-rule:evenodd;stroke:#000000;stroke-width:2.0px;stroke-linecap:butt;stroke-linejoin:miter;stroke-opacity:1"/>
<path class="bond-10 atom-10 atom-11" d="M 152.0,602.6 L 139.7,616.6" style="fill:none;fill-rule:evenodd;stroke:#000000;stroke-width:2.0px;stroke-linecap:butt;stroke-linejoin:miter;stroke-opacity:1"/>
<path class="bond-11 atom-11 atom-12" d="M 137.7,624.5 L 143.9,642.8" style="fill:none;fill-rule:evenodd;stroke:#000000;stroke-width:2.0px;stroke-linecap:butt;stroke-linejoin:miter;stroke-opacity:1"/>
<path class="bond-12 atom-12 atom-13" d="M 143.9,642.8 L 167.1,647.4" style="fill:none;fill-rule:evenodd;stroke:#000000;stroke-width:2.0px;stroke-linecap:butt;stroke-linejoin:miter;stroke-opacity:1"/>
<path class="bond-13 atom-13 atom-14" d="M 167.1,647.4 L 174.7,669.8" style="fill:none;fill-rule:evenodd;stroke:#000000;stroke-width:2.0px;stroke-linecap:butt;stroke-linejoin:miter;stroke-opacity:1"/>
<path class="bond-13 atom-13 atom-14" d="M 172.7,649.2 L 178.0,664.9" style="fill:none;fill-rule:evenodd;stroke:#000000;stroke-width:2.0px;stroke-linecap:butt;stroke-linejoin:miter;stroke-opacity:1"/>
<path class="bond-14 atom-14 atom-15" d="M 174.7,669.8 L 197.8,674.4" style="fill:none;fill-rule:evenodd;stroke:#000000;stroke-width:2.0px;stroke-linecap:butt;stroke-linejoin:miter;stroke-opacity:1"/>
<path class="bond-15 atom-15 atom-16" d="M 197.8,674.4 L 213.5,656.7" style="fill:none;fill-rule:evenodd;stroke:#000000;stroke-width:2.0px;stroke-linecap:butt;stroke-linejoin:miter;stroke-opacity:1"/>
<path class="bond-15 atom-15 atom-16" d="M 196.6,668.7 L 207.6,656.2" style="fill:none;fill-rule:evenodd;stroke:#000000;stroke-width:2.0px;stroke-linecap:butt;stroke-linejoin:miter;stroke-opacity:1"/>
<path class="bond-16 atom-16 atom-17" d="M 213.5,656.7 L 233.9,660.8" style="fill:none;fill-rule:evenodd;stroke:#000000;stroke-width:2.0px;stroke-linecap:butt;stroke-linejoin:miter;stroke-opacity:1"/>
<path class="bond-17 atom-16 atom-18" d="M 213.5,656.7 L 205.9,634.3" style="fill:none;fill-rule:evenodd;stroke:#000000;stroke-width:2.0px;stroke-linecap:butt;stroke-linejoin:miter;stroke-opacity:1"/>
<path class="bond-18 atom-18 atom-19" d="M 205.9,634.3 L 182.7,629.6" style="fill:none;fill-rule:evenodd;stroke:#000000;stroke-width:2.0px;stroke-linecap:butt;stroke-linejoin:miter;stroke-opacity:1"/>
<path class="bond-18 atom-18 atom-19" d="M 201.5,638.2 L 185.3,635.0" style="fill:none;fill-rule:evenodd;stroke:#000000;stroke-width:2.0px;stroke-linecap:butt;stroke-linejoin:miter;stroke-opacity:1"/>
<path class="bond-19 atom-19 atom-20" d="M 182.7,629.6 L 176.6,611.5" style="fill:none;fill-rule:evenodd;stroke:#000000;stroke-width:2.0px;stroke-linecap:butt;stroke-linejoin:miter;stroke-opacity:1"/>
<path class="bond-20 atom-20 atom-21" d="M 178.1,603.9 L 188.0,592.6" style="fill:none;fill-rule:evenodd;stroke:#000000;stroke-width:2.0px;stroke-linecap:butt;stroke-linejoin:miter;stroke-opacity:1"/>
<path class="bond-21 atom-11 atom-6" d="M 133.0,619.7 L 113.2,615.7" style="fill:none;fill-rule:evenodd;stroke:#000000;stroke-width:2.0px;stroke-linecap:butt;stroke-linejoin:miter;stroke-opacity:1"/>
<path class="bond-22 atom-19 atom-13" d="M 182.7,629.6 L 167.1,647.4" style="fill:none;fill-rule:evenodd;stroke:#000000;stroke-width:2.0px;stroke-linecap:butt;stroke-linejoin:miter;stroke-opacity:1"/>
<path class="atom-0" d="M 11.4 656.3 L 12.3 656.3 L 12.3 659.2 L 15.7 659.2 L 15.7 656.3 L 16.6 656.3 L 16.6 663.0 L 15.7 663.0 L 15.7 659.9 L 12.3 659.9 L 12.3 663.0 L 11.4 663.0 L 11.4 656.3 " fill="#000000"/>
<path class="atom-0" d="M 18.5 656.3 L 20.7 659.9 Q 20.9 660.2, 21.2 660.9 Q 21.6 661.5, 21.6 661.5 L 21.6 656.3 L 22.5 656.3 L 22.5 663.0 L 21.6 663.0 L 19.2 659.1 Q 18.9 658.7, 18.6 658.2 Q 18.4 657.6, 18.3 657.5 L 18.3 663.0 L 17.4 663.0 L 17.4 656.3 L 18.5 656.3 " fill="#000000"/>
<path class="atom-3" d="M 63.2 669.0 Q 63.2 667.4, 64.0 666.5 Q 64.8 665.6, 66.3 665.6 Q 67.8 665.6, 68.6 666.5 Q 69.4 667.4, 69.4 669.0 Q 69.4 670.6, 68.6 671.5 Q 67.8 672.5, 66.3 672.5 Q 64.8 672.5, 64.0 671.5 Q 63.2 670.6, 63.2 669.0 M 66.3 671.7 Q 67.3 671.7, 67.9 671.0 Q 68.4 670.3, 68.4 669.0 Q 68.4 667.7, 67.9 667.0 Q 67.3 666.3, 66.3 666.3 Q 65.3 666.3, 64.7 667.0 Q 64.2 667.7, 64.2 669.0 Q 64.2 670.3, 64.7 671.0 Q 65.3 671.7, 66.3 671.7 " fill="#000000"/>
<path class="atom-4" d="M 72.9 625.5 L 75.1 629.0 Q 75.3 629.4, 75.6 630.0 Q 76.0 630.6, 76.0 630.7 L 76.0 625.5 L 76.9 625.5 L 76.9 632.2 L 76.0 632.2 L 73.6 628.3 Q 73.4 627.8, 73.1 627.3 Q 72.8 626.8, 72.7 626.6 L 72.7 632.2 L 71.8 632.2 L 71.8 625.5 L 72.9 625.5 " fill="#000000"/>
<path class="atom-4" d="M 71.7 618.1 L 72.7 618.1 L 72.7 620.9 L 76.1 620.9 L 76.1 618.1 L 77.0 618.1 L 77.0 624.8 L 76.1 624.8 L 76.1 621.7 L 72.7 621.7 L 72.7 624.8 L 71.7 624.8 L 71.7 618.1 " fill="#000000"/>
<path class="atom-11" d="M 134.9 617.0 L 137.1 620.6 Q 137.3 620.9, 137.6 621.5 Q 138.0 622.2, 138.0 622.2 L 138.0 617.0 L 138.9 617.0 L 138.9 623.7 L 138.0 623.7 L 135.6 619.8 Q 135.3 619.4, 135.0 618.8 Q 134.8 618.3, 134.7 618.2 L 134.7 623.7 L 133.8 623.7 L 133.8 617.0 L 134.9 617.0 " fill="#000000"/>
<path class="atom-17" d="M 234.7 658.0 L 238.6 658.0 L 238.6 658.8 L 235.6 658.8 L 235.6 660.8 L 238.3 660.8 L 238.3 661.6 L 235.6 661.6 L 235.6 664.7 L 234.7 664.7 L 234.7 658.0 " fill="#000000"/>
<path class="atom-20" d="M 173.3 609.5 Q 173.3 609.6, 173.6 609.7 Q 174.0 609.8, 174.3 609.9 Q 174.6 610.0, 175.0 610.0 Q 175.6 610.0, 176.0 609.7 Q 176.4 609.4, 176.4 608.8 Q 176.4 608.5, 176.2 608.2 Q 176.0 608.0, 175.7 607.9 Q 175.4 607.8, 174.9 607.6 Q 174.3 607.5, 174.0 607.3 Q 173.6 607.1, 173.4 606.8 Q 173.1 606.4, 173.1 605.8 Q 173.1 604.9, 173.7 604.4 Q 174.3 603.9, 175.4 603.9 Q 176.2 603.9, 177.1 604.3 L 176.9 605.0 Q 176.1 604.7, 175.4 604.7 Q 174.8 604.7, 174.4 604.9 Q 174.1 605.2, 174.1 605.7 Q 174.1 606.0, 174.3 606.3 Q 174.5 606.5, 174.7 606.6 Q 175.0 606.7, 175.4 606.9 Q 176.1 607.0, 176.4 607.2 Q 176.8 607.4, 177.0 607.8 Q 177.3 608.2, 177.3 608.8 Q 177.3 609.8, 176.7 610.3 Q 176.1 610.8, 175.0 610.8 Q 174.4 610.8, 174.0 610.6 Q 173.5 610.5, 173.0 610.3 L 173.3 609.5 " fill="#000000"/>
<path class="atom-21" d="M 188.8 586.1 L 192.8 586.1 L 192.8 586.9 L 189.7 586.9 L 189.7 588.9 L 192.4 588.9 L 192.4 589.7 L 189.7 589.7 L 189.7 592.8 L 188.8 592.8 L 188.8 586.1 " fill="#000000"/>
<path class="bond-0 atom-0 atom-1" d="M 479.6,622.9 L 488.6,611.2" style="fill:none;fill-rule:evenodd;stroke:#000000;stroke-width:2.0px;stroke-linecap:butt;stroke-linejoin:miter;stroke-opacity:1"/>
<path class="bond-0 atom-0 atom-1" d="M 478.0,618.8 L 484.4,610.7" style="fill:none;fill-rule:evenodd;stroke:#000000;stroke-width:2.0px;stroke-linecap:butt;stroke-linejoin:miter;stroke-opacity:1"/>
<path class="bond-1 atom-1 atom-2" d="M 488.6,611.2 L 481.6,594.1" style="fill:none;fill-rule:evenodd;stroke:#000000;stroke-width:2.0px;stroke-linecap:butt;stroke-linejoin:miter;stroke-opacity:1"/>
<path class="bond-2 atom-2 atom-3" d="M 481.6,594.1 L 463.3,591.6" style="fill:none;fill-rule:evenodd;stroke:#000000;stroke-width:2.0px;stroke-linecap:butt;stroke-linejoin:miter;stroke-opacity:1"/>
<path class="bond-2 atom-2 atom-3" d="M 478.4,597.4 L 465.6,595.6" style="fill:none;fill-rule:evenodd;stroke:#000000;stroke-width:2.0px;stroke-linecap:butt;stroke-linejoin:miter;stroke-opacity:1"/>
<path class="bond-3 atom-3 atom-4" d="M 463.3,591.6 L 452.0,606.2" style="fill:none;fill-rule:evenodd;stroke:#000000;stroke-width:2.0px;stroke-linecap:butt;stroke-linejoin:miter;stroke-opacity:1"/>
<path class="bond-4 atom-4 atom-5" d="M 452.0,606.2 L 459.0,623.3" style="fill:none;fill-rule:evenodd;stroke:#000000;stroke-width:2.0px;stroke-linecap:butt;stroke-linejoin:miter;stroke-opacity:1"/>
<path class="bond-4 atom-4 atom-5" d="M 456.5,607.4 L 461.4,619.3" style="fill:none;fill-rule:evenodd;stroke:#000000;stroke-width:2.0px;stroke-linecap:butt;stroke-linejoin:miter;stroke-opacity:1"/>
<path class="bond-5 atom-5 atom-6" d="M 459.0,623.3 L 447.7,637.9" style="fill:none;fill-rule:evenodd;stroke:#000000;stroke-width:2.0px;stroke-linecap:butt;stroke-linejoin:miter;stroke-opacity:1"/>
<path class="bond-6 atom-6 atom-7" d="M 447.7,637.9 L 454.7,655.1" style="fill:none;fill-rule:evenodd;stroke:#000000;stroke-width:2.0px;stroke-linecap:butt;stroke-linejoin:miter;stroke-opacity:1"/>
<path class="bond-6 atom-6 atom-7" d="M 445.3,641.9 L 450.2,653.9" style="fill:none;fill-rule:evenodd;stroke:#000000;stroke-width:2.0px;stroke-linecap:butt;stroke-linejoin:miter;stroke-opacity:1"/>
<path class="bond-7 atom-7 atom-8" d="M 454.7,655.1 L 443.3,669.7" style="fill:none;fill-rule:evenodd;stroke:#000000;stroke-width:2.0px;stroke-linecap:butt;stroke-linejoin:miter;stroke-opacity:1"/>
<path class="bond-8 atom-8 atom-9" d="M 443.3,669.7 L 425.0,667.2" style="fill:none;fill-rule:evenodd;stroke:#000000;stroke-width:2.0px;stroke-linecap:butt;stroke-linejoin:miter;stroke-opacity:1"/>
<path class="bond-8 atom-8 atom-9" d="M 441.1,665.6 L 428.3,663.9" style="fill:none;fill-rule:evenodd;stroke:#000000;stroke-width:2.0px;stroke-linecap:butt;stroke-linejoin:miter;stroke-opacity:1"/>
<path class="bond-9 atom-9 atom-10" d="M 425.0,667.2 L 418.0,650.1" style="fill:none;fill-rule:evenodd;stroke:#000000;stroke-width:2.0px;stroke-linecap:butt;stroke-linejoin:miter;stroke-opacity:1"/>
<path class="bond-10 atom-10 atom-11" d="M 418.0,650.1 L 429.3,635.4" style="fill:none;fill-rule:evenodd;stroke:#000000;stroke-width:2.0px;stroke-linecap:butt;stroke-linejoin:miter;stroke-opacity:1"/>
<path class="bond-10 atom-10 atom-11" d="M 422.6,650.1 L 430.6,639.9" style="fill:none;fill-rule:evenodd;stroke:#000000;stroke-width:2.0px;stroke-linecap:butt;stroke-linejoin:miter;stroke-opacity:1"/>
<path class="bond-11 atom-11 atom-12" d="M 429.3,635.4 L 422.3,618.3" style="fill:none;fill-rule:evenodd;stroke:#000000;stroke-width:2.0px;stroke-linecap:butt;stroke-linejoin:miter;stroke-opacity:1"/>
<path class="bond-12 atom-12 atom-13" d="M 422.3,618.3 L 406.6,616.2" style="fill:none;fill-rule:evenodd;stroke:#000000;stroke-width:2.0px;stroke-linecap:butt;stroke-linejoin:miter;stroke-opacity:1"/>
<path class="bond-13 atom-13 atom-14" d="M 401.9,619.1 L 393.8,631.3" style="fill:none;fill-rule:evenodd;stroke:#000000;stroke-width:2.0px;stroke-linecap:butt;stroke-linejoin:miter;stroke-opacity:1"/>
<path class="bond-14 atom-14 atom-15" d="M 393.8,631.3 L 375.4,632.9" style="fill:none;fill-rule:evenodd;stroke:#000000;stroke-width:2.0px;stroke-linecap:butt;stroke-linejoin:miter;stroke-opacity:1"/>
<path class="bond-15 atom-15 atom-16" d="M 375.4,632.9 L 358.1,622.2" style="fill:none;fill-rule:evenodd;stroke:#000000;stroke-width:2.0px;stroke-linecap:butt;stroke-linejoin:miter;stroke-opacity:1"/>
<path class="bond-16 atom-16 atom-17" d="M 358.1,622.2 L 346.0,608.2" style="fill:none;fill-rule:evenodd;stroke:#000000;stroke-width:2.0px;stroke-linecap:butt;stroke-linejoin:miter;stroke-opacity:1"/>
<path class="bond-17 atom-16 atom-18" d="M 358.1,622.2 L 353.2,640.1" style="fill:none;fill-rule:evenodd;stroke:#000000;stroke-width:2.0px;stroke-linecap:butt;stroke-linejoin:miter;stroke-opacity:1"/>
<path class="bond-18 atom-16 atom-19" d="M 358.1,622.2 L 372.1,617.6" style="fill:none;fill-rule:evenodd;stroke:#000000;stroke-width:2.0px;stroke-linecap:butt;stroke-linejoin:miter;stroke-opacity:1"/>
<path class="bond-19 atom-19 atom-20" d="M 377.3,615.1 L 382.9,611.8" style="fill:none;fill-rule:evenodd;stroke:#000000;stroke-width:2.0px;stroke-linecap:butt;stroke-linejoin:miter;stroke-opacity:1"/>
<path class="bond-20 atom-20 atom-21" d="M 388.2,607.8 L 398.3,598.2" style="fill:none;fill-rule:evenodd;stroke:#000000;stroke-width:2.0px;stroke-linecap:butt;stroke-linejoin:miter;stroke-opacity:1"/>
<path class="bond-21 atom-21 atom-22" d="M 398.3,598.2 L 391.7,581.0" style="fill:none;fill-rule:evenodd;stroke:#000000;stroke-width:2.0px;stroke-linecap:butt;stroke-linejoin:miter;stroke-opacity:1"/>
<path class="bond-22 atom-22 atom-23" d="M 391.7,581.0 L 407.6,571.5" style="fill:none;fill-rule:evenodd;stroke:#000000;stroke-width:2.0px;stroke-linecap:butt;stroke-linejoin:miter;stroke-opacity:1"/>
<path class="bond-22 atom-22 atom-23" d="M 392.2,576.4 L 403.3,569.7" style="fill:none;fill-rule:evenodd;stroke:#000000;stroke-width:2.0px;stroke-linecap:butt;stroke-linejoin:miter;stroke-opacity:1"/>
<path class="bond-23 atom-23 atom-24" d="M 407.6,571.5 L 407.3,553.0" style="fill:none;fill-rule:evenodd;stroke:#000000;stroke-width:2.0px;stroke-linecap:butt;stroke-linejoin:miter;stroke-opacity:1"/>
<path class="bond-24 atom-24 atom-25" d="M 407.3,553.0 L 391.2,544.0" style="fill:none;fill-rule:evenodd;stroke:#000000;stroke-width:2.0px;stroke-linecap:butt;stroke-linejoin:miter;stroke-opacity:1"/>
<path class="bond-24 atom-24 atom-25" d="M 403.1,554.9 L 391.8,548.5" style="fill:none;fill-rule:evenodd;stroke:#000000;stroke-width:2.0px;stroke-linecap:butt;stroke-linejoin:miter;stroke-opacity:1"/>
<path class="bond-25 atom-25 atom-26" d="M 391.2,544.0 L 375.3,553.4" style="fill:none;fill-rule:evenodd;stroke:#000000;stroke-width:2.0px;stroke-linecap:butt;stroke-linejoin:miter;stroke-opacity:1"/>
<path class="bond-26 atom-26 atom-27" d="M 375.3,553.4 L 375.6,571.9" style="fill:none;fill-rule:evenodd;stroke:#000000;stroke-width:2.0px;stroke-linecap:butt;stroke-linejoin:miter;stroke-opacity:1"/>
<path class="bond-26 atom-26 atom-27" d="M 379.0,556.2 L 379.2,569.1" style="fill:none;fill-rule:evenodd;stroke:#000000;stroke-width:2.0px;stroke-linecap:butt;stroke-linejoin:miter;stroke-opacity:1"/>
<path class="bond-27 atom-27 atom-28" d="M 375.6,571.9 L 361.8,574.6" style="fill:none;fill-rule:evenodd;stroke:#000000;stroke-width:2.0px;stroke-linecap:butt;stroke-linejoin:miter;stroke-opacity:1"/>
<path class="bond-28 atom-28 atom-29" d="M 355.1,578.2 L 348.4,586.5" style="fill:none;fill-rule:evenodd;stroke:#000000;stroke-width:2.0px;stroke-linecap:butt;stroke-linejoin:miter;stroke-opacity:1"/>
<path class="bond-29 atom-29 atom-30" d="M 345.1,586.5 L 342.2,571.6" style="fill:none;fill-rule:evenodd;stroke:#000000;stroke-width:2.0px;stroke-linecap:butt;stroke-linejoin:miter;stroke-opacity:1"/>
<path class="bond-30 atom-30 atom-31" d="M 342.2,571.6 L 327.4,566.4" style="fill:none;fill-rule:evenodd;stroke:#000000;stroke-width:2.0px;stroke-linecap:butt;stroke-linejoin:miter;stroke-opacity:1"/>
<path class="bond-30 atom-30 atom-31" d="M 338.8,574.3 L 328.4,570.7" style="fill:none;fill-rule:evenodd;stroke:#000000;stroke-width:2.0px;stroke-linecap:butt;stroke-linejoin:miter;stroke-opacity:1"/>
<path class="bond-31 atom-31 atom-32" d="M 322.2,567.7 L 310.8,577.6" style="fill:none;fill-rule:evenodd;stroke:#000000;stroke-width:2.0px;stroke-linecap:butt;stroke-linejoin:miter;stroke-opacity:1"/>
<path class="bond-32 atom-32 atom-33" d="M 310.8,577.6 L 293.3,571.5" style="fill:none;fill-rule:evenodd;stroke:#000000;stroke-width:2.0px;stroke-linecap:butt;stroke-linejoin:miter;stroke-opacity:1"/>
<path class="bond-32 atom-32 atom-33" d="M 306.9,580.2 L 294.7,575.9" style="fill:none;fill-rule:evenodd;stroke:#000000;stroke-width:2.0px;stroke-linecap:butt;stroke-linejoin:miter;stroke-opacity:1"/>
<path class="bond-33 atom-33 atom-34" d="M 293.3,571.5 L 279.3,583.6" style="fill:none;fill-rule:evenodd;stroke:#000000;stroke-width:2.0px;stroke-linecap:butt;stroke-linejoin:miter;stroke-opacity:1"/>
<path class="bond-34 atom-34 atom-35" d="M 279.3,583.6 L 282.8,601.8" style="fill:none;fill-rule:evenodd;stroke:#000000;stroke-width:2.0px;stroke-linecap:butt;stroke-linejoin:miter;stroke-opacity:1"/>
<path class="bond-34 atom-34 atom-35" d="M 283.5,585.6 L 285.9,598.4" style="fill:none;fill-rule:evenodd;stroke:#000000;stroke-width:2.0px;stroke-linecap:butt;stroke-linejoin:miter;stroke-opacity:1"/>
<path class="bond-35 atom-35 atom-36" d="M 282.8,601.8 L 300.3,607.9" style="fill:none;fill-rule:evenodd;stroke:#000000;stroke-width:2.0px;stroke-linecap:butt;stroke-linejoin:miter;stroke-opacity:1"/>
<path class="bond-36 atom-36 atom-37" d="M 300.3,607.9 L 314.3,595.8" style="fill:none;fill-rule:evenodd;stroke:#000000;stroke-width:2.0px;stroke-linecap:butt;stroke-linejoin:miter;stroke-opacity:1"/>
<path class="bond-36 atom-36 atom-37" d="M 299.9,603.2 L 309.7,594.8" style="fill:none;fill-rule:evenodd;stroke:#000000;stroke-width:2.0px;stroke-linecap:butt;stroke-linejoin:miter;stroke-opacity:1"/>
<path class="bond-37 atom-37 atom-38" d="M 314.3,595.8 L 331.7,601.8" style="fill:none;fill-rule:evenodd;stroke:#000000;stroke-width:2.0px;stroke-linecap:butt;stroke-linejoin:miter;stroke-opacity:1"/>
<path class="bond-38 atom-38 atom-39" d="M 331.7,601.8 L 334.6,616.8" style="fill:none;fill-rule:evenodd;stroke:#000000;stroke-width:2.0px;stroke-linecap:butt;stroke-linejoin:miter;stroke-opacity:1"/>
<path class="bond-39 atom-39 atom-40" d="M 337.8,621.2 L 351.9,627.9" style="fill:none;fill-rule:evenodd;stroke:#000000;stroke-width:2.0px;stroke-linecap:butt;stroke-linejoin:miter;stroke-opacity:1"/>
<path class="bond-40 atom-40 atom-41" d="M 351.9,627.9 L 349.6,646.2" style="fill:none;fill-rule:evenodd;stroke:#000000;stroke-width:2.0px;stroke-linecap:butt;stroke-linejoin:miter;stroke-opacity:1"/>
<path class="bond-41 atom-41 atom-42" d="M 349.6,646.2 L 331.5,649.7" style="fill:none;fill-rule:evenodd;stroke:#000000;stroke-width:2.0px;stroke-linecap:butt;stroke-linejoin:miter;stroke-opacity:1"/>
<path class="bond-42 atom-42 atom-43" d="M 331.5,649.7 L 322.5,633.5" style="fill:none;fill-rule:evenodd;stroke:#000000;stroke-width:2.0px;stroke-linecap:butt;stroke-linejoin:miter;stroke-opacity:1"/>
<path class="bond-43 atom-43 atom-44" d="M 322.5,633.5 L 315.4,620.5" style="fill:none;fill-rule:evenodd;stroke:#000000;stroke-width:2.0px;stroke-linecap:butt;stroke-linejoin:miter;stroke-opacity:1"/>
<path class="bond-44 atom-44 atom-45" d="M 314.7,614.1 L 319.7,599.8" style="fill:none;fill-rule:evenodd;stroke:#000000;stroke-width:2.0px;stroke-linecap:butt;stroke-linejoin:miter;stroke-opacity:1"/>
<path class="bond-45 atom-45 atom-46" d="M 319.7,599.8 L 307.6,585.8" style="fill:none;fill-rule:evenodd;stroke:#000000;stroke-width:2.0px;stroke-linecap:butt;stroke-linejoin:miter;stroke-opacity:1"/>
<path class="bond-46 atom-46 atom-47" d="M 307.6,585.8 L 289.4,589.3" style="fill:none;fill-rule:evenodd;stroke:#000000;stroke-width:2.0px;stroke-linecap:butt;stroke-linejoin:miter;stroke-opacity:1"/>
<path class="bond-47 atom-47 atom-48" d="M 289.4,589.3 L 283.4,606.8" style="fill:none;fill-rule:evenodd;stroke:#000000;stroke-width:2.0px;stroke-linecap:butt;stroke-linejoin:miter;stroke-opacity:1"/>
<path class="bond-48 atom-48 atom-49" d="M 283.4,606.8 L 295.5,620.8" style="fill:none;fill-rule:evenodd;stroke:#000000;stroke-width:2.0px;stroke-linecap:butt;stroke-linejoin:miter;stroke-opacity:1"/>
<path class="bond-49 atom-49 atom-50" d="M 295.5,620.8 L 280.7,609.6" style="fill:none;fill-rule:evenodd;stroke:#000000;stroke-width:2.0px;stroke-linecap:butt;stroke-linejoin:miter;stroke-opacity:1"/>
<path class="bond-50 atom-50 atom-51" d="M 280.7,609.6 L 263.7,616.8" style="fill:none;fill-rule:evenodd;stroke:#000000;stroke-width:2.0px;stroke-linecap:butt;stroke-linejoin:miter;stroke-opacity:1"/>
<path class="bond-51 atom-51 atom-52" d="M 263.7,616.8 L 261.4,635.1" style="fill:none;fill-rule:evenodd;stroke:#000000;stroke-width:2.0px;stroke-linecap:butt;stroke-linejoin:miter;stroke-opacity:1"/>
<path class="bond-51 atom-51 atom-52" d="M 267.0,620.0 L 265.4,632.8" style="fill:none;fill-rule:evenodd;stroke:#000000;stroke-width:2.0px;stroke-linecap:butt;stroke-linejoin:miter;stroke-opacity:1"/>
<path class="bond-52 atom-52 atom-53" d="M 261.4,635.1 L 276.1,646.3" style="fill:none;fill-rule:evenodd;stroke:#000000;stroke-width:2.0px;stroke-linecap:butt;stroke-linejoin:miter;stroke-opacity:1"/>
<path class="bond-53 atom-53 atom-54" d="M 276.1,646.3 L 293.1,639.1" style="fill:none;fill-rule:evenodd;stroke:#000000;stroke-width:2.0px;stroke-linecap:butt;stroke-linejoin:miter;stroke-opacity:1"/>
<path class="bond-53 atom-53 atom-54" d="M 277.2,641.8 L 289.2,636.8" style="fill:none;fill-rule:evenodd;stroke:#000000;stroke-width:2.0px;stroke-linecap:butt;stroke-linejoin:miter;stroke-opacity:1"/>
<path class="bond-54 atom-54 atom-55" d="M 293.1,639.1 L 309.9,647.0" style="fill:none;fill-rule:evenodd;stroke:#000000;stroke-width:2.0px;stroke-linecap:butt;stroke-linejoin:miter;stroke-opacity:1"/>
<path class="bond-55 atom-55 atom-56" d="M 309.9,647.0 L 300.3,662.8" style="fill:none;fill-rule:evenodd;stroke:#000000;stroke-width:2.0px;stroke-linecap:butt;stroke-linejoin:miter;stroke-opacity:1"/>
<path class="bond-56 atom-55 atom-57" d="M 309.9,647.0 L 322.0,656.2" style="fill:none;fill-rule:evenodd;stroke:#000000;stroke-width:2.0px;stroke-linecap:butt;stroke-linejoin:miter;stroke-opacity:1"/>
<path class="bond-57 atom-57 atom-58" d="M 324.2,661.4 L 322.3,676.5" style="fill:none;fill-rule:evenodd;stroke:#000000;stroke-width:2.0px;stroke-linecap:butt;stroke-linejoin:miter;stroke-opacity:1"/>
<path class="bond-58 atom-58 atom-59" d="M 322.3,676.5 L 337.1,687.7" style="fill:none;fill-rule:evenodd;stroke:#000000;stroke-width:2.0px;stroke-linecap:butt;stroke-linejoin:miter;stroke-opacity:1"/>
<path class="bond-59 atom-59 atom-60" d="M 337.1,687.7 L 334.7,706.0" style="fill:none;fill-rule:evenodd;stroke:#000000;stroke-width:2.0px;stroke-linecap:butt;stroke-linejoin:miter;stroke-opacity:1"/>
<path class="bond-60 atom-5 atom-0" d="M 459.0,623.3 L 475.0,625.5" style="fill:none;fill-rule:evenodd;stroke:#000000;stroke-width:2.0px;stroke-linecap:butt;stroke-linejoin:miter;stroke-opacity:1"/>
<path class="bond-61 atom-11 atom-6" d="M 429.3,635.4 L 447.7,637.9" style="fill:none;fill-rule:evenodd;stroke:#000000;stroke-width:2.0px;stroke-linecap:butt;stroke-linejoin:miter;stroke-opacity:1"/>
<path class="bond-62 atom-21 atom-13" d="M 398.3,598.2 L 403.0,612.6" style="fill:none;fill-rule:evenodd;stroke:#000000;stroke-width:2.0px;stroke-linecap:butt;stroke-linejoin:miter;stroke-opacity:1"/>
<path class="bond-63 atom-29 atom-17" d="M 345.8,593.0 L 346.0,608.2" style="fill:none;fill-rule:evenodd;stroke:#000000;stroke-width:2.0px;stroke-linecap:butt;stroke-linejoin:miter;stroke-opacity:1"/>
<path class="bond-64 atom-27 atom-22" d="M 375.6,571.9 L 391.7,581.0" style="fill:none;fill-rule:evenodd;stroke:#000000;stroke-width:2.0px;stroke-linecap:butt;stroke-linejoin:miter;stroke-opacity:1"/>
<path class="bond-65 atom-38 atom-29" d="M 331.7,601.8 L 343.4,591.7" style="fill:none;fill-rule:evenodd;stroke:#000000;stroke-width:2.0px;stroke-linecap:butt;stroke-linejoin:miter;stroke-opacity:1"/>
<path class="bond-66 atom-37 atom-32" d="M 314.3,595.8 L 310.8,577.6" style="fill:none;fill-rule:evenodd;stroke:#000000;stroke-width:2.0px;stroke-linecap:butt;stroke-linejoin:miter;stroke-opacity:1"/>
<path class="bond-67 atom-43 atom-39" d="M 322.5,633.5 L 332.6,622.8" style="fill:none;fill-rule:evenodd;stroke:#000000;stroke-width:2.0px;stroke-linecap:butt;stroke-linejoin:miter;stroke-opacity:1"/>
<path class="bond-68 atom-55 atom-43" d="M 309.9,647.0 L 322.5,633.5" style="fill:none;fill-rule:evenodd;stroke:#000000;stroke-width:2.0px;stroke-linecap:butt;stroke-linejoin:miter;stroke-opacity:1"/>
<path class="bond-69 atom-49 atom-44" d="M 295.5,620.8 L 311.0,617.8" style="fill:none;fill-rule:evenodd;stroke:#000000;stroke-width:2.0px;stroke-linecap:butt;stroke-linejoin:miter;stroke-opacity:1"/>
<path class="bond-70 atom-54 atom-49" d="M 293.1,639.1 L 295.5,620.8" style="fill:none;fill-rule:evenodd;stroke:#000000;stroke-width:2.0px;stroke-linecap:butt;stroke-linejoin:miter;stroke-opacity:1"/>
<path class="atom-0" d="M 475.8 627.6 Q 475.9 627.6, 476.1 627.7 Q 476.4 627.8, 476.6 627.9 Q 476.9 628.0, 477.2 628.0 Q 477.7 628.0, 478.0 627.7 Q 478.3 627.5, 478.3 627.1 Q 478.3 626.8, 478.1 626.6 Q 478.0 626.4, 477.8 626.3 Q 477.5 626.2, 477.2 626.1 Q 476.7 626.0, 476.4 625.8 Q 476.1 625.7, 475.9 625.4 Q 475.7 625.1, 475.7 624.7 Q 475.7 624.0, 476.2 623.6 Q 476.6 623.2, 477.5 623.2 Q 478.1 623.2, 478.8 623.5 L 478.7 624.1 Q 478.0 623.8, 477.6 623.8 Q 477.0 623.8, 476.8 624.0 Q 476.5 624.2, 476.5 624.6 Q 476.5 624.9, 476.6 625.0 Q 476.8 625.2, 477.0 625.3 Q 477.2 625.4, 477.6 625.5 Q 478.0 625.7, 478.3 625.8 Q 478.6 625.9, 478.8 626.2 Q 479.0 626.5, 479.0 627.1 Q 479.0 627.8, 478.5 628.2 Q 478.0 628.6, 477.2 628.6 Q 476.8 628.6, 476.4 628.5 Q 476.0 628.4, 475.6 628.2 L 475.8 627.6 " fill="#000000"/>
<path class="atom-13" d="M 397.3 613.2 L 398.0 613.2 L 398.0 615.4 L 400.7 615.4 L 400.7 613.2 L 401.4 613.2 L 401.4 618.5 L 400.7 618.5 L 400.7 616.0 L 398.0 616.0 L 398.0 618.5 L 397.3 618.5 L 397.3 613.2 " fill="#000000"/>
<path class="atom-13" d="M 402.8 613.2 L 404.6 616.0 Q 404.7 616.3, 405.0 616.8 Q 405.3 617.3, 405.3 617.3 L 405.3 613.2 L 406.0 613.2 L 406.0 618.5 L 405.3 618.5 L 403.4 615.4 Q 403.2 615.1, 403.0 614.7 Q 402.8 614.2, 402.7 614.1 L 402.7 618.5 L 402.0 618.5 L 402.0 613.2 L 402.8 613.2 " fill="#000000"/>
<path class="atom-13" d="M 406.6 614.2 L 407.5 614.2 L 407.5 613.2 L 407.9 613.2 L 407.9 614.2 L 408.9 614.2 L 408.9 614.5 L 407.9 614.5 L 407.9 615.5 L 407.5 615.5 L 407.5 614.5 L 406.6 614.5 L 406.6 614.2 " fill="#000000"/>
<path class="atom-19" d="M 372.7 616.7 Q 372.7 615.4, 373.3 614.7 Q 373.9 614.1, 375.1 614.1 Q 376.2 614.1, 376.7 614.8 L 376.3 615.2 Q 375.8 614.7, 375.1 614.7 Q 374.3 614.7, 373.9 615.2 Q 373.5 615.7, 373.5 616.7 Q 373.5 617.8, 373.9 618.3 Q 374.3 618.8, 375.2 618.8 Q 375.7 618.8, 376.4 618.5 L 376.6 619.0 Q 376.3 619.2, 375.9 619.3 Q 375.5 619.4, 375.1 619.4 Q 373.9 619.4, 373.3 618.7 Q 372.7 618.0, 372.7 616.7 " fill="#000000"/>
<path class="atom-20" d="M 383.5 610.3 Q 383.5 609.0, 384.1 608.3 Q 384.7 607.6, 385.9 607.6 Q 387.0 607.6, 387.6 608.4 L 387.1 608.8 Q 386.6 608.2, 385.9 608.2 Q 385.1 608.2, 384.7 608.7 Q 384.3 609.3, 384.3 610.3 Q 384.3 611.3, 384.7 611.8 Q 385.1 612.4, 386.0 612.4 Q 386.6 612.4, 387.2 612.0 L 387.4 612.6 Q 387.2 612.8, 386.7 612.9 Q 386.3 613.0, 385.9 613.0 Q 384.7 613.0, 384.1 612.3 Q 383.5 611.6, 383.5 610.3 " fill="#000000"/>
<path class="atom-28" d="M 355.9 577.2 Q 356.0 577.2, 356.2 577.3 Q 356.5 577.4, 356.7 577.5 Q 357.0 577.6, 357.3 577.6 Q 357.8 577.6, 358.1 577.3 Q 358.4 577.1, 358.4 576.7 Q 358.4 576.4, 358.2 576.2 Q 358.1 576.0, 357.8 575.9 Q 357.6 575.8, 357.3 575.7 Q 356.8 575.6, 356.5 575.4 Q 356.2 575.3, 356.0 575.0 Q 355.8 574.7, 355.8 574.3 Q 355.8 573.6, 356.3 573.2 Q 356.7 572.8, 357.6 572.8 Q 358.2 572.8, 358.9 573.1 L 358.7 573.7 Q 358.1 573.4, 357.6 573.4 Q 357.1 573.4, 356.9 573.6 Q 356.6 573.8, 356.6 574.2 Q 356.6 574.5, 356.7 574.6 Q 356.9 574.8, 357.1 574.9 Q 357.3 575.0, 357.6 575.1 Q 358.1 575.3, 358.4 575.4 Q 358.7 575.5, 358.9 575.9 Q 359.1 576.1, 359.1 576.7 Q 359.1 577.4, 358.6 577.8 Q 358.1 578.2, 357.3 578.2 Q 356.8 578.2, 356.5 578.1 Q 356.1 578.0, 355.7 577.8 L 355.9 577.2 " fill="#000000"/>
<path class="atom-28" d="M 359.4 573.6 L 361.2 573.6 L 361.2 574.0 L 359.4 574.0 L 359.4 573.6 " fill="#000000"/>
<path class="atom-29" d="M 345.6 587.1 Q 346.5 587.1, 346.9 587.5 Q 347.4 587.9, 347.4 588.7 Q 347.4 589.4, 346.9 589.8 Q 346.5 590.2, 345.6 590.2 L 344.8 590.2 L 344.8 592.4 L 344.1 592.4 L 344.1 587.1 L 345.6 587.1 M 345.6 589.6 Q 346.1 589.6, 346.4 589.4 Q 346.7 589.1, 346.7 588.7 Q 346.7 588.2, 346.4 588.0 Q 346.1 587.7, 345.6 587.7 L 344.8 587.7 L 344.8 589.6 L 345.6 589.6 " fill="#000000"/>
<path class="atom-29" d="M 347.7 588.1 L 348.7 588.1 L 348.7 587.1 L 349.1 587.1 L 349.1 588.1 L 350.0 588.1 L 350.0 588.4 L 349.1 588.4 L 349.1 589.4 L 348.7 589.4 L 348.7 588.4 L 347.7 588.4 L 347.7 588.1 " fill="#000000"/>
<path class="atom-31" d="M 323.6 562.9 L 325.3 565.7 Q 325.5 565.9, 325.8 566.4 Q 326.1 566.9, 326.1 567.0 L 326.1 562.9 L 326.8 562.9 L 326.8 568.1 L 326.0 568.1 L 324.2 565.1 Q 324.0 564.7, 323.8 564.3 Q 323.5 563.9, 323.5 563.8 L 323.5 568.1 L 322.8 568.1 L 322.8 562.9 L 323.6 562.9 " fill="#000000"/>
<path class="atom-31" d="M 327.4 563.8 L 328.3 563.8 L 328.3 562.9 L 328.7 562.9 L 328.7 563.8 L 329.7 563.8 L 329.7 564.2 L 328.7 564.2 L 328.7 565.2 L 328.3 565.2 L 328.3 564.2 L 327.4 564.2 L 327.4 563.8 " fill="#000000"/>
<path class="atom-39" d="M 334.0 617.4 L 335.8 620.2 Q 335.9 620.4, 336.2 620.9 Q 336.5 621.4, 336.5 621.5 L 336.5 617.4 L 337.2 617.4 L 337.2 622.6 L 336.5 622.6 L 334.6 619.6 Q 334.4 619.2, 334.2 618.8 Q 334.0 618.4, 333.9 618.3 L 333.9 622.6 L 333.2 622.6 L 333.2 617.4 L 334.0 617.4 " fill="#000000"/>
<path class="atom-44" d="M 312.5 614.7 L 314.2 617.4 Q 314.4 617.7, 314.6 618.2 Q 314.9 618.7, 314.9 618.7 L 314.9 614.7 L 315.6 614.7 L 315.6 619.9 L 314.9 619.9 L 313.1 616.9 Q 312.8 616.5, 312.6 616.1 Q 312.4 615.7, 312.3 615.6 L 312.3 619.9 L 311.6 619.9 L 311.6 614.7 L 312.5 614.7 " fill="#000000"/>
<path class="atom-57" d="M 323.5 655.5 L 325.2 658.3 Q 325.4 658.6, 325.6 659.1 Q 325.9 659.6, 325.9 659.6 L 325.9 655.5 L 326.6 655.5 L 326.6 660.8 L 325.9 660.8 L 324.1 657.7 Q 323.8 657.4, 323.6 657.0 Q 323.4 656.6, 323.3 656.4 L 323.3 660.8 L 322.6 660.8 L 322.6 655.5 L 323.5 655.5 " fill="#000000"/>
<path class="atom-57" d="M 327.2 655.5 L 327.9 655.5 L 327.9 657.8 L 330.6 657.8 L 330.6 655.5 L 331.3 655.5 L 331.3 660.8 L 330.6 660.8 L 330.6 658.4 L 327.9 658.4 L 327.9 660.8 L 327.2 660.8 L 327.2 655.5 " fill="#000000"/>
<path class="atom-0" d="M 480.5,625.8 L 480.5,625.8 L 480.5,625.9 L 480.5,625.9 L 480.5,625.9 L 480.4,626.0 L 480.4,626.0 L 480.4,626.0 L 480.4,626.0 L 480.4,626.1 L 480.3,626.1 L 480.3,626.1 L 480.3,626.1 L 480.3,626.1 L 480.2,626.2 L 480.2,626.2 L 480.2,626.2 L 480.1,626.2 L 480.1,626.2 L 480.1,626.2 L 480.0,626.2 L 480.0,626.2 L 480.0,626.2 L 480.0,626.1 L 479.9,626.1 L 479.9,626.1 L 479.9,626.1 L 479.8,626.1 L 479.8,626.1 L 479.8,626.0 L 479.8,626.0 L 479.8,626.0 L 479.8,625.9 L 479.7,625.9 L 479.7,625.9 L 479.7,625.9 L 479.7,625.8 L 479.7,625.8 L 479.7,625.8 L 479.7,625.7 L 479.7,625.7 L 479.8,625.7 L 479.8,625.6 L 479.8,625.6 L 479.8,625.6 L 479.8,625.6 L 479.8,625.5 L 479.9,625.5 L 479.9,625.5 L 479.9,625.5 L 480.0,625.5 L 480.0,625.5 L 480.0,625.4 L 480.0,625.4 L 480.1,625.4 L 480.1,625.4 L 480.1,625.4 L 480.2,625.4 L 480.2,625.4 L 480.2,625.5 L 480.3,625.5 L 480.3,625.5 L 480.3,625.5 L 480.3,625.5 L 480.4,625.5 L 480.4,625.6 L 480.4,625.6 L 480.4,625.6 L 480.4,625.7 L 480.5,625.7 L 480.5,625.7 L 480.5,625.7 L 480.5,625.8 L 480.5,625.8 L 480.1,625.8 Z" style="fill:#000000;fill-rule:evenodd;fill-opacity:1;stroke:#000000;stroke-width:0.0px;stroke-linecap:butt;stroke-linejoin:miter;stroke-opacity:1;"/>
<path class="atom-28" d="M 355.0,575.4 L 355.0,575.4 L 355.0,575.5 L 355.0,575.5 L 355.0,575.5 L 355.0,575.6 L 354.9,575.6 L 354.9,575.6 L 354.9,575.6 L 354.9,575.7 L 354.9,575.7 L 354.8,575.7 L 354.8,575.7 L 354.8,575.7 L 354.7,575.8 L 354.7,575.8 L 354.7,575.8 L 354.7,575.8 L 354.6,575.8 L 354.6,575.8 L 354.6,575.8 L 354.5,575.8 L 354.5,575.8 L 354.5,575.7 L 354.4,575.7 L 354.4,575.7 L 354.4,575.7 L 354.4,575.7 L 354.3,575.7 L 354.3,575.6 L 354.3,575.6 L 354.3,575.6 L 354.3,575.5 L 354.3,575.5 L 354.3,575.5 L 354.3,575.5 L 354.2,575.4 L 354.2,575.4 L 354.3,575.4 L 354.3,575.3 L 354.3,575.3 L 354.3,575.3 L 354.3,575.2 L 354.3,575.2 L 354.3,575.2 L 354.3,575.2 L 354.4,575.1 L 354.4,575.1 L 354.4,575.1 L 354.4,575.1 L 354.5,575.1 L 354.5,575.1 L 354.5,575.0 L 354.6,575.0 L 354.6,575.0 L 354.6,575.0 L 354.7,575.0 L 354.7,575.0 L 354.7,575.1 L 354.7,575.1 L 354.8,575.1 L 354.8,575.1 L 354.8,575.1 L 354.9,575.1 L 354.9,575.1 L 354.9,575.2 L 354.9,575.2 L 354.9,575.2 L 355.0,575.3 L 355.0,575.3 L 355.0,575.3 L 355.0,575.3 L 355.0,575.4 L 355.0,575.4 L 354.6,575.4 Z" style="fill:#000000;fill-rule:evenodd;fill-opacity:1;stroke:#000000;stroke-width:0.0px;stroke-linecap:butt;stroke-linejoin:miter;stroke-opacity:1;"/>
<path class="atom-31" d="M 325.1,562.3 L 325.1,562.3 L 325.1,562.4 L 325.1,562.4 L 325.1,562.4 L 325.1,562.5 L 325.1,562.5 L 325.1,562.5 L 325.1,562.5 L 325.0,562.6 L 325.0,562.6 L 325.0,562.6 L 325.0,562.6 L 324.9,562.6 L 324.9,562.6 L 324.9,562.7 L 324.8,562.7 L 324.8,562.7 L 324.8,562.7 L 324.8,562.7 L 324.7,562.7 L 324.7,562.7 L 324.7,562.7 L 324.6,562.6 L 324.6,562.6 L 324.6,562.6 L 324.5,562.6 L 324.5,562.6 L 324.5,562.5 L 324.5,562.5 L 324.5,562.5 L 324.4,562.5 L 324.4,562.4 L 324.4,562.4 L 324.4,562.4 L 324.4,562.4 L 324.4,562.3 L 324.4,562.3 L 324.4,562.3 L 324.4,562.2 L 324.4,562.2 L 324.4,562.2 L 324.4,562.1 L 324.5,562.1 L 324.5,562.1 L 324.5,562.1 L 324.5,562.0 L 324.5,562.0 L 324.6,562.0 L 324.6,562.0 L 324.6,562.0 L 324.7,562.0 L 324.7,561.9 L 324.7,561.9 L 324.8,561.9 L 324.8,561.9 L 324.8,561.9 L 324.8,561.9 L 324.9,561.9 L 324.9,562.0 L 324.9,562.0 L 325.0,562.0 L 325.0,562.0 L 325.0,562.0 L 325.0,562.0 L 325.1,562.1 L 325.1,562.1 L 325.1,562.1 L 325.1,562.1 L 325.1,562.2 L 325.1,562.2 L 325.1,562.2 L 325.1,562.3 L 325.1,562.3 L 324.8,562.3 Z" style="fill:#000000;fill-rule:evenodd;fill-opacity:1;stroke:#000000;stroke-width:0.0px;stroke-linecap:butt;stroke-linejoin:miter;stroke-opacity:1;"/>
<path class="atom-38" d="M 334.3,601.8 L 334.3,601.9 L 334.3,601.9 L 334.3,601.9 L 334.3,602.0 L 334.3,602.0 L 334.3,602.0 L 334.3,602.0 L 334.2,602.1 L 334.2,602.1 L 334.2,602.1 L 334.2,602.1 L 334.1,602.2 L 334.1,602.2 L 334.1,602.2 L 334.0,602.2 L 334.0,602.2 L 334.0,602.2 L 334.0,602.2 L 333.9,602.2 L 333.9,602.2 L 333.9,602.2 L 333.8,602.2 L 333.8,602.2 L 333.8,602.2 L 333.7,602.1 L 333.7,602.1 L 333.7,602.1 L 333.7,602.1 L 333.7,602.1 L 333.6,602.0 L 333.6,602.0 L 333.6,602.0 L 333.6,601.9 L 333.6,601.9 L 333.6,601.9 L 333.6,601.9 L 333.6,601.8 L 333.6,601.8 L 333.6,601.8 L 333.6,601.7 L 333.6,601.7 L 333.6,601.7 L 333.6,601.6 L 333.7,601.6 L 333.7,601.6 L 333.7,601.6 L 333.7,601.5 L 333.7,601.5 L 333.8,601.5 L 333.8,601.5 L 333.8,601.5 L 333.9,601.5 L 333.9,601.5 L 333.9,601.5 L 334.0,601.5 L 334.0,601.5 L 334.0,601.5 L 334.0,601.5 L 334.1,601.5 L 334.1,601.5 L 334.1,601.5 L 334.2,601.5 L 334.2,601.6 L 334.2,601.6 L 334.2,601.6 L 334.3,601.6 L 334.3,601.7 L 334.3,601.7 L 334.3,601.7 L 334.3,601.7 L 334.3,601.8 L 334.3,601.8 L 334.3,601.8 L 333.9,601.8 Z" style="fill:#000000;fill-rule:evenodd;fill-opacity:1;stroke:#000000;stroke-width:0.0px;stroke-linecap:butt;stroke-linejoin:miter;stroke-opacity:1;"/>
<path class="atom-50" d="M 281.8,607.9 L 281.8,608.0 L 281.8,608.0 L 281.8,608.0 L 281.8,608.0 L 281.8,608.1 L 281.8,608.1 L 281.8,608.1 L 281.7,608.2 L 281.7,608.2 L 281.7,608.2 L 281.7,608.2 L 281.7,608.2 L 281.6,608.3 L 281.6,608.3 L 281.6,608.3 L 281.5,608.3 L 281.5,608.3 L 281.5,608.3 L 281.4,608.3 L 281.4,608.3 L 281.4,608.3 L 281.3,608.3 L 281.3,608.3 L 281.3,608.2 L 281.3,608.2 L 281.2,608.2 L 281.2,608.2 L 281.2,608.2 L 281.2,608.1 L 281.1,608.1 L 281.1,608.1 L 281.1,608.1 L 281.1,608.0 L 281.1,608.0 L 281.1,608.0 L 281.1,607.9 L 281.1,607.9 L 281.1,607.9 L 281.1,607.8 L 281.1,607.8 L 281.1,607.8 L 281.1,607.8 L 281.1,607.7 L 281.2,607.7 L 281.2,607.7 L 281.2,607.7 L 281.2,607.6 L 281.3,607.6 L 281.3,607.6 L 281.3,607.6 L 281.3,607.6 L 281.4,607.6 L 281.4,607.6 L 281.4,607.6 L 281.5,607.6 L 281.5,607.6 L 281.5,607.6 L 281.6,607.6 L 281.6,607.6 L 281.6,607.6 L 281.7,607.6 L 281.7,607.6 L 281.7,607.6 L 281.7,607.7 L 281.7,607.7 L 281.8,607.7 L 281.8,607.7 L 281.8,607.8 L 281.8,607.8 L 281.8,607.8 L 281.8,607.9 L 281.8,607.9 L 281.8,607.9 L 281.5,607.9 Z" style="fill:#000000;fill-rule:evenodd;fill-opacity:1;stroke:#000000;stroke-width:0.0px;stroke-linecap:butt;stroke-linejoin:miter;stroke-opacity:1;"/>
<path class="atom-50" d="M 280.4,607.9 L 280.4,608.0 L 280.3,608.0 L 280.3,608.0 L 280.3,608.0 L 280.3,608.1 L 280.3,608.1 L 280.3,608.1 L 280.3,608.2 L 280.2,608.2 L 280.2,608.2 L 280.2,608.2 L 280.2,608.2 L 280.1,608.3 L 280.1,608.3 L 280.1,608.3 L 280.1,608.3 L 280.0,608.3 L 280.0,608.3 L 280.0,608.3 L 279.9,608.3 L 279.9,608.3 L 279.9,608.3 L 279.8,608.3 L 279.8,608.2 L 279.8,608.2 L 279.8,608.2 L 279.7,608.2 L 279.7,608.2 L 279.7,608.1 L 279.7,608.1 L 279.7,608.1 L 279.6,608.1 L 279.6,608.0 L 279.6,608.0 L 279.6,608.0 L 279.6,607.9 L 279.6,607.9 L 279.6,607.9 L 279.6,607.8 L 279.6,607.8 L 279.6,607.8 L 279.7,607.8 L 279.7,607.7 L 279.7,607.7 L 279.7,607.7 L 279.7,607.7 L 279.8,607.6 L 279.8,607.6 L 279.8,607.6 L 279.8,607.6 L 279.9,607.6 L 279.9,607.6 L 279.9,607.6 L 280.0,607.6 L 280.0,607.6 L 280.0,607.6 L 280.1,607.6 L 280.1,607.6 L 280.1,607.6 L 280.1,607.6 L 280.2,607.6 L 280.2,607.6 L 280.2,607.6 L 280.2,607.7 L 280.3,607.7 L 280.3,607.7 L 280.3,607.7 L 280.3,607.8 L 280.3,607.8 L 280.3,607.8 L 280.3,607.9 L 280.4,607.9 L 280.4,607.9 L 280.0,607.9 Z" style="fill:#000000;fill-rule:evenodd;fill-opacity:1;stroke:#000000;stroke-width:0.0px;stroke-linecap:butt;stroke-linejoin:miter;stroke-opacity:1;"/>
<path class="bond-0 atom-0 atom-1" d="M 523.4,597.9 L 550.3,599.9" style="fill:none;fill-rule:evenodd;stroke:#000000;stroke-width:2.0px;stroke-linecap:butt;stroke-linejoin:miter;stroke-opacity:1"/>
<path class="bond-1 atom-1 atom-2" d="M 558.1,607.0 L 570.9,633.5" style="fill:none;fill-rule:evenodd;stroke:#000000;stroke-width:2.0px;stroke-linecap:butt;stroke-linejoin:miter;stroke-opacity:1"/>
<path class="bond-2 atom-2 atom-3" d="M 570.9,633.5 L 607.7,636.2" style="fill:none;fill-rule:evenodd;stroke:#000000;stroke-width:2.0px;stroke-linecap:butt;stroke-linejoin:miter;stroke-opacity:1"/>
<path class="bond-2 atom-2 atom-3" d="M 577.0,626.5 L 602.7,628.4" style="fill:none;fill-rule:evenodd;stroke:#000000;stroke-width:2.0px;stroke-linecap:butt;stroke-linejoin:miter;stroke-opacity:1"/>
<path class="bond-3 atom-3 atom-4" d="M 607.7,636.2 L 623.7,669.3" style="fill:none;fill-rule:evenodd;stroke:#000000;stroke-width:2.0px;stroke-linecap:butt;stroke-linejoin:miter;stroke-opacity:1"/>
<path class="bond-4 atom-4 atom-5" d="M 623.7,669.3 L 660.4,672.1" style="fill:none;fill-rule:evenodd;stroke:#000000;stroke-width:2.0px;stroke-linecap:butt;stroke-linejoin:miter;stroke-opacity:1"/>
<path class="bond-4 atom-4 atom-5" d="M 629.7,662.4 L 655.5,664.3" style="fill:none;fill-rule:evenodd;stroke:#000000;stroke-width:2.0px;stroke-linecap:butt;stroke-linejoin:miter;stroke-opacity:1"/>
<path class="bond-5 atom-5 atom-6" d="M 660.4,672.1 L 681.2,641.6" style="fill:none;fill-rule:evenodd;stroke:#000000;stroke-width:2.0px;stroke-linecap:butt;stroke-linejoin:miter;stroke-opacity:1"/>
<path class="bond-6 atom-6 atom-7" d="M 681.2,641.6 L 717.9,644.3" style="fill:none;fill-rule:evenodd;stroke:#000000;stroke-width:2.0px;stroke-linecap:butt;stroke-linejoin:miter;stroke-opacity:1"/>
<path class="bond-6 atom-6 atom-7" d="M 687.2,634.6 L 712.9,636.5" style="fill:none;fill-rule:evenodd;stroke:#000000;stroke-width:2.0px;stroke-linecap:butt;stroke-linejoin:miter;stroke-opacity:1"/>
<path class="bond-7 atom-7 atom-8" d="M 717.9,644.3 L 738.6,613.8" style="fill:none;fill-rule:evenodd;stroke:#000000;stroke-width:2.0px;stroke-linecap:butt;stroke-linejoin:miter;stroke-opacity:1"/>
<path class="bond-8 atom-8 atom-9" d="M 738.6,613.8 L 722.6,580.7" style="fill:none;fill-rule:evenodd;stroke:#000000;stroke-width:2.0px;stroke-linecap:butt;stroke-linejoin:miter;stroke-opacity:1"/>
<path class="bond-8 atom-8 atom-9" d="M 729.6,612.1 L 718.4,588.8" style="fill:none;fill-rule:evenodd;stroke:#000000;stroke-width:2.0px;stroke-linecap:butt;stroke-linejoin:miter;stroke-opacity:1"/>
<path class="bond-9 atom-9 atom-10" d="M 722.6,580.7 L 685.9,577.9" style="fill:none;fill-rule:evenodd;stroke:#000000;stroke-width:2.0px;stroke-linecap:butt;stroke-linejoin:miter;stroke-opacity:1"/>
<path class="bond-10 atom-10 atom-11" d="M 685.9,577.9 L 665.1,608.4" style="fill:none;fill-rule:evenodd;stroke:#000000;stroke-width:2.0px;stroke-linecap:butt;stroke-linejoin:miter;stroke-opacity:1"/>
<path class="bond-10 atom-10 atom-11" d="M 688.8,586.7 L 674.3,608.0" style="fill:none;fill-rule:evenodd;stroke:#000000;stroke-width:2.0px;stroke-linecap:butt;stroke-linejoin:miter;stroke-opacity:1"/>
<path class="bond-11 atom-11 atom-12" d="M 665.1,608.4 L 634.4,606.1" style="fill:none;fill-rule:evenodd;stroke:#000000;stroke-width:2.0px;stroke-linecap:butt;stroke-linejoin:miter;stroke-opacity:1"/>
<path class="bond-12 atom-12 atom-3" d="M 623.9,612.4 L 607.7,636.2" style="fill:none;fill-rule:evenodd;stroke:#000000;stroke-width:2.0px;stroke-linecap:butt;stroke-linejoin:miter;stroke-opacity:1"/>
<path class="bond-13 atom-11 atom-6" d="M 665.1,608.4 L 681.2,641.6" style="fill:none;fill-rule:evenodd;stroke:#000000;stroke-width:2.0px;stroke-linecap:butt;stroke-linejoin:miter;stroke-opacity:1"/>
<path class="atom-0" d="M 514.1 597.6 Q 514.1 595.0, 515.3 593.7 Q 516.6 592.3, 518.9 592.3 Q 521.0 592.3, 522.2 593.8 L 521.2 594.6 Q 520.4 593.5, 518.9 593.5 Q 517.3 593.5, 516.5 594.6 Q 515.6 595.6, 515.6 597.6 Q 515.6 599.7, 516.5 600.7 Q 517.4 601.8, 519.0 601.8 Q 520.2 601.8, 521.5 601.1 L 521.9 602.2 Q 521.4 602.6, 520.6 602.8 Q 519.7 603.0, 518.8 603.0 Q 516.6 603.0, 515.3 601.6 Q 514.1 600.2, 514.1 597.6 " fill="#000000"/>
<path class="atom-0" d="M 522.8 594.0 L 526.3 594.0 L 526.3 594.8 L 522.8 594.8 L 522.8 594.0 " fill="#000000"/>
<path class="atom-1" d="M 552.0 603.9 Q 552.1 603.9, 552.6 604.1 Q 553.0 604.3, 553.6 604.4 Q 554.1 604.6, 554.6 604.6 Q 555.6 604.6, 556.2 604.1 Q 556.8 603.6, 556.8 602.8 Q 556.8 602.2, 556.5 601.8 Q 556.2 601.5, 555.8 601.3 Q 555.3 601.1, 554.6 600.9 Q 553.7 600.6, 553.1 600.3 Q 552.6 600.1, 552.2 599.5 Q 551.8 598.9, 551.8 598.0 Q 551.8 596.7, 552.7 595.9 Q 553.6 595.1, 555.3 595.1 Q 556.5 595.1, 557.9 595.6 L 557.6 596.8 Q 556.3 596.3, 555.4 596.3 Q 554.4 596.3, 553.8 596.7 Q 553.2 597.1, 553.2 597.8 Q 553.2 598.4, 553.5 598.7 Q 553.8 599.1, 554.2 599.3 Q 554.7 599.4, 555.4 599.7 Q 556.3 600.0, 556.9 600.3 Q 557.4 600.6, 557.8 601.2 Q 558.2 601.7, 558.2 602.8 Q 558.2 604.2, 557.3 605.0 Q 556.3 605.8, 554.7 605.8 Q 553.8 605.8, 553.1 605.5 Q 552.4 605.4, 551.6 605.0 L 552.0 603.9 " fill="#000000"/>
<path class="atom-12" d="M 623.6 605.7 Q 623.6 603.2, 624.8 601.8 Q 626.1 600.4, 628.4 600.4 Q 630.7 600.4, 631.9 601.8 Q 633.2 603.2, 633.2 605.7 Q 633.2 608.3, 631.9 609.7 Q 630.7 611.1, 628.4 611.1 Q 626.1 611.1, 624.8 609.7 Q 623.6 608.3, 623.6 605.7 M 628.4 610.0 Q 630.0 610.0, 630.8 608.9 Q 631.7 607.8, 631.7 605.7 Q 631.7 603.7, 630.8 602.6 Q 630.0 601.6, 628.4 601.6 Q 626.8 601.6, 625.9 602.6 Q 625.1 603.7, 625.1 605.7 Q 625.1 607.8, 625.9 608.9 Q 626.8 610.0, 628.4 610.0 " fill="#000000"/>
<path class="atom-0" d="M 512.7,597.6 L 512.7,597.6 L 512.6,597.7 L 512.6,597.7 L 512.6,597.8 L 512.6,597.9 L 512.6,597.9 L 512.5,598.0 L 512.5,598.0 L 512.4,598.1 L 512.4,598.1 L 512.3,598.2 L 512.3,598.2 L 512.2,598.2 L 512.2,598.2 L 512.1,598.3 L 512.1,598.3 L 512.0,598.3 L 511.9,598.3 L 511.9,598.3 L 511.8,598.3 L 511.7,598.3 L 511.7,598.3 L 511.6,598.2 L 511.6,598.2 L 511.5,598.2 L 511.5,598.1 L 511.4,598.1 L 511.4,598.1 L 511.3,598.0 L 511.3,597.9 L 511.3,597.9 L 511.2,597.8 L 511.2,597.8 L 511.2,597.7 L 511.2,597.7 L 511.2,597.6 L 511.2,597.5 L 511.2,597.5 L 511.2,597.4 L 511.2,597.3 L 511.2,597.3 L 511.3,597.2 L 511.3,597.2 L 511.3,597.1 L 511.4,597.1 L 511.4,597.0 L 511.5,597.0 L 511.5,596.9 L 511.6,596.9 L 511.6,596.9 L 511.7,596.9 L 511.7,596.8 L 511.8,596.8 L 511.9,596.8 L 511.9,596.8 L 512.0,596.8 L 512.1,596.8 L 512.1,596.8 L 512.2,596.9 L 512.2,596.9 L 512.3,596.9 L 512.3,597.0 L 512.4,597.0 L 512.4,597.0 L 512.5,597.1 L 512.5,597.1 L 512.6,597.2 L 512.6,597.3 L 512.6,597.3 L 512.6,597.4 L 512.6,597.4 L 512.7,597.5 L 512.7,597.6 L 511.9,597.6 Z" style="fill:#000000;fill-rule:evenodd;fill-opacity:1;stroke:#000000;stroke-width:0.0px;stroke-linecap:butt;stroke-linejoin:miter;stroke-opacity:1;"/>
</svg>