<svg xmlns="http://www.w3.org/2000/svg" xmlns:rdkit="http://www.rdkit.org/xml" xmlns:xlink="http://www.w3.org/1999/xlink" version="1.1" baseProfile="full" xml:space="preserve" width="750px" height="750px" viewBox="0 0 750 750">
<!-- END OF HEADER -->
<rect style="opacity:1.0;fill:#FFFFFF;stroke:none" width="750.0" height="750.0" x="0.0" y="0.0"> </rect>
<path class="bond-0 atom-0 atom-1" d="M 17.2,141.1 L 17.2,88.3" style="fill:none;fill-rule:evenodd;stroke:#000000;stroke-width:2.0px;stroke-linecap:butt;stroke-linejoin:miter;stroke-opacity:1"/>
<path class="bond-1 atom-1 atom-2" d="M 17.2,88.3 L 72.5,56.3" style="fill:none;fill-rule:evenodd;stroke:#000000;stroke-width:2.0px;stroke-linecap:butt;stroke-linejoin:miter;stroke-opacity:1"/>
<path class="bond-1 atom-1 atom-2" d="M 31.9,94.6 L 70.6,72.2" style="fill:none;fill-rule:evenodd;stroke:#000000;stroke-width:2.0px;stroke-linecap:butt;stroke-linejoin:miter;stroke-opacity:1"/>
<path class="bond-2 atom-2 atom-3" d="M 72.5,56.3 L 127.9,88.3" style="fill:none;fill-rule:evenodd;stroke:#000000;stroke-width:2.0px;stroke-linecap:butt;stroke-linejoin:miter;stroke-opacity:1"/>
<path class="bond-3 atom-3 atom-4" d="M 127.9,88.3 L 183.3,56.3" style="fill:none;fill-rule:evenodd;stroke:#000000;stroke-width:2.0px;stroke-linecap:butt;stroke-linejoin:miter;stroke-opacity:1"/>
<path class="bond-3 atom-3 atom-4" d="M 142.6,94.6 L 181.4,72.2" style="fill:none;fill-rule:evenodd;stroke:#000000;stroke-width:2.0px;stroke-linecap:butt;stroke-linejoin:miter;stroke-opacity:1"/>
<path class="bond-4 atom-4 atom-5" d="M 183.3,56.3 L 238.6,88.3" style="fill:none;fill-rule:evenodd;stroke:#000000;stroke-width:2.0px;stroke-linecap:butt;stroke-linejoin:miter;stroke-opacity:1"/>
<path class="bond-5 atom-5 atom-6" d="M 238.6,88.3 L 238.6,152.2" style="fill:none;fill-rule:evenodd;stroke:#000000;stroke-width:2.0px;stroke-linecap:butt;stroke-linejoin:miter;stroke-opacity:1"/>
<path class="bond-5 atom-5 atom-6" d="M 225.8,97.9 L 225.8,142.7" style="fill:none;fill-rule:evenodd;stroke:#000000;stroke-width:2.0px;stroke-linecap:butt;stroke-linejoin:miter;stroke-opacity:1"/>
<path class="bond-6 atom-6 atom-7" d="M 238.6,152.2 L 183.3,184.2" style="fill:none;fill-rule:evenodd;stroke:#000000;stroke-width:2.0px;stroke-linecap:butt;stroke-linejoin:miter;stroke-opacity:1"/>
<path class="bond-7 atom-7 atom-8" d="M 183.3,184.2 L 127.9,152.2" style="fill:none;fill-rule:evenodd;stroke:#000000;stroke-width:2.0px;stroke-linecap:butt;stroke-linejoin:miter;stroke-opacity:1"/>
<path class="bond-7 atom-7 atom-8" d="M 181.4,168.3 L 142.6,146.0" style="fill:none;fill-rule:evenodd;stroke:#000000;stroke-width:2.0px;stroke-linecap:butt;stroke-linejoin:miter;stroke-opacity:1"/>
<path class="bond-8 atom-8 atom-9" d="M 127.9,152.2 L 83.0,178.2" style="fill:none;fill-rule:evenodd;stroke:#000000;stroke-width:2.0px;stroke-linecap:butt;stroke-linejoin:miter;stroke-opacity:1"/>
<path class="bond-9 atom-9 atom-0" d="M 62.1,178.2 L 25.1,156.8" style="fill:none;fill-rule:evenodd;stroke:#000000;stroke-width:2.0px;stroke-linecap:butt;stroke-linejoin:miter;stroke-opacity:1"/>
<path class="bond-10 atom-8 atom-3" d="M 127.9,152.2 L 127.9,88.3" style="fill:none;fill-rule:evenodd;stroke:#000000;stroke-width:2.0px;stroke-linecap:butt;stroke-linejoin:miter;stroke-opacity:1"/>
<path class="atom-0" d="M 12.1 158.5 Q 12.3 158.5, 13.1 158.9 Q 13.9 159.3, 14.9 159.5 Q 15.8 159.7, 16.7 159.7 Q 18.4 159.7, 19.4 158.9 Q 20.4 158.0, 20.4 156.6 Q 20.4 155.6, 19.9 155.0 Q 19.4 154.3, 18.7 154.0 Q 17.9 153.7, 16.6 153.3 Q 15.0 152.8, 14.0 152.4 Q 13.1 151.9, 12.4 150.9 Q 11.7 149.9, 11.7 148.3 Q 11.7 146.0, 13.3 144.6 Q 14.8 143.2, 17.9 143.2 Q 20.0 143.2, 22.4 144.2 L 21.8 146.2 Q 19.6 145.3, 18.0 145.3 Q 16.2 145.3, 15.3 146.0 Q 14.3 146.7, 14.3 148.0 Q 14.3 149.0, 14.8 149.6 Q 15.3 150.2, 16.0 150.5 Q 16.8 150.8, 18.0 151.2 Q 19.6 151.7, 20.6 152.2 Q 21.6 152.7, 22.3 153.8 Q 23.0 154.8, 23.0 156.6 Q 23.0 159.1, 21.3 160.4 Q 19.6 161.8, 16.8 161.8 Q 15.2 161.8, 14.0 161.4 Q 12.8 161.1, 11.4 160.5 L 12.1 158.5 " fill="#000000"/>
<path class="atom-9" d="M 64.2 184.3 Q 64.2 179.9, 66.4 177.5 Q 68.5 175.1, 72.5 175.1 Q 76.6 175.1, 78.7 177.5 Q 80.8 179.9, 80.8 184.3 Q 80.8 188.7, 78.7 191.2 Q 76.5 193.7, 72.5 193.7 Q 68.5 193.7, 66.4 191.2 Q 64.2 188.7, 64.2 184.3 M 72.5 191.6 Q 75.3 191.6, 76.8 189.8 Q 78.3 187.9, 78.3 184.3 Q 78.3 180.7, 76.8 178.9 Q 75.3 177.1, 72.5 177.1 Q 69.8 177.1, 68.3 178.9 Q 66.8 180.7, 66.8 184.3 Q 66.8 187.9, 68.3 189.8 Q 69.8 191.6, 72.5 191.6 " fill="#000000"/>
<path class="bond-0 atom-0 atom-1" d="M 361.9,114.4 L 297.8,151.4" style="fill:none;fill-rule:evenodd;stroke:#000000;stroke-width:2.0px;stroke-linecap:butt;stroke-linejoin:miter;stroke-opacity:1"/>
<path class="bond-0 atom-0 atom-1" d="M 351.1,95.7 L 287.0,132.7" style="fill:none;fill-rule:evenodd;stroke:#000000;stroke-width:2.0px;stroke-linecap:butt;stroke-linejoin:miter;stroke-opacity:1"/>
<path class="bond-1 atom-0 atom-2" d="M 381.8,105.0 L 445.9,142.1" style="fill:none;fill-rule:evenodd;stroke:#000000;stroke-width:2.0px;stroke-linecap:butt;stroke-linejoin:miter;stroke-opacity:1"/>
<path class="atom-0" d="M 361.2 107.5 Q 361.5 107.6, 362.8 108.1 Q 364.1 108.7, 365.6 109.1 Q 367.0 109.4, 368.5 109.4 Q 371.2 109.4, 372.7 108.1 Q 374.3 106.8, 374.3 104.5 Q 374.3 102.9, 373.5 102.0 Q 372.7 101.0, 371.5 100.5 Q 370.3 100.0, 368.3 99.4 Q 365.8 98.6, 364.3 97.9 Q 362.8 97.2, 361.7 95.7 Q 360.7 94.1, 360.7 91.6 Q 360.7 88.0, 363.1 85.8 Q 365.5 83.6, 370.3 83.6 Q 373.6 83.6, 377.3 85.2 L 376.4 88.3 Q 373.0 86.9, 370.4 86.9 Q 367.7 86.9, 366.2 88.0 Q 364.6 89.1, 364.7 91.1 Q 364.7 92.6, 365.4 93.5 Q 366.2 94.5, 367.4 95.0 Q 368.5 95.5, 370.4 96.1 Q 373.0 96.9, 374.5 97.7 Q 376.0 98.5, 377.1 100.1 Q 378.2 101.7, 378.2 104.5 Q 378.2 108.4, 375.6 110.5 Q 373.0 112.6, 368.6 112.6 Q 366.1 112.6, 364.2 112.1 Q 362.3 111.5, 360.1 110.6 L 361.2 107.5 " fill="#000000"/>
<path class="atom-1" d="M 262.8 151.7 Q 262.8 144.9, 266.2 141.1 Q 269.5 137.3, 275.8 137.3 Q 282.1 137.3, 285.5 141.1 Q 288.8 144.9, 288.8 151.7 Q 288.8 158.6, 285.4 162.5 Q 282.0 166.4, 275.8 166.4 Q 269.6 166.4, 266.2 162.5 Q 262.8 158.6, 262.8 151.7 M 275.8 163.2 Q 280.1 163.2, 282.5 160.3 Q 284.8 157.4, 284.8 151.7 Q 284.8 146.1, 282.5 143.3 Q 280.1 140.5, 275.8 140.5 Q 271.5 140.5, 269.1 143.3 Q 266.8 146.1, 266.8 151.7 Q 266.8 157.4, 269.1 160.3 Q 271.5 163.2, 275.8 163.2 " fill="#000000"/>
<path class="atom-2" d="M 449.5 151.7 Q 449.5 144.9, 452.8 141.1 Q 456.2 137.3, 462.5 137.3 Q 468.8 137.3, 472.1 141.1 Q 475.5 144.9, 475.5 151.7 Q 475.5 158.6, 472.1 162.5 Q 468.7 166.4, 462.5 166.4 Q 456.2 166.4, 452.8 162.5 Q 449.5 158.6, 449.5 151.7 M 462.5 163.2 Q 466.8 163.2, 469.1 160.3 Q 471.5 157.4, 471.5 151.7 Q 471.5 146.1, 469.1 143.3 Q 466.8 140.5, 462.5 140.5 Q 458.2 140.5, 455.8 143.3 Q 453.5 146.1, 453.5 151.7 Q 453.5 157.4, 455.8 160.3 Q 458.2 163.2, 462.5 163.2 " fill="#000000"/>
<path class="atom-2" d="M 477.5 141.9 L 487.2 141.9 L 487.2 144.0 L 477.5 144.0 L 477.5 141.9 " fill="#000000"/>
<path class="atom-0" d="M 386.2,97.7 L 386.2,97.9 L 386.2,98.1 L 386.2,98.2 L 386.1,98.4 L 386.1,98.6 L 386.0,98.7 L 385.9,98.9 L 385.8,99.0 L 385.7,99.1 L 385.5,99.3 L 385.4,99.4 L 385.3,99.5 L 385.1,99.5 L 385.0,99.6 L 384.8,99.7 L 384.6,99.7 L 384.5,99.7 L 384.3,99.7 L 384.1,99.7 L 383.9,99.7 L 383.8,99.7 L 383.6,99.6 L 383.4,99.6 L 383.3,99.5 L 383.1,99.4 L 383.0,99.3 L 382.9,99.2 L 382.7,99.1 L 382.6,98.9 L 382.5,98.8 L 382.5,98.7 L 382.4,98.5 L 382.3,98.3 L 382.3,98.2 L 382.3,98.0 L 382.2,97.8 L 382.2,97.7 L 382.3,97.5 L 382.3,97.3 L 382.3,97.1 L 382.4,97.0 L 382.5,96.8 L 382.5,96.7 L 382.6,96.5 L 382.7,96.4 L 382.9,96.3 L 383.0,96.2 L 383.1,96.1 L 383.3,96.0 L 383.4,95.9 L 383.6,95.8 L 383.8,95.8 L 383.9,95.8 L 384.1,95.7 L 384.3,95.7 L 384.5,95.7 L 384.6,95.8 L 384.8,95.8 L 385.0,95.9 L 385.1,95.9 L 385.3,96.0 L 385.4,96.1 L 385.5,96.2 L 385.7,96.3 L 385.8,96.5 L 385.9,96.6 L 386.0,96.8 L 386.1,96.9 L 386.1,97.1 L 386.2,97.2 L 386.2,97.4 L 386.2,97.6 L 386.2,97.7 L 384.2,97.7 Z" style="fill:#000000;fill-rule:evenodd;fill-opacity:1;stroke:#000000;stroke-width:0.0px;stroke-linecap:butt;stroke-linejoin:miter;stroke-opacity:1;"/>
<path class="bond-0 atom-1 atom-0" d="M 667.8,83.8 L 666.9,82.9" style="fill:none;fill-rule:evenodd;stroke:#000000;stroke-width:1.0px;stroke-linecap:butt;stroke-linejoin:miter;stroke-opacity:1"/>
<path class="bond-0 atom-1 atom-0" d="M 672.0,80.5 L 670.0,78.6" style="fill:none;fill-rule:evenodd;stroke:#000000;stroke-width:1.0px;stroke-linecap:butt;stroke-linejoin:miter;stroke-opacity:1"/>
<path class="bond-0 atom-1 atom-0" d="M 676.2,77.1 L 673.2,74.3" style="fill:none;fill-rule:evenodd;stroke:#000000;stroke-width:1.0px;stroke-linecap:butt;stroke-linejoin:miter;stroke-opacity:1"/>
<path class="bond-0 atom-1 atom-0" d="M 680.3,73.8 L 676.4,70.0" style="fill:none;fill-rule:evenodd;stroke:#000000;stroke-width:1.0px;stroke-linecap:butt;stroke-linejoin:miter;stroke-opacity:1"/>
<path class="bond-0 atom-1 atom-0" d="M 684.5,70.5 L 679.6,65.7" style="fill:none;fill-rule:evenodd;stroke:#000000;stroke-width:1.0px;stroke-linecap:butt;stroke-linejoin:miter;stroke-opacity:1"/>
<path class="bond-0 atom-1 atom-0" d="M 688.7,67.1 L 682.8,61.5" style="fill:none;fill-rule:evenodd;stroke:#000000;stroke-width:1.0px;stroke-linecap:butt;stroke-linejoin:miter;stroke-opacity:1"/>
<path class="bond-1 atom-1 atom-2" d="M 663.7,87.1 L 677.9,125.6" style="fill:none;fill-rule:evenodd;stroke:#000000;stroke-width:2.0px;stroke-linecap:butt;stroke-linejoin:miter;stroke-opacity:1"/>
<path class="bond-2 atom-2 atom-3" d="M 677.9,125.6 L 656.7,160.6" style="fill:none;fill-rule:evenodd;stroke:#000000;stroke-width:2.0px;stroke-linecap:butt;stroke-linejoin:miter;stroke-opacity:1"/>
<path class="bond-2 atom-2 atom-3" d="M 681.7,135.1 L 666.9,159.6" style="fill:none;fill-rule:evenodd;stroke:#000000;stroke-width:2.0px;stroke-linecap:butt;stroke-linejoin:miter;stroke-opacity:1"/>
<path class="bond-3 atom-3 atom-4" d="M 656.7,160.6 L 676.5,196.5" style="fill:none;fill-rule:evenodd;stroke:#000000;stroke-width:2.0px;stroke-linecap:butt;stroke-linejoin:miter;stroke-opacity:1"/>
<path class="bond-4 atom-4 atom-5" d="M 676.5,196.5 L 717.5,197.3" style="fill:none;fill-rule:evenodd;stroke:#000000;stroke-width:2.0px;stroke-linecap:butt;stroke-linejoin:miter;stroke-opacity:1"/>
<path class="bond-4 atom-4 atom-5" d="M 682.8,188.4 L 711.5,189.0" style="fill:none;fill-rule:evenodd;stroke:#000000;stroke-width:2.0px;stroke-linecap:butt;stroke-linejoin:miter;stroke-opacity:1"/>
<path class="bond-5 atom-5 atom-6" d="M 717.5,197.3 L 738.6,162.2" style="fill:none;fill-rule:evenodd;stroke:#000000;stroke-width:2.0px;stroke-linecap:butt;stroke-linejoin:miter;stroke-opacity:1"/>
<path class="bond-6 atom-6 atom-7" d="M 738.6,162.2 L 718.9,126.4" style="fill:none;fill-rule:evenodd;stroke:#000000;stroke-width:2.0px;stroke-linecap:butt;stroke-linejoin:miter;stroke-opacity:1"/>
<path class="bond-6 atom-6 atom-7" d="M 728.5,160.8 L 714.6,135.7" style="fill:none;fill-rule:evenodd;stroke:#000000;stroke-width:2.0px;stroke-linecap:butt;stroke-linejoin:miter;stroke-opacity:1"/>
<path class="bond-7 atom-1 atom-8" d="M 663.7,87.1 L 630.5,76.2" style="fill:none;fill-rule:evenodd;stroke:#000000;stroke-width:2.0px;stroke-linecap:butt;stroke-linejoin:miter;stroke-opacity:1"/>
<path class="bond-8 atom-8 atom-9" d="M 619.0,78.1 L 590.5,96.7" style="fill:none;fill-rule:evenodd;stroke:#000000;stroke-width:2.0px;stroke-linecap:butt;stroke-linejoin:miter;stroke-opacity:1"/>
<path class="bond-8 atom-8 atom-9" d="M 619.2,87.7 L 599.3,100.8" style="fill:none;fill-rule:evenodd;stroke:#000000;stroke-width:2.0px;stroke-linecap:butt;stroke-linejoin:miter;stroke-opacity:1"/>
<path class="bond-9 atom-9 atom-10" d="M 590.5,96.7 L 586.6,137.5" style="fill:none;fill-rule:evenodd;stroke:#000000;stroke-width:2.0px;stroke-linecap:butt;stroke-linejoin:miter;stroke-opacity:1"/>
<path class="bond-10 atom-10 atom-11" d="M 586.6,137.5 L 548.2,151.7" style="fill:none;fill-rule:evenodd;stroke:#000000;stroke-width:2.0px;stroke-linecap:butt;stroke-linejoin:miter;stroke-opacity:1"/>
<path class="bond-11 atom-11 atom-12" d="M 552.2,152.4 L 546.6,185.6" style="fill:none;fill-rule:evenodd;stroke:#000000;stroke-width:2.0px;stroke-linecap:butt;stroke-linejoin:miter;stroke-opacity:1"/>
<path class="bond-11 atom-11 atom-12" d="M 544.2,151.0 L 538.5,184.2" style="fill:none;fill-rule:evenodd;stroke:#000000;stroke-width:2.0px;stroke-linecap:butt;stroke-linejoin:miter;stroke-opacity:1"/>
<path class="bond-12 atom-11 atom-13" d="M 548.2,151.7 L 523.4,131.1" style="fill:none;fill-rule:evenodd;stroke:#000000;stroke-width:2.0px;stroke-linecap:butt;stroke-linejoin:miter;stroke-opacity:1"/>
<path class="bond-13 atom-10 atom-14" d="M 586.6,137.5 L 610.4,160.4" style="fill:none;fill-rule:evenodd;stroke:#000000;stroke-width:2.0px;stroke-linecap:butt;stroke-linejoin:miter;stroke-opacity:1"/>
<path class="bond-13 atom-10 atom-14" d="M 595.9,135.0 L 612.5,151.1" style="fill:none;fill-rule:evenodd;stroke:#000000;stroke-width:2.0px;stroke-linecap:butt;stroke-linejoin:miter;stroke-opacity:1"/>
<path class="bond-14 atom-7 atom-2" d="M 718.9,126.4 L 677.9,125.6" style="fill:none;fill-rule:evenodd;stroke:#000000;stroke-width:2.0px;stroke-linecap:butt;stroke-linejoin:miter;stroke-opacity:1"/>
<path class="bond-15 atom-14 atom-3" d="M 621.9,165.2 L 656.7,160.6" style="fill:none;fill-rule:evenodd;stroke:#000000;stroke-width:2.0px;stroke-linecap:butt;stroke-linejoin:miter;stroke-opacity:1"/>
<path class="atom-0" d="M 691.8 51.9 Q 693.8 51.9, 694.8 52.8 Q 695.8 53.6, 695.8 55.3 Q 695.8 56.9, 694.8 57.8 Q 693.8 58.7, 691.8 58.7 L 690.0 58.7 L 690.0 63.5 L 688.4 63.5 L 688.4 51.9 L 691.8 51.9 M 691.8 57.4 Q 693.0 57.4, 693.6 56.8 Q 694.2 56.3, 694.2 55.3 Q 694.2 54.2, 693.6 53.7 Q 693.0 53.2, 691.8 53.2 L 690.0 53.2 L 690.0 57.4 L 691.8 57.4 " fill="#000000"/>
<path class="atom-0" d="M 696.6 51.9 L 698.2 51.9 L 698.2 56.8 L 704.1 56.8 L 704.1 51.9 L 705.7 51.9 L 705.7 63.5 L 704.1 63.5 L 704.1 58.1 L 698.2 58.1 L 698.2 63.5 L 696.6 63.5 L 696.6 51.9 " fill="#000000"/>
<path class="atom-8" d="M 622.2 68.5 L 626.0 74.6 Q 626.4 75.3, 627.0 76.4 Q 627.6 77.4, 627.6 77.5 L 627.6 68.5 L 629.2 68.5 L 629.2 80.1 L 627.6 80.1 L 623.5 73.4 Q 623.0 72.6, 622.5 71.7 Q 622.0 70.8, 621.9 70.5 L 621.9 80.1 L 620.4 80.1 L 620.4 68.5 L 622.2 68.5 " fill="#000000"/>
<path class="atom-12" d="M 536.0 192.1 Q 536.0 189.3, 537.4 187.8 Q 538.7 186.2, 541.3 186.2 Q 543.9 186.2, 545.3 187.8 Q 546.6 189.3, 546.6 192.1 Q 546.6 194.9, 545.2 196.5 Q 543.9 198.1, 541.3 198.1 Q 538.8 198.1, 537.4 196.5 Q 536.0 195.0, 536.0 192.1 M 541.3 196.8 Q 543.1 196.8, 544.0 195.6 Q 545.0 194.4, 545.0 192.1 Q 545.0 189.8, 544.0 188.7 Q 543.1 187.5, 541.3 187.5 Q 539.5 187.5, 538.6 188.7 Q 537.6 189.8, 537.6 192.1 Q 537.6 194.5, 538.6 195.6 Q 539.5 196.8, 541.3 196.8 " fill="#000000"/>
<path class="atom-13" d="M 511.4 125.6 Q 511.4 122.8, 512.7 121.2 Q 514.1 119.7, 516.7 119.7 Q 519.3 119.7, 520.6 121.2 Q 522.0 122.8, 522.0 125.6 Q 522.0 128.4, 520.6 130.0 Q 519.2 131.6, 516.7 131.6 Q 514.1 131.6, 512.7 130.0 Q 511.4 128.4, 511.4 125.6 M 516.7 130.3 Q 518.5 130.3, 519.4 129.1 Q 520.4 127.9, 520.4 125.6 Q 520.4 123.3, 519.4 122.2 Q 518.5 121.0, 516.7 121.0 Q 514.9 121.0, 514.0 122.1 Q 513.0 123.3, 513.0 125.6 Q 513.0 127.9, 514.0 129.1 Q 514.9 130.3, 516.7 130.3 " fill="#000000"/>
<path class="atom-13" d="M 522.8 121.6 L 526.8 121.6 L 526.8 122.4 L 522.8 122.4 L 522.8 121.6 " fill="#000000"/>
<path class="atom-14" d="M 613.5 160.1 L 617.3 166.3 Q 617.7 166.9, 618.3 168.0 Q 618.9 169.1, 619.0 169.2 L 619.0 160.1 L 620.5 160.1 L 620.5 171.7 L 618.9 171.7 L 614.8 165.0 Q 614.4 164.2, 613.9 163.3 Q 613.4 162.4, 613.2 162.2 L 613.2 171.7 L 611.7 171.7 L 611.7 160.1 L 613.5 160.1 " fill="#000000"/>
<path class="atom-0" d="M 709.0,57.7 L 709.0,57.7 L 708.9,57.8 L 708.9,57.9 L 708.9,57.9 L 708.9,58.0 L 708.8,58.1 L 708.8,58.1 L 708.8,58.2 L 708.7,58.2 L 708.7,58.3 L 708.6,58.3 L 708.6,58.4 L 708.5,58.4 L 708.4,58.4 L 708.4,58.5 L 708.3,58.5 L 708.2,58.5 L 708.2,58.5 L 708.1,58.5 L 708.0,58.5 L 707.9,58.5 L 707.9,58.4 L 707.8,58.4 L 707.7,58.4 L 707.7,58.3 L 707.6,58.3 L 707.6,58.3 L 707.5,58.2 L 707.5,58.2 L 707.4,58.1 L 707.4,58.0 L 707.4,58.0 L 707.4,57.9 L 707.3,57.8 L 707.3,57.8 L 707.3,57.7 L 707.3,57.6 L 707.3,57.6 L 707.3,57.5 L 707.4,57.4 L 707.4,57.4 L 707.4,57.3 L 707.4,57.2 L 707.5,57.2 L 707.5,57.1 L 707.6,57.1 L 707.6,57.0 L 707.7,57.0 L 707.7,56.9 L 707.8,56.9 L 707.9,56.9 L 707.9,56.9 L 708.0,56.9 L 708.1,56.8 L 708.2,56.8 L 708.2,56.8 L 708.3,56.9 L 708.4,56.9 L 708.4,56.9 L 708.5,56.9 L 708.6,57.0 L 708.6,57.0 L 708.7,57.0 L 708.7,57.1 L 708.8,57.1 L 708.8,57.2 L 708.8,57.3 L 708.9,57.3 L 708.9,57.4 L 708.9,57.5 L 708.9,57.5 L 709.0,57.6 L 709.0,57.7 L 708.1,57.7 Z" style="fill:#000000;fill-rule:evenodd;fill-opacity:1;stroke:#000000;stroke-width:0.0px;stroke-linecap:butt;stroke-linejoin:miter;stroke-opacity:1;"/>
<path class="bond-0 atom-0 atom-1" d="M 56.0,421.3 L 67.9,412.2" style="fill:none;fill-rule:evenodd;stroke:#000000;stroke-width:2.0px;stroke-linecap:butt;stroke-linejoin:miter;stroke-opacity:1"/>
<path class="bond-0 atom-0 atom-1" d="M 55.0,416.4 L 63.4,410.0" style="fill:none;fill-rule:evenodd;stroke:#000000;stroke-width:2.0px;stroke-linecap:butt;stroke-linejoin:miter;stroke-opacity:1"/>
<path class="bond-1 atom-1 atom-2" d="M 71.9,405.9 L 75.9,387.9" style="fill:none;fill-rule:evenodd;stroke:#000000;stroke-width:2.0px;stroke-linecap:butt;stroke-linejoin:miter;stroke-opacity:1"/>
<path class="bond-2 atom-2 atom-3" d="M 75.9,387.9 L 98.2,385.0" style="fill:none;fill-rule:evenodd;stroke:#000000;stroke-width:2.0px;stroke-linecap:butt;stroke-linejoin:miter;stroke-opacity:1"/>
<path class="bond-3 atom-3 atom-4" d="M 98.2,385.0 L 107.2,400.4" style="fill:none;fill-rule:evenodd;stroke:#000000;stroke-width:2.0px;stroke-linecap:butt;stroke-linejoin:miter;stroke-opacity:1"/>
<path class="bond-4 atom-2 atom-5" d="M 75.9,387.9 L 65.6,367.9" style="fill:none;fill-rule:evenodd;stroke:#000000;stroke-width:2.0px;stroke-linecap:butt;stroke-linejoin:miter;stroke-opacity:1"/>
<path class="bond-5 atom-5 atom-6" d="M 65.6,367.9 L 80.3,356.7" style="fill:none;fill-rule:evenodd;stroke:#000000;stroke-width:2.0px;stroke-linecap:butt;stroke-linejoin:miter;stroke-opacity:1"/>
<path class="bond-6 atom-6 atom-7" d="M 82.9,350.4 L 80.5,332.0" style="fill:none;fill-rule:evenodd;stroke:#000000;stroke-width:2.0px;stroke-linecap:butt;stroke-linejoin:miter;stroke-opacity:1"/>
<path class="bond-7 atom-7 atom-8" d="M 80.5,332.0 L 59.8,323.4" style="fill:none;fill-rule:evenodd;stroke:#000000;stroke-width:2.0px;stroke-linecap:butt;stroke-linejoin:miter;stroke-opacity:1"/>
<path class="bond-7 atom-7 atom-8" d="M 75.7,334.9 L 61.2,328.9" style="fill:none;fill-rule:evenodd;stroke:#000000;stroke-width:2.0px;stroke-linecap:butt;stroke-linejoin:miter;stroke-opacity:1"/>
<path class="bond-8 atom-8 atom-9" d="M 59.8,323.4 L 42.0,337.1" style="fill:none;fill-rule:evenodd;stroke:#000000;stroke-width:2.0px;stroke-linecap:butt;stroke-linejoin:miter;stroke-opacity:1"/>
<path class="bond-9 atom-9 atom-10" d="M 42.0,337.1 L 44.9,359.3" style="fill:none;fill-rule:evenodd;stroke:#000000;stroke-width:2.0px;stroke-linecap:butt;stroke-linejoin:miter;stroke-opacity:1"/>
<path class="bond-9 atom-9 atom-10" d="M 46.8,339.8 L 48.9,355.4" style="fill:none;fill-rule:evenodd;stroke:#000000;stroke-width:2.0px;stroke-linecap:butt;stroke-linejoin:miter;stroke-opacity:1"/>
<path class="bond-10 atom-10 atom-11" d="M 44.9,359.3 L 27.1,364.9" style="fill:none;fill-rule:evenodd;stroke:#000000;stroke-width:2.0px;stroke-linecap:butt;stroke-linejoin:miter;stroke-opacity:1"/>
<path class="bond-11 atom-11 atom-12" d="M 20.9,370.1 L 11.4,384.9" style="fill:none;fill-rule:evenodd;stroke:#000000;stroke-width:2.0px;stroke-linecap:butt;stroke-linejoin:miter;stroke-opacity:1"/>
<path class="bond-12 atom-12 atom-13" d="M 11.4,384.9 L 14.3,407.2" style="fill:none;fill-rule:evenodd;stroke:#000000;stroke-width:2.0px;stroke-linecap:butt;stroke-linejoin:miter;stroke-opacity:1"/>
<path class="bond-13 atom-13 atom-14" d="M 14.3,407.2 L 27.7,419.5" style="fill:none;fill-rule:evenodd;stroke:#000000;stroke-width:2.0px;stroke-linecap:butt;stroke-linejoin:miter;stroke-opacity:1"/>
<path class="bond-14 atom-14 atom-15" d="M 33.3,418.5 L 42.7,403.9" style="fill:none;fill-rule:evenodd;stroke:#000000;stroke-width:2.0px;stroke-linecap:butt;stroke-linejoin:miter;stroke-opacity:1"/>
<path class="bond-15 atom-15 atom-16" d="M 42.7,403.9 L 42.8,404.6" style="fill:none;fill-rule:evenodd;stroke:#000000;stroke-width:2.0px;stroke-linecap:butt;stroke-linejoin:miter;stroke-opacity:1"/>
<path class="bond-15 atom-15 atom-16" d="M 38.2,404.3 L 38.3,404.8" style="fill:none;fill-rule:evenodd;stroke:#000000;stroke-width:2.0px;stroke-linecap:butt;stroke-linejoin:miter;stroke-opacity:1"/>
<path class="bond-16 atom-16 atom-17" d="M 42.8,404.6 L 54.5,386.3" style="fill:none;fill-rule:evenodd;stroke:#000000;stroke-width:2.0px;stroke-linecap:butt;stroke-linejoin:miter;stroke-opacity:1"/>
<path class="bond-17 atom-17 atom-18" d="M 54.5,386.3 L 53.8,386.5" style="fill:none;fill-rule:evenodd;stroke:#000000;stroke-width:2.0px;stroke-linecap:butt;stroke-linejoin:miter;stroke-opacity:1"/>
<path class="bond-17 atom-17 atom-18" d="M 55.9,390.5 L 55.4,390.7" style="fill:none;fill-rule:evenodd;stroke:#000000;stroke-width:2.0px;stroke-linecap:butt;stroke-linejoin:miter;stroke-opacity:1"/>
<path class="bond-18 atom-18 atom-19" d="M 53.8,386.5 L 98.9,373.7" style="fill:none;fill-rule:evenodd;stroke:#000000;stroke-width:2.0px;stroke-linecap:butt;stroke-linejoin:miter;stroke-opacity:1"/>
<path class="bond-19 atom-19 atom-20" d="M 108.1,376.7 L 120.9,384.9" style="fill:none;fill-rule:evenodd;stroke:#000000;stroke-width:2.0px;stroke-linecap:butt;stroke-linejoin:miter;stroke-opacity:1"/>
<path class="bond-20 atom-20 atom-21" d="M 123.2,384.7 L 124.6,403.1" style="fill:none;fill-rule:evenodd;stroke:#000000;stroke-width:2.0px;stroke-linecap:butt;stroke-linejoin:miter;stroke-opacity:1"/>
<path class="bond-20 atom-20 atom-21" d="M 118.7,385.0 L 120.1,403.5" style="fill:none;fill-rule:evenodd;stroke:#000000;stroke-width:2.0px;stroke-linecap:butt;stroke-linejoin:miter;stroke-opacity:1"/>
<path class="bond-21 atom-20 atom-22" d="M 120.9,384.9 L 140.9,374.5" style="fill:none;fill-rule:evenodd;stroke:#000000;stroke-width:2.0px;stroke-linecap:butt;stroke-linejoin:miter;stroke-opacity:1"/>
<path class="bond-22 atom-22 atom-23" d="M 140.9,374.5 L 159.8,386.6" style="fill:none;fill-rule:evenodd;stroke:#000000;stroke-width:2.0px;stroke-linecap:butt;stroke-linejoin:miter;stroke-opacity:1"/>
<path class="bond-22 atom-22 atom-23" d="M 141.3,380.1 L 154.5,388.6" style="fill:none;fill-rule:evenodd;stroke:#000000;stroke-width:2.0px;stroke-linecap:butt;stroke-linejoin:miter;stroke-opacity:1"/>
<path class="bond-23 atom-23 atom-24" d="M 159.8,386.6 L 179.7,376.3" style="fill:none;fill-rule:evenodd;stroke:#000000;stroke-width:2.0px;stroke-linecap:butt;stroke-linejoin:miter;stroke-opacity:1"/>
<path class="bond-24 atom-24 atom-25" d="M 179.7,376.3 L 198.6,388.4" style="fill:none;fill-rule:evenodd;stroke:#000000;stroke-width:2.0px;stroke-linecap:butt;stroke-linejoin:miter;stroke-opacity:1"/>
<path class="bond-25 atom-25 atom-26" d="M 198.6,388.4 L 218.5,378.0" style="fill:none;fill-rule:evenodd;stroke:#000000;stroke-width:2.0px;stroke-linecap:butt;stroke-linejoin:miter;stroke-opacity:1"/>
<path class="bond-26 atom-26 atom-27" d="M 219.7,376.1 L 238.6,388.2" style="fill:none;fill-rule:evenodd;stroke:#000000;stroke-width:2.0px;stroke-linecap:butt;stroke-linejoin:miter;stroke-opacity:1"/>
<path class="bond-26 atom-26 atom-27" d="M 217.3,379.9 L 236.2,392.0" style="fill:none;fill-rule:evenodd;stroke:#000000;stroke-width:2.0px;stroke-linecap:butt;stroke-linejoin:miter;stroke-opacity:1"/>
<path class="bond-27 atom-14 atom-0" d="M 33.9,422.5 L 50.5,423.3" style="fill:none;fill-rule:evenodd;stroke:#000000;stroke-width:2.0px;stroke-linecap:butt;stroke-linejoin:miter;stroke-opacity:1"/>
<path class="bond-28 atom-10 atom-5" d="M 44.9,359.3 L 65.6,367.9" style="fill:none;fill-rule:evenodd;stroke:#000000;stroke-width:2.0px;stroke-linecap:butt;stroke-linejoin:miter;stroke-opacity:1"/>
<path class="bond-29 atom-18 atom-5" d="M 53.8,386.5 L 65.6,367.9" style="fill:none;fill-rule:evenodd;stroke:#000000;stroke-width:2.0px;stroke-linecap:butt;stroke-linejoin:miter;stroke-opacity:1"/>
<path class="atom-0" d="M 53.1 420.2 Q 54.1 420.2, 54.7 420.7 Q 55.2 421.2, 55.2 422.1 Q 55.2 423.0, 54.7 423.5 Q 54.1 424.0, 53.1 424.0 L 52.0 424.0 L 52.0 426.6 L 51.2 426.6 L 51.2 420.2 L 53.1 420.2 M 53.1 423.2 Q 53.7 423.2, 54.0 422.9 Q 54.3 422.6, 54.3 422.1 Q 54.3 421.5, 54.0 421.2 Q 53.7 420.9, 53.1 420.9 L 52.0 420.9 L 52.0 423.2 L 53.1 423.2 " fill="#000000"/>
<path class="atom-1" d="M 69.6 406.6 L 71.7 409.9 Q 71.9 410.3, 72.2 410.9 Q 72.6 411.5, 72.6 411.5 L 72.6 406.6 L 73.4 406.6 L 73.4 412.9 L 72.6 412.9 L 70.3 409.3 Q 70.1 408.8, 69.8 408.3 Q 69.5 407.8, 69.4 407.7 L 69.4 412.9 L 68.6 412.9 L 68.6 406.6 L 69.6 406.6 " fill="#000000"/>
<path class="atom-4" d="M 106.6 404.3 Q 106.6 402.8, 107.4 401.9 Q 108.1 401.1, 109.5 401.1 Q 110.9 401.1, 111.7 401.9 Q 112.4 402.8, 112.4 404.3 Q 112.4 405.9, 111.7 406.8 Q 110.9 407.6, 109.5 407.6 Q 108.1 407.6, 107.4 406.8 Q 106.6 405.9, 106.6 404.3 M 109.5 406.9 Q 110.5 406.9, 111.0 406.3 Q 111.6 405.6, 111.6 404.3 Q 111.6 403.1, 111.0 402.5 Q 110.5 401.8, 109.5 401.8 Q 108.6 401.8, 108.0 402.4 Q 107.5 403.1, 107.5 404.3 Q 107.5 405.6, 108.0 406.3 Q 108.6 406.9, 109.5 406.9 " fill="#000000"/>
<path class="atom-4" d="M 112.9 401.2 L 113.8 401.2 L 113.8 403.9 L 117.0 403.9 L 117.0 401.2 L 117.9 401.2 L 117.9 407.5 L 117.0 407.5 L 117.0 404.6 L 113.8 404.6 L 113.8 407.5 L 112.9 407.5 L 112.9 401.2 " fill="#000000"/>
<path class="atom-6" d="M 82.0 351.1 L 84.1 354.5 Q 84.3 354.8, 84.6 355.4 Q 85.0 356.0, 85.0 356.1 L 85.0 351.1 L 85.8 351.1 L 85.8 357.5 L 84.9 357.5 L 82.7 353.8 Q 82.4 353.4, 82.2 352.9 Q 81.9 352.4, 81.8 352.2 L 81.8 357.5 L 81.0 357.5 L 81.0 351.1 L 82.0 351.1 " fill="#000000"/>
<path class="atom-6" d="M 86.6 351.1 L 87.4 351.1 L 87.4 353.8 L 90.7 353.8 L 90.7 351.1 L 91.5 351.1 L 91.5 357.5 L 90.7 357.5 L 90.7 354.5 L 87.4 354.5 L 87.4 357.5 L 86.6 357.5 L 86.6 351.1 " fill="#000000"/>
<path class="atom-6" d="M 92.3 357.3 Q 92.5 356.9, 92.8 356.6 Q 93.2 356.4, 93.7 356.4 Q 94.3 356.4, 94.7 356.8 Q 95.1 357.1, 95.1 357.7 Q 95.1 358.3, 94.6 358.9 Q 94.1 359.5, 93.2 360.2 L 95.1 360.2 L 95.1 360.7 L 92.3 360.7 L 92.3 360.3 Q 93.1 359.7, 93.5 359.3 Q 94.0 358.9, 94.2 358.5 Q 94.5 358.1, 94.5 357.7 Q 94.5 357.3, 94.3 357.1 Q 94.1 356.9, 93.7 356.9 Q 93.4 356.9, 93.1 357.0 Q 92.9 357.2, 92.8 357.5 L 92.3 357.3 " fill="#000000"/>
<path class="atom-6" d="M 92.3 352.3 L 93.4 352.3 L 93.4 351.1 L 93.9 351.1 L 93.9 352.3 L 95.1 352.3 L 95.1 352.7 L 93.9 352.7 L 93.9 353.9 L 93.4 353.9 L 93.4 352.7 L 92.3 352.7 L 92.3 352.3 " fill="#000000"/>
<path class="atom-11" d="M 20.5 366.1 Q 20.5 364.5, 21.3 363.7 Q 22.0 362.8, 23.4 362.8 Q 24.9 362.8, 25.6 363.7 Q 26.4 364.5, 26.4 366.1 Q 26.4 367.6, 25.6 368.5 Q 24.8 369.3, 23.4 369.3 Q 22.0 369.3, 21.3 368.5 Q 20.5 367.6, 20.5 366.1 M 23.4 368.6 Q 24.4 368.6, 24.9 368.0 Q 25.5 367.3, 25.5 366.1 Q 25.5 364.8, 24.9 364.2 Q 24.4 363.5, 23.4 363.5 Q 22.5 363.5, 21.9 364.2 Q 21.4 364.8, 21.4 366.1 Q 21.4 367.3, 21.9 368.0 Q 22.5 368.6, 23.4 368.6 " fill="#000000"/>
<path class="atom-14" d="M 29.4 419.2 L 31.5 422.6 Q 31.7 422.9, 32.0 423.5 Q 32.3 424.1, 32.4 424.1 L 32.4 419.2 L 33.2 419.2 L 33.2 425.6 L 32.3 425.6 L 30.1 421.9 Q 29.8 421.5, 29.6 421.0 Q 29.3 420.5, 29.2 420.3 L 29.2 425.6 L 28.4 425.6 L 28.4 419.2 L 29.4 419.2 " fill="#000000"/>
<path class="atom-19" d="M 100.6 369.6 L 102.7 373.0 Q 102.9 373.3, 103.2 373.9 Q 103.6 374.5, 103.6 374.5 L 103.6 369.6 L 104.4 369.6 L 104.4 376.0 L 103.6 376.0 L 101.3 372.3 Q 101.1 371.9, 100.8 371.4 Q 100.5 370.9, 100.4 370.7 L 100.4 376.0 L 99.6 376.0 L 99.6 369.6 L 100.6 369.6 " fill="#000000"/>
<path class="atom-19" d="M 105.2 369.6 L 106.0 369.6 L 106.0 372.3 L 109.3 372.3 L 109.3 369.6 L 110.2 369.6 L 110.2 376.0 L 109.3 376.0 L 109.3 373.0 L 106.0 373.0 L 106.0 376.0 L 105.2 376.0 L 105.2 369.6 " fill="#000000"/>
<path class="atom-21" d="M 119.7 407.3 Q 119.7 405.7, 120.5 404.9 Q 121.3 404.0, 122.7 404.0 Q 124.1 404.0, 124.8 404.9 Q 125.6 405.7, 125.6 407.3 Q 125.6 408.8, 124.8 409.7 Q 124.1 410.6, 122.7 410.6 Q 121.3 410.6, 120.5 409.7 Q 119.7 408.8, 119.7 407.3 M 122.7 409.8 Q 123.6 409.8, 124.2 409.2 Q 124.7 408.5, 124.7 407.3 Q 124.7 406.0, 124.2 405.4 Q 123.6 404.7, 122.7 404.7 Q 121.7 404.7, 121.2 405.4 Q 120.6 406.0, 120.6 407.3 Q 120.6 408.5, 121.2 409.2 Q 121.7 409.8, 122.7 409.8 " fill="#000000"/>
<path class="atom-15" d="M 41.2,402.4 L 41.2,405.4 L 44.2,405.4 L 44.2,402.4 L 41.2,402.4" style="fill:none;stroke:#FF0000;stroke-width:2.0px;stroke-linecap:butt;stroke-linejoin:miter;stroke-opacity:1;"/>
<path class="atom-17" d="M 53.0,384.8 L 53.0,387.8 L 56.0,387.8 L 56.0,384.8 L 53.0,384.8" style="fill:none;stroke:#FF0000;stroke-width:2.0px;stroke-linecap:butt;stroke-linejoin:miter;stroke-opacity:1;"/>
<path class="bond-0 atom-0 atom-1" d="M 397.9,359.0 L 287.9,295.4" style="fill:none;fill-rule:evenodd;stroke:#000000;stroke-width:2.0px;stroke-linecap:butt;stroke-linejoin:miter;stroke-opacity:1"/>
<path class="bond-1 atom-1 atom-2" d="M 287.9,295.4 L 287.9,421.5" style="fill:none;fill-rule:evenodd;stroke:#000000;stroke-width:2.0px;stroke-linecap:butt;stroke-linejoin:miter;stroke-opacity:1"/>
<path class="bond-1 atom-1 atom-2" d="M 316.9,314.3 L 316.9,402.6" style="fill:none;fill-rule:evenodd;stroke:#000000;stroke-width:2.0px;stroke-linecap:butt;stroke-linejoin:miter;stroke-opacity:1"/>
<path class="bond-2 atom-2 atom-0" d="M 303.4,431.4 L 397.9,376.9" style="fill:none;fill-rule:evenodd;stroke:#000000;stroke-width:2.0px;stroke-linecap:butt;stroke-linejoin:miter;stroke-opacity:1"/>
<path class="atom-0" d="M 407.2 353.8 L 416.4 368.8 Q 417.4 370.2, 418.8 372.9 Q 420.3 375.6, 420.4 375.8 L 420.4 353.8 L 424.2 353.8 L 424.2 382.1 L 420.3 382.1 L 410.3 365.7 Q 409.2 363.8, 407.9 361.6 Q 406.7 359.4, 406.4 358.7 L 406.4 382.1 L 402.7 382.1 L 402.7 353.8 L 407.2 353.8 " fill="#000000"/>
<path class="atom-0" d="M 427.5 353.8 L 431.3 353.8 L 431.3 365.8 L 445.8 365.8 L 445.8 353.8 L 449.6 353.8 L 449.6 382.1 L 445.8 382.1 L 445.8 369.0 L 431.3 369.0 L 431.3 382.1 L 427.5 382.1 L 427.5 353.8 " fill="#000000"/>
<path class="atom-0" d="M 453.0 358.9 L 458.0 358.9 L 458.0 353.6 L 460.2 353.6 L 460.2 358.9 L 465.4 358.9 L 465.4 360.8 L 460.2 360.8 L 460.2 366.0 L 458.0 366.0 L 458.0 360.8 L 453.0 360.8 L 453.0 358.9 " fill="#000000"/>
<path class="atom-2" d="M 281.6 426.2 L 290.9 441.2 Q 291.8 442.7, 293.3 445.4 Q 294.8 448.1, 294.9 448.2 L 294.9 426.2 L 298.6 426.2 L 298.6 454.6 L 294.7 454.6 L 284.8 438.2 Q 283.6 436.2, 282.4 434.0 Q 281.2 431.8, 280.8 431.2 L 280.8 454.6 L 277.1 454.6 L 277.1 426.2 L 281.6 426.2 " fill="#000000"/>
<path class="atom-0" d="M 473.4,367.9 L 473.4,368.1 L 473.3,368.3 L 473.3,368.4 L 473.2,368.6 L 473.2,368.8 L 473.1,368.9 L 473.0,369.1 L 472.9,369.2 L 472.8,369.3 L 472.7,369.4 L 472.5,369.5 L 472.4,369.6 L 472.2,369.7 L 472.1,369.8 L 471.9,369.8 L 471.7,369.9 L 471.6,369.9 L 471.4,369.9 L 471.2,369.9 L 471.1,369.9 L 470.9,369.9 L 470.7,369.8 L 470.6,369.8 L 470.4,369.7 L 470.3,369.6 L 470.1,369.5 L 470.0,369.4 L 469.9,369.3 L 469.8,369.1 L 469.7,369.0 L 469.6,368.8 L 469.5,368.7 L 469.5,368.5 L 469.4,368.3 L 469.4,368.2 L 469.4,368.0 L 469.4,367.8 L 469.4,367.7 L 469.4,367.5 L 469.5,367.3 L 469.5,367.2 L 469.6,367.0 L 469.7,366.9 L 469.8,366.7 L 469.9,366.6 L 470.0,366.5 L 470.1,366.3 L 470.3,366.2 L 470.4,366.2 L 470.6,366.1 L 470.7,366.0 L 470.9,366.0 L 471.1,365.9 L 471.2,365.9 L 471.4,365.9 L 471.6,365.9 L 471.7,366.0 L 471.9,366.0 L 472.1,366.1 L 472.2,366.1 L 472.4,366.2 L 472.5,366.3 L 472.7,366.4 L 472.8,366.5 L 472.9,366.6 L 473.0,366.8 L 473.1,366.9 L 473.2,367.1 L 473.2,367.2 L 473.3,367.4 L 473.3,367.6 L 473.4,367.7 L 473.4,367.9 L 471.4,367.9 Z" style="fill:#000000;fill-rule:evenodd;fill-opacity:1;stroke:#000000;stroke-width:0.0px;stroke-linecap:butt;stroke-linejoin:miter;stroke-opacity:1;"/>
<path class="bond-0 atom-0 atom-1" d="M 625.5,395.0 L 592.9,371.5" style="fill:none;fill-rule:evenodd;stroke:#000000;stroke-width:2.0px;stroke-linecap:butt;stroke-linejoin:miter;stroke-opacity:1"/>
<path class="bond-1 atom-1 atom-2" d="M 592.9,371.5 L 549.7,390.9" style="fill:none;fill-rule:evenodd;stroke:#000000;stroke-width:2.0px;stroke-linecap:butt;stroke-linejoin:miter;stroke-opacity:1"/>
<path class="bond-1 atom-1 atom-2" d="M 582.6,365.8 L 552.3,379.3" style="fill:none;fill-rule:evenodd;stroke:#000000;stroke-width:2.0px;stroke-linecap:butt;stroke-linejoin:miter;stroke-opacity:1"/>
<path class="bond-2 atom-2 atom-3" d="M 549.7,390.9 L 511.4,363.1" style="fill:none;fill-rule:evenodd;stroke:#000000;stroke-width:2.0px;stroke-linecap:butt;stroke-linejoin:miter;stroke-opacity:1"/>
<path class="bond-3 atom-3 atom-4" d="M 511.4,363.1 L 516.2,316.0" style="fill:none;fill-rule:evenodd;stroke:#000000;stroke-width:2.0px;stroke-linecap:butt;stroke-linejoin:miter;stroke-opacity:1"/>
<path class="bond-3 atom-3 atom-4" d="M 521.5,357.0 L 524.9,324.0" style="fill:none;fill-rule:evenodd;stroke:#000000;stroke-width:2.0px;stroke-linecap:butt;stroke-linejoin:miter;stroke-opacity:1"/>
<path class="bond-4 atom-4 atom-5" d="M 516.2,316.0 L 559.4,296.7" style="fill:none;fill-rule:evenodd;stroke:#000000;stroke-width:2.0px;stroke-linecap:butt;stroke-linejoin:miter;stroke-opacity:1"/>
<path class="bond-5 atom-5 atom-6" d="M 559.4,296.7 L 597.8,324.4" style="fill:none;fill-rule:evenodd;stroke:#000000;stroke-width:2.0px;stroke-linecap:butt;stroke-linejoin:miter;stroke-opacity:1"/>
<path class="bond-5 atom-5 atom-6" d="M 559.6,308.5 L 586.5,327.9" style="fill:none;fill-rule:evenodd;stroke:#000000;stroke-width:2.0px;stroke-linecap:butt;stroke-linejoin:miter;stroke-opacity:1"/>
<path class="bond-6 atom-6 atom-7" d="M 597.8,324.4 L 641.0,305.1" style="fill:none;fill-rule:evenodd;stroke:#000000;stroke-width:2.0px;stroke-linecap:butt;stroke-linejoin:miter;stroke-opacity:1"/>
<path class="bond-7 atom-7 atom-8" d="M 641.0,305.1 L 679.4,332.8" style="fill:none;fill-rule:evenodd;stroke:#000000;stroke-width:2.0px;stroke-linecap:butt;stroke-linejoin:miter;stroke-opacity:1"/>
<path class="bond-7 atom-7 atom-8" d="M 641.2,316.9 L 668.1,336.3" style="fill:none;fill-rule:evenodd;stroke:#000000;stroke-width:2.0px;stroke-linecap:butt;stroke-linejoin:miter;stroke-opacity:1"/>
<path class="bond-8 atom-8 atom-9" d="M 679.4,332.8 L 715.9,316.4" style="fill:none;fill-rule:evenodd;stroke:#000000;stroke-width:2.0px;stroke-linecap:butt;stroke-linejoin:miter;stroke-opacity:1"/>
<path class="bond-9 atom-0 atom-10" d="M 635.2,408.0 L 632.0,438.5" style="fill:none;fill-rule:evenodd;stroke:#000000;stroke-width:2.0px;stroke-linecap:butt;stroke-linejoin:miter;stroke-opacity:1"/>
<path class="bond-9 atom-0 atom-10" d="M 625.7,407.0 L 622.6,437.5" style="fill:none;fill-rule:evenodd;stroke:#000000;stroke-width:2.0px;stroke-linecap:butt;stroke-linejoin:miter;stroke-opacity:1"/>
<path class="bond-10 atom-0 atom-11" d="M 637.1,396.6 L 666.8,383.4" style="fill:none;fill-rule:evenodd;stroke:#000000;stroke-width:2.0px;stroke-linecap:butt;stroke-linejoin:miter;stroke-opacity:1"/>
<path class="bond-11 atom-6 atom-1" d="M 597.8,324.4 L 592.9,371.5" style="fill:none;fill-rule:evenodd;stroke:#000000;stroke-width:2.0px;stroke-linecap:butt;stroke-linejoin:miter;stroke-opacity:1"/>
<path class="atom-0" d="M 631.0 392.6 Q 633.3 392.6, 634.4 393.6 Q 635.6 394.6, 635.6 396.5 Q 635.6 398.4, 634.4 399.4 Q 633.2 400.5, 631.0 400.5 L 628.8 400.5 L 628.8 406.0 L 627.0 406.0 L 627.0 392.6 L 631.0 392.6 M 631.0 398.9 Q 632.3 398.9, 633.0 398.3 Q 633.7 397.7, 633.7 396.5 Q 633.7 395.3, 633.0 394.7 Q 632.3 394.1, 631.0 394.1 L 628.8 394.1 L 628.8 398.9 L 631.0 398.9 " fill="#000000"/>
<path class="atom-9" d="M 719.6 306.8 L 724.0 313.9 Q 724.5 314.6, 725.2 315.8 Q 725.9 317.1, 725.9 317.2 L 725.9 306.8 L 727.7 306.8 L 727.7 320.2 L 725.8 320.2 L 721.1 312.4 Q 720.6 311.5, 720.0 310.5 Q 719.4 309.4, 719.2 309.1 L 719.2 320.2 L 717.5 320.2 L 717.5 306.8 L 719.6 306.8 " fill="#000000"/>
<path class="atom-9" d="M 729.2 309.2 L 731.6 309.2 L 731.6 306.7 L 732.7 306.7 L 732.7 309.2 L 735.1 309.2 L 735.1 310.1 L 732.7 310.1 L 732.7 312.6 L 731.6 312.6 L 731.6 310.1 L 729.2 310.1 L 729.2 309.2 " fill="#000000"/>
<path class="atom-10" d="M 620.3 446.4 Q 620.3 443.2, 621.9 441.4 Q 623.5 439.6, 626.4 439.6 Q 629.4 439.6, 631.0 441.4 Q 632.6 443.2, 632.6 446.4 Q 632.6 449.7, 631.0 451.5 Q 629.4 453.3, 626.4 453.3 Q 623.5 453.3, 621.9 451.5 Q 620.3 449.7, 620.3 446.4 M 626.4 451.8 Q 628.5 451.8, 629.6 450.5 Q 630.7 449.1, 630.7 446.4 Q 630.7 443.8, 629.6 442.4 Q 628.5 441.1, 626.4 441.1 Q 624.4 441.1, 623.3 442.4 Q 622.2 443.7, 622.2 446.4 Q 622.2 449.1, 623.3 450.5 Q 624.4 451.8, 626.4 451.8 " fill="#000000"/>
<path class="atom-11" d="M 668.4 380.0 Q 668.4 376.7, 670.0 374.9 Q 671.5 373.1, 674.5 373.1 Q 677.5 373.1, 679.1 374.9 Q 680.7 376.7, 680.7 380.0 Q 680.7 383.2, 679.1 385.1 Q 677.5 386.9, 674.5 386.9 Q 671.6 386.9, 670.0 385.1 Q 668.4 383.2, 668.4 380.0 M 674.5 385.4 Q 676.6 385.4, 677.7 384.0 Q 678.8 382.6, 678.8 380.0 Q 678.8 377.3, 677.7 376.0 Q 676.6 374.6, 674.5 374.6 Q 672.5 374.6, 671.4 376.0 Q 670.3 377.3, 670.3 380.0 Q 670.3 382.7, 671.4 384.0 Q 672.5 385.4, 674.5 385.4 " fill="#000000"/>
<path class="atom-11" d="M 681.6 375.3 L 686.2 375.3 L 686.2 376.3 L 681.6 376.3 L 681.6 375.3 " fill="#000000"/>
<path class="atom-0" d="M 639.4,399.3 L 639.4,399.3 L 639.4,399.4 L 639.3,399.5 L 639.3,399.6 L 639.3,399.7 L 639.2,399.7 L 639.2,399.8 L 639.2,399.9 L 639.1,399.9 L 639.0,400.0 L 639.0,400.0 L 638.9,400.1 L 638.8,400.1 L 638.8,400.1 L 638.7,400.2 L 638.6,400.2 L 638.5,400.2 L 638.4,400.2 L 638.4,400.2 L 638.3,400.2 L 638.2,400.2 L 638.1,400.2 L 638.0,400.1 L 638.0,400.1 L 637.9,400.1 L 637.8,400.0 L 637.8,400.0 L 637.7,399.9 L 637.7,399.8 L 637.6,399.8 L 637.6,399.7 L 637.5,399.6 L 637.5,399.5 L 637.5,399.5 L 637.5,399.4 L 637.5,399.3 L 637.5,399.2 L 637.5,399.1 L 637.5,399.1 L 637.5,399.0 L 637.5,398.9 L 637.6,398.8 L 637.6,398.8 L 637.7,398.7 L 637.7,398.6 L 637.8,398.6 L 637.8,398.5 L 637.9,398.5 L 638.0,398.4 L 638.0,398.4 L 638.1,398.4 L 638.2,398.3 L 638.3,398.3 L 638.4,398.3 L 638.4,398.3 L 638.5,398.3 L 638.6,398.3 L 638.7,398.3 L 638.8,398.4 L 638.8,398.4 L 638.9,398.4 L 639.0,398.5 L 639.0,398.5 L 639.1,398.6 L 639.2,398.7 L 639.2,398.7 L 639.2,398.8 L 639.3,398.9 L 639.3,398.9 L 639.3,399.0 L 639.4,399.1 L 639.4,399.2 L 639.4,399.3 L 638.4,399.3 Z" style="fill:#000000;fill-rule:evenodd;fill-opacity:1;stroke:#000000;stroke-width:0.0px;stroke-linecap:butt;stroke-linejoin:miter;stroke-opacity:1;"/>
<path class="atom-9" d="M 738.9,308.7 L 738.9,308.8 L 738.9,308.9 L 738.8,309.0 L 738.8,309.1 L 738.8,309.1 L 738.7,309.2 L 738.7,309.3 L 738.7,309.3 L 738.6,309.4 L 738.5,309.5 L 738.5,309.5 L 738.4,309.5 L 738.3,309.6 L 738.3,309.6 L 738.2,309.6 L 738.1,309.7 L 738.0,309.7 L 737.9,309.7 L 737.9,309.7 L 737.8,309.7 L 737.7,309.7 L 737.6,309.6 L 737.5,309.6 L 737.5,309.6 L 737.4,309.5 L 737.3,309.5 L 737.3,309.4 L 737.2,309.4 L 737.2,309.3 L 737.1,309.2 L 737.1,309.2 L 737.0,309.1 L 737.0,309.0 L 737.0,308.9 L 737.0,308.9 L 737.0,308.8 L 737.0,308.7 L 737.0,308.6 L 737.0,308.5 L 737.0,308.5 L 737.0,308.4 L 737.1,308.3 L 737.1,308.2 L 737.2,308.2 L 737.2,308.1 L 737.3,308.0 L 737.3,308.0 L 737.4,307.9 L 737.5,307.9 L 737.5,307.9 L 737.6,307.8 L 737.7,307.8 L 737.8,307.8 L 737.9,307.8 L 737.9,307.8 L 738.0,307.8 L 738.1,307.8 L 738.2,307.8 L 738.3,307.9 L 738.3,307.9 L 738.4,307.9 L 738.5,308.0 L 738.5,308.0 L 738.6,308.1 L 738.7,308.1 L 738.7,308.2 L 738.7,308.3 L 738.8,308.3 L 738.8,308.4 L 738.8,308.5 L 738.9,308.6 L 738.9,308.7 L 738.9,308.7 L 737.9,308.7 Z" style="fill:#000000;fill-rule:evenodd;fill-opacity:1;stroke:#000000;stroke-width:0.0px;stroke-linecap:butt;stroke-linejoin:miter;stroke-opacity:1;"/>
<path class="atom-9" d="M 738.9,318.2 L 738.9,318.3 L 738.9,318.4 L 738.8,318.4 L 738.8,318.5 L 738.8,318.6 L 738.7,318.7 L 738.7,318.7 L 738.7,318.8 L 738.6,318.9 L 738.5,318.9 L 738.5,319.0 L 738.4,319.0 L 738.3,319.1 L 738.3,319.1 L 738.2,319.1 L 738.1,319.1 L 738.0,319.1 L 737.9,319.2 L 737.9,319.2 L 737.8,319.1 L 737.7,319.1 L 737.6,319.1 L 737.5,319.1 L 737.5,319.0 L 737.4,319.0 L 737.3,318.9 L 737.3,318.9 L 737.2,318.8 L 737.2,318.8 L 737.1,318.7 L 737.1,318.6 L 737.0,318.6 L 737.0,318.5 L 737.0,318.4 L 737.0,318.3 L 737.0,318.2 L 737.0,318.2 L 737.0,318.1 L 737.0,318.0 L 737.0,317.9 L 737.0,317.8 L 737.1,317.8 L 737.1,317.7 L 737.2,317.6 L 737.2,317.6 L 737.3,317.5 L 737.3,317.5 L 737.4,317.4 L 737.5,317.4 L 737.5,317.3 L 737.6,317.3 L 737.7,317.3 L 737.8,317.3 L 737.9,317.3 L 737.9,317.3 L 738.0,317.3 L 738.1,317.3 L 738.2,317.3 L 738.3,317.3 L 738.3,317.4 L 738.4,317.4 L 738.5,317.4 L 738.5,317.5 L 738.6,317.5 L 738.7,317.6 L 738.7,317.7 L 738.7,317.7 L 738.8,317.8 L 738.8,317.9 L 738.8,318.0 L 738.9,318.0 L 738.9,318.1 L 738.9,318.2 L 737.9,318.2 Z" style="fill:#000000;fill-rule:evenodd;fill-opacity:1;stroke:#000000;stroke-width:0.0px;stroke-linecap:butt;stroke-linejoin:miter;stroke-opacity:1;"/>
<path class="atom-9" d="M 738.9,313.5 L 738.9,313.6 L 738.9,313.6 L 738.8,313.7 L 738.8,313.8 L 738.8,313.9 L 738.7,313.9 L 738.7,314.0 L 738.7,314.1 L 738.6,314.1 L 738.5,314.2 L 738.5,314.2 L 738.4,314.3 L 738.3,314.3 L 738.3,314.4 L 738.2,314.4 L 738.1,314.4 L 738.0,314.4 L 737.9,314.4 L 737.9,314.4 L 737.8,314.4 L 737.7,314.4 L 737.6,314.4 L 737.5,314.3 L 737.5,314.3 L 737.4,314.3 L 737.3,314.2 L 737.3,314.2 L 737.2,314.1 L 737.2,314.0 L 737.1,314.0 L 737.1,313.9 L 737.0,313.8 L 737.0,313.8 L 737.0,313.7 L 737.0,313.6 L 737.0,313.5 L 737.0,313.4 L 737.0,313.3 L 737.0,313.3 L 737.0,313.2 L 737.0,313.1 L 737.1,313.0 L 737.1,313.0 L 737.2,312.9 L 737.2,312.8 L 737.3,312.8 L 737.3,312.7 L 737.4,312.7 L 737.5,312.6 L 737.5,312.6 L 737.6,312.6 L 737.7,312.5 L 737.8,312.5 L 737.9,312.5 L 737.9,312.5 L 738.0,312.5 L 738.1,312.5 L 738.2,312.6 L 738.3,312.6 L 738.3,312.6 L 738.4,312.7 L 738.5,312.7 L 738.5,312.8 L 738.6,312.8 L 738.7,312.9 L 738.7,312.9 L 738.7,313.0 L 738.8,313.1 L 738.8,313.2 L 738.8,313.2 L 738.9,313.3 L 738.9,313.4 L 738.9,313.5 L 737.9,313.5 Z" style="fill:#000000;fill-rule:evenodd;fill-opacity:1;stroke:#000000;stroke-width:0.0px;stroke-linecap:butt;stroke-linejoin:miter;stroke-opacity:1;"/>
<path class="bond-0 atom-0 atom-1" d="M 56.4,706.1 L 51.9,681.6" style="fill:none;fill-rule:evenodd;stroke:#000000;stroke-width:2.0px;stroke-linecap:butt;stroke-linejoin:miter;stroke-opacity:1"/>
<path class="bond-0 atom-0 atom-1" d="M 62.3,705.0 L 57.9,680.5" style="fill:none;fill-rule:evenodd;stroke:#000000;stroke-width:2.0px;stroke-linecap:butt;stroke-linejoin:miter;stroke-opacity:1"/>
<path class="bond-1 atom-1 atom-2" d="M 54.9,681.0 L 78.0,661.4" style="fill:none;fill-rule:evenodd;stroke:#000000;stroke-width:2.0px;stroke-linecap:butt;stroke-linejoin:miter;stroke-opacity:1"/>
<path class="bond-2 atom-2 atom-3" d="M 78.0,661.4 L 96.6,676.5" style="fill:none;fill-rule:evenodd;stroke:#000000;stroke-width:2.0px;stroke-linecap:butt;stroke-linejoin:miter;stroke-opacity:1"/>
<path class="bond-3 atom-3 atom-4" d="M 106.5,682.1 L 130.4,689.8" style="fill:none;fill-rule:evenodd;stroke:#000000;stroke-width:2.0px;stroke-linecap:butt;stroke-linejoin:miter;stroke-opacity:1"/>
<path class="bond-4 atom-4 atom-5" d="M 133.4,690.2 L 130.2,715.0" style="fill:none;fill-rule:evenodd;stroke:#000000;stroke-width:2.0px;stroke-linecap:butt;stroke-linejoin:miter;stroke-opacity:1"/>
<path class="bond-4 atom-4 atom-5" d="M 127.4,689.5 L 124.2,714.2" style="fill:none;fill-rule:evenodd;stroke:#000000;stroke-width:2.0px;stroke-linecap:butt;stroke-linejoin:miter;stroke-opacity:1"/>
<path class="bond-5 atom-4 atom-6" d="M 130.4,689.8 L 160.7,688.1" style="fill:none;fill-rule:evenodd;stroke:#000000;stroke-width:2.0px;stroke-linecap:butt;stroke-linejoin:miter;stroke-opacity:1"/>
<path class="bond-6 atom-6 atom-7" d="M 163.6,687.4 L 169.6,711.5" style="fill:none;fill-rule:evenodd;stroke:#000000;stroke-width:2.0px;stroke-linecap:butt;stroke-linejoin:miter;stroke-opacity:1"/>
<path class="bond-6 atom-6 atom-7" d="M 157.7,688.8 L 163.7,712.9" style="fill:none;fill-rule:evenodd;stroke:#000000;stroke-width:2.0px;stroke-linecap:butt;stroke-linejoin:miter;stroke-opacity:1"/>
<path class="bond-7 atom-6 atom-8" d="M 160.7,688.1 L 184.0,677.5" style="fill:none;fill-rule:evenodd;stroke:#000000;stroke-width:2.0px;stroke-linecap:butt;stroke-linejoin:miter;stroke-opacity:1"/>
<path class="bond-8 atom-8 atom-9" d="M 193.5,670.3 L 209.5,653.9" style="fill:none;fill-rule:evenodd;stroke:#000000;stroke-width:2.0px;stroke-linecap:butt;stroke-linejoin:miter;stroke-opacity:1"/>
<path class="bond-9 atom-9 atom-10" d="M 209.5,653.9 L 219.2,631.3" style="fill:none;fill-rule:evenodd;stroke:#000000;stroke-width:2.0px;stroke-linecap:butt;stroke-linejoin:miter;stroke-opacity:1"/>
<path class="bond-10 atom-10 atom-11" d="M 221.6,620.7 L 222.5,595.7" style="fill:none;fill-rule:evenodd;stroke:#000000;stroke-width:2.0px;stroke-linecap:butt;stroke-linejoin:miter;stroke-opacity:1"/>
<path class="bond-11 atom-11 atom-12" d="M 222.5,595.7 L 212.6,567.1" style="fill:none;fill-rule:evenodd;stroke:#000000;stroke-width:2.0px;stroke-linecap:butt;stroke-linejoin:miter;stroke-opacity:1"/>
<path class="bond-12 atom-12 atom-13" d="M 212.6,567.1 L 192.9,543.9" style="fill:none;fill-rule:evenodd;stroke:#000000;stroke-width:2.0px;stroke-linecap:butt;stroke-linejoin:miter;stroke-opacity:1"/>
<path class="bond-13 atom-13 atom-14" d="M 192.9,543.9 L 166.3,529.5" style="fill:none;fill-rule:evenodd;stroke:#000000;stroke-width:2.0px;stroke-linecap:butt;stroke-linejoin:miter;stroke-opacity:1"/>
<path class="bond-14 atom-14 atom-15" d="M 166.3,529.5 L 136.2,525.6" style="fill:none;fill-rule:evenodd;stroke:#000000;stroke-width:2.0px;stroke-linecap:butt;stroke-linejoin:miter;stroke-opacity:1"/>
<path class="bond-15 atom-9 atom-16" d="M 209.5,653.9 L 229.8,667.4" style="fill:none;fill-rule:evenodd;stroke:#000000;stroke-width:2.0px;stroke-linecap:butt;stroke-linejoin:miter;stroke-opacity:1"/>
<path class="bond-16 atom-16 atom-17" d="M 234.3,676.2 L 232.7,701.0" style="fill:none;fill-rule:evenodd;stroke:#000000;stroke-width:2.0px;stroke-linecap:butt;stroke-linejoin:miter;stroke-opacity:1"/>
<path class="bond-17 atom-2 atom-18" d="M 78.0,661.4 L 63.0,635.1" style="fill:none;fill-rule:evenodd;stroke:#000000;stroke-width:2.0px;stroke-linecap:butt;stroke-linejoin:miter;stroke-opacity:1"/>
<path class="bond-18 atom-18 atom-19" d="M 56.9,636.4 L 57.4,637.8" style="fill:none;fill-rule:evenodd;stroke:#000000;stroke-width:1.0px;stroke-linecap:butt;stroke-linejoin:miter;stroke-opacity:1"/>
<path class="bond-18 atom-18 atom-19" d="M 50.8,637.7 L 51.8,640.6" style="fill:none;fill-rule:evenodd;stroke:#000000;stroke-width:1.0px;stroke-linecap:butt;stroke-linejoin:miter;stroke-opacity:1"/>
<path class="bond-18 atom-18 atom-19" d="M 44.7,639.0 L 46.2,643.3" style="fill:none;fill-rule:evenodd;stroke:#000000;stroke-width:1.0px;stroke-linecap:butt;stroke-linejoin:miter;stroke-opacity:1"/>
<path class="bond-18 atom-18 atom-19" d="M 38.6,640.3 L 40.6,646.0" style="fill:none;fill-rule:evenodd;stroke:#000000;stroke-width:1.0px;stroke-linecap:butt;stroke-linejoin:miter;stroke-opacity:1"/>
<path class="bond-19 atom-19 atom-20" d="M 30.0,641.3 L 11.4,625.2" style="fill:none;fill-rule:evenodd;stroke:#000000;stroke-width:2.0px;stroke-linecap:butt;stroke-linejoin:miter;stroke-opacity:1"/>
<path class="bond-20 atom-18 atom-21" d="M 63.0,635.1 L 58.4,605.1" style="fill:none;fill-rule:evenodd;stroke:#000000;stroke-width:2.0px;stroke-linecap:butt;stroke-linejoin:miter;stroke-opacity:1"/>
<path class="bond-21 atom-21 atom-22" d="M 58.4,605.1 L 63.8,581.0" style="fill:none;fill-rule:evenodd;stroke:#000000;stroke-width:2.0px;stroke-linecap:butt;stroke-linejoin:miter;stroke-opacity:1"/>
<path class="bond-22 atom-22 atom-23" d="M 68.6,570.2 L 81.9,550.3" style="fill:none;fill-rule:evenodd;stroke:#000000;stroke-width:2.0px;stroke-linecap:butt;stroke-linejoin:miter;stroke-opacity:1"/>
<path class="bond-23 atom-23 atom-24" d="M 81.9,550.3 L 102.5,535.8" style="fill:none;fill-rule:evenodd;stroke:#000000;stroke-width:2.0px;stroke-linecap:butt;stroke-linejoin:miter;stroke-opacity:1"/>
<path class="bond-23 atom-23 atom-24" d="M 81.5,543.1 L 95.9,533.0" style="fill:none;fill-rule:evenodd;stroke:#000000;stroke-width:2.0px;stroke-linecap:butt;stroke-linejoin:miter;stroke-opacity:1"/>
<path class="bond-23 atom-23 atom-24" d="M 88.5,553.1 L 102.9,543.0" style="fill:none;fill-rule:evenodd;stroke:#000000;stroke-width:2.0px;stroke-linecap:butt;stroke-linejoin:miter;stroke-opacity:1"/>
<path class="bond-24 atom-24 atom-15" d="M 115.8,530.6 L 136.2,525.6" style="fill:none;fill-rule:evenodd;stroke:#000000;stroke-width:2.0px;stroke-linecap:butt;stroke-linejoin:miter;stroke-opacity:1"/>
<path class="atom-0" d="M 57.9 713.8 Q 58.0 713.8, 58.4 714.0 Q 58.8 714.2, 59.2 714.3 Q 59.7 714.4, 60.1 714.4 Q 60.9 714.4, 61.4 714.0 Q 61.9 713.6, 61.9 712.9 Q 61.9 712.4, 61.6 712.1 Q 61.4 711.9, 61.0 711.7 Q 60.7 711.5, 60.1 711.4 Q 59.3 711.1, 58.8 710.9 Q 58.4 710.7, 58.1 710.2 Q 57.7 709.8, 57.7 709.0 Q 57.7 707.9, 58.5 707.2 Q 59.2 706.6, 60.7 706.6 Q 61.7 706.6, 62.8 707.0 L 62.5 708.0 Q 61.5 707.6, 60.7 707.6 Q 59.9 707.6, 59.4 707.9 Q 58.9 708.2, 59.0 708.8 Q 59.0 709.3, 59.2 709.6 Q 59.4 709.9, 59.8 710.0 Q 60.1 710.2, 60.7 710.4 Q 61.5 710.6, 61.9 710.8 Q 62.4 711.1, 62.7 711.6 Q 63.1 712.1, 63.1 712.9 Q 63.1 714.1, 62.3 714.7 Q 61.5 715.4, 60.2 715.4 Q 59.4 715.4, 58.8 715.2 Q 58.2 715.0, 57.6 714.8 L 57.9 713.8 " fill="#000000"/>
<path class="atom-3" d="M 97.6 680.5 Q 97.6 678.5, 98.6 677.3 Q 99.6 676.2, 101.5 676.2 Q 103.4 676.2, 104.5 677.3 Q 105.5 678.5, 105.5 680.5 Q 105.5 682.6, 104.4 683.8 Q 103.4 685.0, 101.5 685.0 Q 99.6 685.0, 98.6 683.8 Q 97.6 682.6, 97.6 680.5 M 101.5 684.0 Q 102.8 684.0, 103.5 683.1 Q 104.3 682.3, 104.3 680.5 Q 104.3 678.9, 103.5 678.0 Q 102.8 677.1, 101.5 677.1 Q 100.2 677.1, 99.5 678.0 Q 98.8 678.8, 98.8 680.5 Q 98.8 682.3, 99.5 683.1 Q 100.2 684.0, 101.5 684.0 " fill="#000000"/>
<path class="atom-5" d="M 122.6 719.9 Q 122.6 717.9, 123.6 716.7 Q 124.6 715.6, 126.5 715.6 Q 128.4 715.6, 129.5 716.7 Q 130.5 717.9, 130.5 719.9 Q 130.5 722.0, 129.4 723.2 Q 128.4 724.4, 126.5 724.4 Q 124.6 724.4, 123.6 723.2 Q 122.6 722.0, 122.6 719.9 M 126.5 723.4 Q 127.8 723.4, 128.5 722.6 Q 129.3 721.7, 129.3 719.9 Q 129.3 718.3, 128.5 717.4 Q 127.8 716.5, 126.5 716.5 Q 125.2 716.5, 124.5 717.4 Q 123.8 718.2, 123.8 719.9 Q 123.8 721.7, 124.5 722.6 Q 125.2 723.4, 126.5 723.4 " fill="#000000"/>
<path class="atom-7" d="M 164.0 717.6 Q 164.0 715.5, 165.0 714.4 Q 166.0 713.2, 167.9 713.2 Q 169.8 713.2, 170.9 714.4 Q 171.9 715.5, 171.9 717.6 Q 171.9 719.7, 170.8 720.9 Q 169.8 722.0, 167.9 722.0 Q 166.0 722.0, 165.0 720.9 Q 164.0 719.7, 164.0 717.6 M 167.9 721.1 Q 169.2 721.1, 169.9 720.2 Q 170.7 719.3, 170.7 717.6 Q 170.7 715.9, 169.9 715.0 Q 169.2 714.2, 167.9 714.2 Q 166.6 714.2, 165.9 715.0 Q 165.2 715.9, 165.2 717.6 Q 165.2 719.3, 165.9 720.2 Q 166.6 721.1, 167.9 721.1 " fill="#000000"/>
<path class="atom-8" d="M 186.4 671.3 L 189.2 675.8 Q 189.5 676.3, 189.9 677.1 Q 190.4 677.9, 190.4 677.9 L 190.4 671.3 L 191.5 671.3 L 191.5 679.9 L 190.4 679.9 L 187.3 674.9 Q 187.0 674.3, 186.6 673.6 Q 186.2 673.0, 186.1 672.8 L 186.1 679.9 L 185.0 679.9 L 185.0 671.3 L 186.4 671.3 " fill="#000000"/>
<path class="atom-8" d="M 192.5 671.3 L 193.7 671.3 L 193.7 674.9 L 198.1 674.9 L 198.1 671.3 L 199.3 671.3 L 199.3 679.9 L 198.1 679.9 L 198.1 675.9 L 193.7 675.9 L 193.7 679.9 L 192.5 679.9 L 192.5 671.3 " fill="#000000"/>
<path class="atom-10" d="M 219.5 621.7 L 222.4 626.3 Q 222.6 626.7, 223.1 627.5 Q 223.5 628.3, 223.6 628.4 L 223.6 621.7 L 224.7 621.7 L 224.7 630.3 L 223.5 630.3 L 220.5 625.3 Q 220.1 624.8, 219.8 624.1 Q 219.4 623.4, 219.3 623.2 L 219.3 630.3 L 218.2 630.3 L 218.2 621.7 L 219.5 621.7 " fill="#000000"/>
<path class="atom-10" d="M 225.7 621.7 L 226.9 621.7 L 226.9 625.4 L 231.3 625.4 L 231.3 621.7 L 232.4 621.7 L 232.4 630.3 L 231.3 630.3 L 231.3 626.3 L 226.9 626.3 L 226.9 630.3 L 225.7 630.3 L 225.7 621.7 " fill="#000000"/>
<path class="atom-16" d="M 230.8 670.8 Q 230.8 668.7, 231.8 667.6 Q 232.8 666.4, 234.7 666.4 Q 236.6 666.4, 237.6 667.6 Q 238.6 668.7, 238.6 670.8 Q 238.6 672.9, 237.6 674.1 Q 236.6 675.2, 234.7 675.2 Q 232.8 675.2, 231.8 674.1 Q 230.8 672.9, 230.8 670.8 M 234.7 674.3 Q 236.0 674.3, 236.7 673.4 Q 237.4 672.5, 237.4 670.8 Q 237.4 669.1, 236.7 668.2 Q 236.0 667.4, 234.7 667.4 Q 233.4 667.4, 232.7 668.2 Q 232.0 669.1, 232.0 670.8 Q 232.0 672.5, 232.7 673.4 Q 233.4 674.3, 234.7 674.3 " fill="#000000"/>
<path class="atom-19" d="M 32.4 640.7 L 35.2 645.3 Q 35.5 645.7, 35.9 646.5 Q 36.4 647.3, 36.4 647.4 L 36.4 640.7 L 37.6 640.7 L 37.6 649.3 L 36.4 649.3 L 33.4 644.3 Q 33.0 643.7, 32.6 643.1 Q 32.3 642.4, 32.2 642.2 L 32.2 649.3 L 31.0 649.3 L 31.0 640.7 L 32.4 640.7 " fill="#000000"/>
<path class="atom-19" d="M 30.9 650.2 L 32.1 650.2 L 32.1 653.8 L 36.5 653.8 L 36.5 650.2 L 37.7 650.2 L 37.7 658.8 L 36.5 658.8 L 36.5 654.8 L 32.1 654.8 L 32.1 658.8 L 30.9 658.8 L 30.9 650.2 " fill="#000000"/>
<path class="atom-22" d="M 62.6 578.4 Q 62.7 578.5, 63.1 578.6 Q 63.5 578.8, 64.0 578.9 Q 64.4 579.0, 64.9 579.0 Q 65.7 579.0, 66.1 578.6 Q 66.6 578.2, 66.6 577.5 Q 66.6 577.1, 66.4 576.8 Q 66.1 576.5, 65.8 576.3 Q 65.4 576.2, 64.8 576.0 Q 64.0 575.7, 63.6 575.5 Q 63.1 575.3, 62.8 574.8 Q 62.5 574.4, 62.5 573.6 Q 62.5 572.5, 63.2 571.9 Q 64.0 571.2, 65.4 571.2 Q 66.4 571.2, 67.5 571.7 L 67.3 572.6 Q 66.2 572.2, 65.4 572.2 Q 64.6 572.2, 64.2 572.5 Q 63.7 572.9, 63.7 573.5 Q 63.7 573.9, 63.9 574.2 Q 64.2 574.5, 64.5 574.6 Q 64.9 574.8, 65.4 575.0 Q 66.2 575.2, 66.7 575.5 Q 67.1 575.7, 67.5 576.2 Q 67.8 576.7, 67.8 577.5 Q 67.8 578.7, 67.0 579.4 Q 66.2 580.0, 64.9 580.0 Q 64.1 580.0, 63.6 579.8 Q 63.0 579.7, 62.3 579.4 L 62.6 578.4 " fill="#000000"/>
<path class="atom-22" d="M 68.4 572.5 L 71.3 572.5 L 71.3 573.1 L 68.4 573.1 L 68.4 572.5 " fill="#000000"/>
<path class="atom-24" d="M 104.9 528.6 L 107.7 533.1 Q 108.0 533.6, 108.4 534.4 Q 108.9 535.2, 108.9 535.2 L 108.9 528.6 L 110.0 528.6 L 110.0 537.2 L 108.8 537.2 L 105.8 532.2 Q 105.5 531.6, 105.1 530.9 Q 104.7 530.3, 104.6 530.1 L 104.6 537.2 L 103.5 537.2 L 103.5 528.6 L 104.9 528.6 " fill="#000000"/>
<path class="atom-24" d="M 111.0 530.1 L 112.5 530.1 L 112.5 528.5 L 113.2 528.5 L 113.2 530.1 L 114.8 530.1 L 114.8 530.7 L 113.2 530.7 L 113.2 532.3 L 112.5 532.3 L 112.5 530.7 L 111.0 530.7 L 111.0 530.1 " fill="#000000"/>
<path class="atom-22" d="M 61.1,575.5 L 61.1,575.5 L 61.1,575.6 L 61.1,575.6 L 61.1,575.7 L 61.0,575.7 L 61.0,575.8 L 61.0,575.8 L 61.0,575.9 L 60.9,575.9 L 60.9,575.9 L 60.8,576.0 L 60.8,576.0 L 60.8,576.0 L 60.7,576.0 L 60.7,576.1 L 60.6,576.1 L 60.6,576.1 L 60.5,576.1 L 60.4,576.1 L 60.4,576.1 L 60.3,576.1 L 60.3,576.1 L 60.2,576.0 L 60.2,576.0 L 60.2,576.0 L 60.1,576.0 L 60.1,575.9 L 60.0,575.9 L 60.0,575.8 L 60.0,575.8 L 59.9,575.8 L 59.9,575.7 L 59.9,575.7 L 59.9,575.6 L 59.9,575.6 L 59.9,575.5 L 59.9,575.5 L 59.9,575.4 L 59.9,575.3 L 59.9,575.3 L 59.9,575.2 L 59.9,575.2 L 60.0,575.2 L 60.0,575.1 L 60.0,575.1 L 60.1,575.0 L 60.1,575.0 L 60.2,575.0 L 60.2,574.9 L 60.2,574.9 L 60.3,574.9 L 60.3,574.9 L 60.4,574.9 L 60.4,574.9 L 60.5,574.9 L 60.6,574.9 L 60.6,574.9 L 60.7,574.9 L 60.7,574.9 L 60.8,574.9 L 60.8,575.0 L 60.8,575.0 L 60.9,575.0 L 60.9,575.1 L 61.0,575.1 L 61.0,575.1 L 61.0,575.2 L 61.0,575.2 L 61.1,575.3 L 61.1,575.3 L 61.1,575.4 L 61.1,575.4 L 61.1,575.5 L 60.5,575.5 Z" style="fill:#000000;fill-rule:evenodd;fill-opacity:1;stroke:#000000;stroke-width:0.0px;stroke-linecap:butt;stroke-linejoin:miter;stroke-opacity:1;"/>
<path class="bond-0 atom-0 atom-1" d="M 469.2,617.5 L 452.5,603.3" style="fill:none;fill-rule:evenodd;stroke:#000000;stroke-width:2.0px;stroke-linecap:butt;stroke-linejoin:miter;stroke-opacity:1"/>
<path class="bond-1 atom-1 atom-2" d="M 442.2,600.8 L 413.1,611.3" style="fill:none;fill-rule:evenodd;stroke:#000000;stroke-width:2.0px;stroke-linecap:butt;stroke-linejoin:miter;stroke-opacity:1"/>
<path class="bond-2 atom-2 atom-3" d="M 413.1,611.3 L 385.4,587.8" style="fill:none;fill-rule:evenodd;stroke:#000000;stroke-width:2.0px;stroke-linecap:butt;stroke-linejoin:miter;stroke-opacity:1"/>
<path class="bond-3 atom-3 atom-4" d="M 385.4,587.8 L 351.1,600.1" style="fill:none;fill-rule:evenodd;stroke:#000000;stroke-width:2.0px;stroke-linecap:butt;stroke-linejoin:miter;stroke-opacity:1"/>
<path class="bond-3 atom-3 atom-4" d="M 382.7,596.5 L 358.7,605.1" style="fill:none;fill-rule:evenodd;stroke:#000000;stroke-width:2.0px;stroke-linecap:butt;stroke-linejoin:miter;stroke-opacity:1"/>
<path class="bond-4 atom-4 atom-5" d="M 351.1,600.1 L 329.3,581.6" style="fill:none;fill-rule:evenodd;stroke:#000000;stroke-width:2.0px;stroke-linecap:butt;stroke-linejoin:miter;stroke-opacity:1"/>
<path class="bond-5 atom-5 atom-6" d="M 317.4,578.7 L 289.1,588.9" style="fill:none;fill-rule:evenodd;stroke:#000000;stroke-width:2.0px;stroke-linecap:butt;stroke-linejoin:miter;stroke-opacity:1"/>
<path class="bond-6 atom-6 atom-7" d="M 289.1,588.9 L 261.4,565.4" style="fill:none;fill-rule:evenodd;stroke:#000000;stroke-width:2.0px;stroke-linecap:butt;stroke-linejoin:miter;stroke-opacity:1"/>
<path class="bond-7 atom-6 atom-8" d="M 289.1,588.9 L 282.7,624.7" style="fill:none;fill-rule:evenodd;stroke:#000000;stroke-width:2.0px;stroke-linecap:butt;stroke-linejoin:miter;stroke-opacity:1"/>
<path class="bond-7 atom-6 atom-8" d="M 295.3,595.5 L 290.8,620.6" style="fill:none;fill-rule:evenodd;stroke:#000000;stroke-width:2.0px;stroke-linecap:butt;stroke-linejoin:miter;stroke-opacity:1"/>
<path class="bond-8 atom-8 atom-9" d="M 282.7,624.7 L 310.4,648.2" style="fill:none;fill-rule:evenodd;stroke:#000000;stroke-width:2.0px;stroke-linecap:butt;stroke-linejoin:miter;stroke-opacity:1"/>
<path class="bond-9 atom-9 atom-10" d="M 314.0,648.8 L 307.5,684.6" style="fill:none;fill-rule:evenodd;stroke:#000000;stroke-width:2.0px;stroke-linecap:butt;stroke-linejoin:miter;stroke-opacity:1"/>
<path class="bond-9 atom-9 atom-10" d="M 306.8,647.5 L 300.4,683.3" style="fill:none;fill-rule:evenodd;stroke:#000000;stroke-width:2.0px;stroke-linecap:butt;stroke-linejoin:miter;stroke-opacity:1"/>
<path class="atom-0" d="M 470.4 622.5 Q 470.4 620.0, 471.6 618.7 Q 472.8 617.3, 475.1 617.3 Q 477.4 617.3, 478.6 618.7 Q 479.8 620.0, 479.8 622.5 Q 479.8 625.0, 478.6 626.4 Q 477.4 627.9, 475.1 627.9 Q 472.9 627.9, 471.6 626.4 Q 470.4 625.0, 470.4 622.5 M 475.1 626.7 Q 476.7 626.7, 477.5 625.6 Q 478.4 624.6, 478.4 622.5 Q 478.4 620.5, 477.5 619.5 Q 476.7 618.4, 475.1 618.4 Q 473.5 618.4, 472.7 619.5 Q 471.8 620.5, 471.8 622.5 Q 471.8 624.6, 472.7 625.6 Q 473.5 626.7, 475.1 626.7 " fill="#000000"/>
<path class="atom-0" d="M 480.6 617.4 L 482.0 617.4 L 482.0 621.8 L 487.2 621.8 L 487.2 617.4 L 488.6 617.4 L 488.6 627.7 L 487.2 627.7 L 487.2 622.9 L 482.0 622.9 L 482.0 627.7 L 480.6 627.7 L 480.6 617.4 " fill="#000000"/>
<path class="atom-1" d="M 445.1 593.8 L 448.5 599.3 Q 448.8 599.8, 449.3 600.8 Q 449.9 601.8, 449.9 601.8 L 449.9 593.8 L 451.3 593.8 L 451.3 604.1 L 449.9 604.1 L 446.2 598.2 Q 445.8 597.5, 445.4 596.7 Q 444.9 595.9, 444.8 595.6 L 444.8 604.1 L 443.4 604.1 L 443.4 593.8 L 445.1 593.8 " fill="#000000"/>
<path class="atom-1" d="M 452.5 595.5 L 456.0 595.5 L 456.0 596.3 L 452.5 596.3 L 452.5 595.5 " fill="#000000"/>
<path class="atom-5" d="M 318.6 576.6 Q 318.6 574.1, 319.9 572.8 Q 321.1 571.4, 323.4 571.4 Q 325.6 571.4, 326.9 572.8 Q 328.1 574.1, 328.1 576.6 Q 328.1 579.1, 326.9 580.5 Q 325.6 582.0, 323.4 582.0 Q 321.1 582.0, 319.9 580.5 Q 318.6 579.1, 318.6 576.6 M 323.4 580.8 Q 324.9 580.8, 325.8 579.7 Q 326.6 578.7, 326.6 576.6 Q 326.6 574.6, 325.8 573.6 Q 324.9 572.5, 323.4 572.5 Q 321.8 572.5, 320.9 573.6 Q 320.1 574.6, 320.1 576.6 Q 320.1 578.7, 320.9 579.7 Q 321.8 580.8, 323.4 580.8 " fill="#000000"/>
<path class="bond-0 atom-0 atom-1" d="M 529.0,636.1 L 548.9,624.7" style="fill:none;fill-rule:evenodd;stroke:#000000;stroke-width:2.0px;stroke-linecap:butt;stroke-linejoin:miter;stroke-opacity:1"/>
<path class="bond-1 atom-1 atom-2" d="M 548.9,624.7 L 568.7,636.2" style="fill:none;fill-rule:evenodd;stroke:#000000;stroke-width:2.0px;stroke-linecap:butt;stroke-linejoin:miter;stroke-opacity:1"/>
<path class="bond-2 atom-2 atom-3" d="M 576.4,636.2 L 596.3,624.8" style="fill:none;fill-rule:evenodd;stroke:#000000;stroke-width:2.0px;stroke-linecap:butt;stroke-linejoin:miter;stroke-opacity:1"/>
<path class="bond-3 atom-3 atom-4" d="M 596.3,624.8 L 596.4,602.2" style="fill:none;fill-rule:evenodd;stroke:#000000;stroke-width:2.0px;stroke-linecap:butt;stroke-linejoin:miter;stroke-opacity:1"/>
<path class="bond-4 atom-4 atom-5" d="M 603.2,590.4 L 614.3,584.0" style="fill:none;fill-rule:evenodd;stroke:#000000;stroke-width:2.0px;stroke-linecap:butt;stroke-linejoin:miter;stroke-opacity:1"/>
<path class="bond-4 atom-4 atom-5" d="M 605.9,595.1 L 617.1,588.7" style="fill:none;fill-rule:evenodd;stroke:#000000;stroke-width:2.0px;stroke-linecap:butt;stroke-linejoin:miter;stroke-opacity:1"/>
<path class="bond-5 atom-4 atom-6" d="M 592.6,595.2 L 577.2,586.3" style="fill:none;fill-rule:evenodd;stroke:#000000;stroke-width:2.0px;stroke-linecap:butt;stroke-linejoin:miter;stroke-opacity:1"/>
<path class="bond-6 atom-3 atom-7" d="M 596.3,624.8 L 621.4,636.2 L 618.6,640.9 Z" style="fill:#000000;fill-rule:evenodd;fill-opacity:1;stroke:#000000;stroke-width:1.0px;stroke-linecap:butt;stroke-linejoin:miter;stroke-opacity:1;"/>
<path class="bond-7 atom-7 atom-8" d="M 620.0,638.6 L 643.7,624.9" style="fill:none;fill-rule:evenodd;stroke:#000000;stroke-width:2.0px;stroke-linecap:butt;stroke-linejoin:miter;stroke-opacity:1"/>
<path class="bond-8 atom-8 atom-9" d="M 643.7,624.9 L 667.4,638.7" style="fill:none;fill-rule:evenodd;stroke:#000000;stroke-width:2.0px;stroke-linecap:butt;stroke-linejoin:miter;stroke-opacity:1"/>
<path class="bond-9 atom-9 atom-10" d="M 667.4,638.7 L 691.2,625.1" style="fill:none;fill-rule:evenodd;stroke:#000000;stroke-width:2.0px;stroke-linecap:butt;stroke-linejoin:miter;stroke-opacity:1"/>
<path class="bond-10 atom-10 atom-11" d="M 691.2,625.1 L 691.2,597.7" style="fill:none;fill-rule:evenodd;stroke:#000000;stroke-width:2.0px;stroke-linecap:butt;stroke-linejoin:miter;stroke-opacity:1"/>
<path class="bond-11 atom-11 atom-12" d="M 691.2,597.7 L 715.0,584.1" style="fill:none;fill-rule:evenodd;stroke:#000000;stroke-width:2.0px;stroke-linecap:butt;stroke-linejoin:miter;stroke-opacity:1"/>
<path class="bond-12 atom-12 atom-13" d="M 715.0,584.1 L 738.6,597.8" style="fill:none;fill-rule:evenodd;stroke:#000000;stroke-width:2.0px;stroke-linecap:butt;stroke-linejoin:miter;stroke-opacity:1"/>
<path class="bond-13 atom-13 atom-14" d="M 738.6,597.8 L 738.6,625.2" style="fill:none;fill-rule:evenodd;stroke:#000000;stroke-width:2.0px;stroke-linecap:butt;stroke-linejoin:miter;stroke-opacity:1"/>
<path class="bond-14 atom-14 atom-15" d="M 738.6,625.2 L 714.8,638.8" style="fill:none;fill-rule:evenodd;stroke:#000000;stroke-width:2.0px;stroke-linecap:butt;stroke-linejoin:miter;stroke-opacity:1"/>
<path class="bond-15 atom-15 atom-16" d="M 717.6,638.8 L 717.5,661.4" style="fill:none;fill-rule:evenodd;stroke:#000000;stroke-width:2.0px;stroke-linecap:butt;stroke-linejoin:miter;stroke-opacity:1"/>
<path class="bond-15 atom-15 atom-16" d="M 712.1,638.8 L 712.0,661.4" style="fill:none;fill-rule:evenodd;stroke:#000000;stroke-width:2.0px;stroke-linecap:butt;stroke-linejoin:miter;stroke-opacity:1"/>
<path class="bond-16 atom-15 atom-10" d="M 714.8,638.8 L 691.2,625.1" style="fill:none;fill-rule:evenodd;stroke:#000000;stroke-width:2.0px;stroke-linecap:butt;stroke-linejoin:miter;stroke-opacity:1"/>
<path class="atom-0" d="M 511.4 634.4 L 512.4 634.4 L 512.4 637.7 L 516.4 637.7 L 516.4 634.4 L 517.4 634.4 L 517.4 642.2 L 516.4 642.2 L 516.4 638.6 L 512.4 638.6 L 512.4 642.2 L 511.4 642.2 L 511.4 634.4 " fill="#000000"/>
<path class="atom-0" d="M 518.4 641.9 Q 518.6 641.4, 519.0 641.1 Q 519.5 640.9, 520.1 640.9 Q 520.9 640.9, 521.3 641.3 Q 521.7 641.7, 521.7 642.5 Q 521.7 643.2, 521.2 643.9 Q 520.6 644.6, 519.4 645.5 L 521.8 645.5 L 521.8 646.0 L 518.4 646.0 L 518.4 645.6 Q 519.3 644.9, 519.9 644.4 Q 520.4 643.9, 520.7 643.4 Q 521.0 643.0, 521.0 642.5 Q 521.0 642.0, 520.8 641.7 Q 520.5 641.4, 520.1 641.4 Q 519.7 641.4, 519.4 641.6 Q 519.1 641.8, 518.9 642.1 L 518.4 641.9 " fill="#000000"/>
<path class="atom-0" d="M 523.5 634.4 L 526.0 638.5 Q 526.3 638.9, 526.7 639.7 Q 527.1 640.4, 527.1 640.4 L 527.1 634.4 L 528.1 634.4 L 528.1 642.2 L 527.1 642.2 L 524.3 637.7 Q 524.0 637.2, 523.7 636.5 Q 523.3 635.9, 523.2 635.8 L 523.2 642.2 L 522.2 642.2 L 522.2 634.4 L 523.5 634.4 " fill="#000000"/>
<path class="atom-2" d="M 570.9 634.5 L 573.4 638.7 Q 573.7 639.1, 574.1 639.8 Q 574.5 640.5, 574.5 640.6 L 574.5 634.5 L 575.5 634.5 L 575.5 642.3 L 574.5 642.3 L 571.7 637.8 Q 571.4 637.3, 571.1 636.7 Q 570.8 636.1, 570.7 635.9 L 570.7 642.3 L 569.6 642.3 L 569.6 634.5 L 570.9 634.5 " fill="#000000"/>
<path class="atom-2" d="M 569.6 643.1 L 570.6 643.1 L 570.6 646.4 L 574.6 646.4 L 574.6 643.1 L 575.6 643.1 L 575.6 650.8 L 574.6 650.8 L 574.6 647.2 L 570.6 647.2 L 570.6 650.8 L 569.6 650.8 L 569.6 643.1 " fill="#000000"/>
<path class="atom-4" d="M 594.7 593.6 L 597.2 597.7 Q 597.5 598.1, 597.9 598.8 Q 598.3 599.5, 598.3 599.6 L 598.3 593.6 L 599.3 593.6 L 599.3 601.3 L 598.3 601.3 L 595.6 596.8 Q 595.2 596.3, 594.9 595.7 Q 594.6 595.1, 594.5 594.9 L 594.5 601.3 L 593.5 601.3 L 593.5 593.6 L 594.7 593.6 " fill="#000000"/>
<path class="atom-4" d="M 600.3 595.0 L 601.6 595.0 L 601.6 593.5 L 602.2 593.5 L 602.2 595.0 L 603.6 595.0 L 603.6 595.5 L 602.2 595.5 L 602.2 596.9 L 601.6 596.9 L 601.6 595.5 L 600.3 595.5 L 600.3 595.0 " fill="#000000"/>
<path class="atom-5" d="M 616.6 583.8 Q 616.6 582.0, 617.5 580.9 Q 618.4 579.9, 620.2 579.9 Q 621.9 579.9, 622.8 580.9 Q 623.7 582.0, 623.7 583.8 Q 623.7 585.7, 622.8 586.8 Q 621.8 587.9, 620.2 587.9 Q 618.4 587.9, 617.5 586.8 Q 616.6 585.7, 616.6 583.8 M 620.2 587.0 Q 621.3 587.0, 622.0 586.2 Q 622.6 585.4, 622.6 583.8 Q 622.6 582.3, 622.0 581.5 Q 621.3 580.8, 620.2 580.8 Q 619.0 580.8, 618.3 581.5 Q 617.7 582.3, 617.7 583.8 Q 617.7 585.4, 618.3 586.2 Q 619.0 587.0, 620.2 587.0 " fill="#000000"/>
<path class="atom-6" d="M 569.2 583.7 Q 569.2 581.8, 570.1 580.8 Q 571.0 579.8, 572.7 579.8 Q 574.5 579.8, 575.4 580.8 Q 576.3 581.8, 576.3 583.7 Q 576.3 585.6, 575.4 586.7 Q 574.4 587.7, 572.7 587.7 Q 571.0 587.7, 570.1 586.7 Q 569.2 585.6, 569.2 583.7 M 572.7 586.8 Q 573.9 586.8, 574.6 586.1 Q 575.2 585.3, 575.2 583.7 Q 575.2 582.2, 574.6 581.4 Q 573.9 580.6, 572.7 580.6 Q 571.6 580.6, 570.9 581.4 Q 570.3 582.2, 570.3 583.7 Q 570.3 585.3, 570.9 586.1 Q 571.6 586.8, 572.7 586.8 " fill="#000000"/>
<path class="atom-6" d="M 576.8 581.0 L 579.5 581.0 L 579.5 581.6 L 576.8 581.6 L 576.8 581.0 " fill="#000000"/>
<path class="atom-16" d="M 711.2 666.2 Q 711.2 664.4, 712.1 663.3 Q 713.0 662.3, 714.7 662.3 Q 716.5 662.3, 717.4 663.3 Q 718.3 664.4, 718.3 666.2 Q 718.3 668.1, 717.4 669.2 Q 716.4 670.2, 714.7 670.2 Q 713.0 670.2, 712.1 669.2 Q 711.2 668.1, 711.2 666.2 M 714.7 669.4 Q 715.9 669.4, 716.6 668.6 Q 717.2 667.8, 717.2 666.2 Q 717.2 664.7, 716.6 663.9 Q 715.9 663.2, 714.7 663.2 Q 713.6 663.2, 712.9 663.9 Q 712.3 664.7, 712.3 666.2 Q 712.3 667.8, 712.9 668.6 Q 713.6 669.4, 714.7 669.4 " fill="#000000"/>
<path class="atom-7" d="M 620.5,641.0 L 620.5,641.1 L 620.5,641.1 L 620.5,641.2 L 620.5,641.2 L 620.5,641.3 L 620.5,641.3 L 620.4,641.3 L 620.4,641.4 L 620.4,641.4 L 620.4,641.4 L 620.3,641.5 L 620.3,641.5 L 620.2,641.5 L 620.2,641.5 L 620.1,641.5 L 620.1,641.6 L 620.1,641.6 L 620.0,641.6 L 620.0,641.6 L 619.9,641.6 L 619.9,641.6 L 619.8,641.5 L 619.8,641.5 L 619.7,641.5 L 619.7,641.5 L 619.7,641.5 L 619.6,641.4 L 619.6,641.4 L 619.6,641.4 L 619.5,641.3 L 619.5,641.3 L 619.5,641.2 L 619.5,641.2 L 619.5,641.1 L 619.5,641.1 L 619.5,641.0 L 619.5,641.0 L 619.5,641.0 L 619.5,640.9 L 619.5,640.9 L 619.5,640.8 L 619.5,640.8 L 619.5,640.7 L 619.6,640.7 L 619.6,640.7 L 619.6,640.6 L 619.7,640.6 L 619.7,640.6 L 619.7,640.5 L 619.8,640.5 L 619.8,640.5 L 619.9,640.5 L 619.9,640.5 L 620.0,640.5 L 620.0,640.5 L 620.1,640.5 L 620.1,640.5 L 620.1,640.5 L 620.2,640.5 L 620.2,640.5 L 620.3,640.6 L 620.3,640.6 L 620.4,640.6 L 620.4,640.6 L 620.4,640.7 L 620.4,640.7 L 620.5,640.8 L 620.5,640.8 L 620.5,640.8 L 620.5,640.9 L 620.5,640.9 L 620.5,641.0 L 620.5,641.0 L 620.0,641.0 Z" style="fill:#000000;fill-rule:evenodd;fill-opacity:1;stroke:#000000;stroke-width:0.0px;stroke-linecap:butt;stroke-linejoin:miter;stroke-opacity:1;"/>
</svg>